{
.appVersion = "1249";
copyright = "Copyright 2019 The Blaka Project Authors (https://github.com/Gue3bara/Blaka)";
customParameters = (
{
name = vendorID;
value = "1KTF";
},
{
name = fsType;
value = (
);
},
{
name = license;
value = "This Font Software is licensed under the SIL Open Font License, Version 1.1. This license is available with a FAQ at: http://scripts.sil.org/OFL";
},
{
name = licenseURL;
value = "http://scripts.sil.org/OFL";
}
);
date = "2019-07-31 04:11:47 +0000";
designer = "Mohamed Gaber";
designerURL = "http://gaber.design/";
familyName = Blaka;
featurePrefixes = (
{
automatic = 1;
code = "languagesystem DFLT dflt;\012\012languagesystem arab dflt;\012languagesystem arab URD;\012";
name = Languagesystems;
}
);
features = (
{
automatic = 1;
code = "feature locl;\012feature init;\012feature medi;\012feature fina;\012";
name = aalt;
},
{
automatic = 1;
code = "lookup ccmp_Other_1 {\012	@CombiningTopAccents = [dotaccentcomb];\012	sub [i j]' @CombiningTopAccents by [idotless jdotless];\012} ccmp_Other_1;\012";
name = ccmp;
},
{
automatic = 1;
code = "script arab;\012language URD;\012sub four-persian by four-persian.urdu;\012sub six-persian by six-ar;\012sub seven-persian by seven-persian.urdu;\012";
name = locl;
},
{
automatic = 1;

glyphs = (
{
glyphname = A;
lastChange = "2019-07-31 04:00:43 +0000";
layers = (
{
layerId = "3DD6C797-E5ED-486C-89DE-75EDF9B2F8B8";
paths = (
{
closed = 1;
nodes = (
"467 613 LINE",
"488 558 LINE",
"22 686 LINE",
"76 716 LINE",
"13 484 LINE",
"-6 537 LINE",
"449 412 LINE",
"404 381 LINE"
);
},
{
closed = 1;
nodes = (
"230 147 LINE",
"54 195 LINE",
"15 49 LINE",
"191 1 LINE"
);
},
{
closed = 1;
nodes = (
"197 86 LINE",
"197 500 LINE",
"46 500 LINE",
"46 86 LINE"
);
},
{
closed = 1;
nodes = (
"455 147 LINE",
"279 195 LINE",
"240 49 LINE",
"416 1 LINE"
);
},
{
closed = 1;
nodes = (
"303 444 LINE",
"324 344 LINE",
"62 416 LINE",
"117 492 LINE",
"54 260 LINE",
"23 315 LINE",
"285 243 LINE",
"240 212 LINE"
);
},
{
closed = 1;
nodes = (
"422 86 LINE",
"422 526 LINE",
"271 526 LINE",
"271 86 LINE"
);
}
);
width = 470;
},
{
associatedMasterId = "3DD6C797-E5ED-486C-89DE-75EDF9B2F8B8";
layerId = "960DE912-2812-491B-A7F4-4ED4F0C42425";
name = "Apr 18 19, 22:32";
paths = (
{
closed = 1;
nodes = (
"276 0 LINE",
"276 500 LINE",
"125 500 LINE",
"125 0 LINE"
);
},
{
closed = 1;
nodes = (
"491 86 LINE",
"491 526 LINE",
"340 526 LINE",
"340 86 LINE"
);
},
{
closed = 1;
nodes = (
"524 147 LINE",
"348 195 LINE",
"309 49 LINE",
"485 1 LINE"
);
},
{
closed = 1;
nodes = (
"524 147 LINE",
"348 195 LINE",
"309 49 LINE",
"485 1 LINE"
);
},
{
closed = 1;
nodes = (
"524 570 LINE",
"101 686 LINE",
"155 716 LINE",
"92 484 LINE",
"73 537 LINE",
"485 424 LINE"
);
}
);
width = 600;
},
{
associatedMasterId = "3DD6C797-E5ED-486C-89DE-75EDF9B2F8B8";
layerId = "AB010599-2969-4A11-984B-132DCCD80062";
name = "Apr 18 19, 22:32";
paths = (
{
closed = 1;
nodes = (
"276 86 LINE",
"276 500 LINE",
"125 500 LINE",
"125 86 LINE"
);
},
{
closed = 1;
nodes = (
"491 86 LINE",
"491 526 LINE",
"340 526 LINE",
"340 86 LINE"
);
},
{
closed = 1;
nodes = (
"524 147 LINE",
"348 195 LINE",
"309 49 LINE",
"485 1 LINE"
);
},
{
closed = 1;
nodes = (
"524 147 LINE",
"348 195 LINE",
"309 49 LINE",
"485 1 LINE"
);
},
{
closed = 1;
nodes = (
"524 570 LINE",
"101 686 LINE",
"155 716 LINE",
"92 484 LINE",
"73 537 LINE",
"485 424 LINE"
);
},
{
closed = 1;
nodes = (
"125 390 LINE",
"125 -3 LINE",
"276 58 LINE",
"276 390 LINE"
);
}
);
width = 600;
},
{
associatedMasterId = "3DD6C797-E5ED-486C-89DE-75EDF9B2F8B8";
layerId = "94C546A5-DA1D-4CE8-89EC-3F7B325B0D37";
name = "Apr 18 19, 22:39";
paths = (
{
closed = 1;
nodes = (
"192 86 LINE",
"192 500 LINE",
"41 500 LINE",
"41 86 LINE"
);
},
{
closed = 1;
nodes = (
"225 147 LINE",
"49 195 LINE",
"10 49 LINE",
"186 1 LINE"
);
},
{
closed = 1;
nodes = (
"407 86 LINE",
"407 526 LINE",
"256 526 LINE",
"256 86 LINE"
);
},
{
closed = 1;
nodes = (
"440 147 LINE",
"264 195 LINE",
"225 49 LINE",
"401 1 LINE"
);
},
{
closed = 1;
nodes = (
"440 147 LINE",
"264 195 LINE",
"225 49 LINE",
"401 1 LINE"
);
},
{
closed = 1;
nodes = (
"452 613 LINE",
"483 558 LINE",
"17 686 LINE",
"71 716 LINE",
"8 484 LINE",
"-11 537 LINE",
"444 412 LINE",
"389 381 LINE"
);
},
{
closed = 1;
nodes = (
"288 444 LINE",
"319 344 LINE",
"57 416 LINE",
"112 492 LINE",
"61 303 LINE",
"280 243 LINE",
"225 212 LINE"
);
}
);
width = 452;
},
{
associatedMasterId = "3DD6C797-E5ED-486C-89DE-75EDF9B2F8B8";
layerId = "1841794A-B718-4F7E-8930-77021FC2ADB3";
width = 600;
},
{
layerId = "C1068CC4-E81B-47E6-9D26-F0E70787A68A";
paths = (
{
closed = 1;
nodes = (
"191 1 LINE",
"230 147 LINE",
"197 156 LINE",
"197 267 LINE",
"251 252 LINE",
"279 356 LINE",
"197 379 LINE",
"197 500 LINE",
"46 500 LINE",
"46 165 LINE",
"15 49 LINE"
);
},
{
closed = 1;
nodes = (
"223 326 LINE",
"218 306 LINE",
"132 330 LINE",
"132 105 LINE",
"158 98 LINE",
"153 78 LINE",
"85 96 LINE",
"90 116 LINE",
"112 110 LINE",
"112 453 LINE",
"132 453 LINE",
"132 351 LINE"
);
},
{
closed = 1;
nodes = (
"25 528 LINE",
"271 461 LINE",
"271 165 LINE",
"240 49 LINE",
"416 1 LINE",
"455 147 LINE",
"422 156 LINE",
"422 447 LINE",
"455 567 LINE",
"65 674 LINE"
);
},
{
closed = 1;
nodes = (
"94 597 LINE",
"377 519 LINE",
"372 500 LINE",
"357 504 LINE",
"357 105 LINE",
"383 98 LINE",
"378 78 LINE",
"310 96 LINE",
"315 116 LINE",
"337 110 LINE",
"337 510 LINE",
"89 578 LINE"
);
}
);
width = 470;
},
{
associatedMasterId = "C1068CC4-E81B-47E6-9D26-F0E70787A68A";
layerId = "F11065D9-4AC2-45B6-BD3C-4151C4ED4BDD";
name = "Jul 30 19, 22:49";
paths = (
{
closed = 1;
nodes = (
"318 489 LINE",
"329 466 LINE",
"12 553 LINE",
"35 566 LINE",
"21 512 LINE",
"13 532 LINE",
"322 447 LINE",
"304 435 LINE"
);
},
{
closed = 1;
nodes = (
"88 50 LINE",
"20 68 LINE",
"15 48 LINE",
"83 30 LINE"
);
},
{
closed = 1;
nodes = (
"66 52 LINE",
"66 519 LINE",
"46 519 LINE",
"46 52 LINE"
);
},
{
closed = 1;
nodes = (
"313 50 LINE",
"245 69 LINE",
"240 49 LINE",
"308 30 LINE"
);
},
{
closed = 1;
nodes = (
"277 283 LINE",
"289 263 LINE",
"52 328 LINE",
"64 335 LINE",
"52 291 LINE",
"50 307 LINE",
"285 243 LINE",
"265 239 LINE"
);
},
{
closed = 1;
nodes = (
"291 51 LINE",
"291 466 LINE",
"271 466 LINE",
"271 51 LINE"
);
}
);
width = 328;
},
{
associatedMasterId = "C1068CC4-E81B-47E6-9D26-F0E70787A68A";
layerId = "65523657-DE38-4EC2-84AB-22EFEC20E824";
name = "Jul 30 19, 22:59";
paths = (
{
closed = 1;
nodes = (
"212 1 LINE",
"251 147 LINE",
"218 156 LINE",
"218 267 LINE",
"272 252 LINE",
"300 356 LINE",
"218 379 LINE",
"218 500 LINE",
"67 500 LINE",
"67 165 LINE",
"36 49 LINE"
);
},
{
closed = 1;
nodes = (
"244 326 LINE",
"239 306 LINE",
"153 330 LINE",
"153 105 LINE",
"179 98 LINE",
"174 78 LINE",
"106 96 LINE",
"111 116 LINE",
"133 110 LINE",
"133 453 LINE",
"153 453 LINE",
"153 351 LINE"
);
},
{
closed = 1;
nodes = (
"46 528 LINE",
"292 461 LINE",
"292 165 LINE",
"261 49 LINE",
"437 1 LINE",
"476 147 LINE",
"443 156 LINE",
"443 447 LINE",
"476 567 LINE",
"86 674 LINE"
);
},
{
closed = 1;
nodes = (
"115 597 LINE",
"398 519 LINE",
"393 500 LINE",
"378 504 LINE",
"378 105 LINE",
"404 98 LINE",
"399 78 LINE",
"331 96 LINE",
"336 116 LINE",
"358 110 LINE",
"358 510 LINE",
"110 578 LINE"
);
}
);
width = 524;
},
{
associatedMasterId = "C1068CC4-E81B-47E6-9D26-F0E70787A68A";
layerId = "EC035F5C-B96D-4F4A-B177-D55FBCAAF2B4";
name = "Jul 30 19, 23:00";
paths = (
{
closed = 1;
nodes = (
"212 1 LINE",
"251 147 LINE",
"218 156 LINE",
"218 267 LINE",
"272 252 LINE",
"300 356 LINE",
"218 379 LINE",
"218 500 LINE",
"67 500 LINE",
"67 165 LINE",
"36 49 LINE"
);
},
{
closed = 1;
nodes = (
"244 326 LINE",
"239 306 LINE",
"153 330 LINE",
"153 105 LINE",
"179 98 LINE",
"174 78 LINE",
"106 96 LINE",
"111 116 LINE",
"133 110 LINE",
"133 453 LINE",
"153 453 LINE",
"153 351 LINE"
);
},
{
closed = 1;
nodes = (
"46 528 LINE",
"292 461 LINE",
"292 165 LINE",
"261 49 LINE",
"437 1 LINE",
"476 147 LINE",
"443 156 LINE",
"443 447 LINE",
"476 567 LINE",
"86 674 LINE"
);
},
{
closed = 1;
nodes = (
"383 523 LINE",
"378 504 LINE",
"378 105 LINE",
"404 98 LINE",
"399 78 LINE",
"331 96 LINE",
"336 116 LINE",
"358 110 LINE",
"358 510 LINE",
"110 578 LINE",
"115 597 LINE"
);
}
);
width = 524;
}
);
unicode = 0041;
},
{
glyphname = B;
lastChange = "2019-07-31 03:33:26 +0000";
layers = (
{
layerId = "3DD6C797-E5ED-486C-89DE-75EDF9B2F8B8";
paths = (
{
closed = 1;
nodes = (
"241 -49 LINE",
"455 76 LINE",
"455 95 LINE",
"12 217 LINE",
"66 247 LINE",
"3 15 LINE",
"-16 68 LINE",
"439 -57 LINE"
);
},
{
closed = 1;
nodes = (
"230 171 LINE",
"230 490 LINE",
"79 490 LINE",
"79 171 LINE"
);
},
{
closed = 1;
nodes = (
"455 76 LINE",
"455 331 LINE",
"304 331 LINE",
"304 76 LINE"
);
},
{
closed = 1;
nodes = (
"455 331 LINE",
"201 401 LINE",
"274 477 LINE",
"202 211 LINE",
"156 256 LINE",
"416 185 LINE"
);
},
{
closed = 1;
nodes = (
"465 613 LINE",
"521 558 LINE",
"55 686 LINE",
"109 716 LINE",
"46 484 LINE",
"27 537 LINE",
"482 412 LINE",
"402 381 LINE"
);
},
{
closed = 1;
nodes = (
"455 375 LINE",
"455 576 LINE",
"304 576 LINE",
"304 333 LINE"
);
}
);
width = 470;
},
{
associatedMasterId = "3DD6C797-E5ED-486C-89DE-75EDF9B2F8B8";
layerId = "975FCC88-CAB1-4E22-899D-482E40CDE85B";
name = "Apr 21 19, 14:23";
paths = (
{
closed = 1;
nodes = (
"453 331 LINE",
"199 401 LINE",
"272 477 LINE",
"200 211 LINE",
"154 256 LINE",
"414 185 LINE"
);
},
{
closed = 1;
nodes = (
"-457 41 LINE",
"-508 -14 LINE",
"-571 218 LINE",
"-496 187 LINE",
"-715 127 LINE",
"-676 -19 LINE"
);
},
{
closed = 1;
nodes = (
"433 101 LINE",
"10 217 LINE",
"64 247 LINE",
"1 15 LINE",
"-18 68 LINE",
"394 -45 LINE"
);
},
{
closed = 1;
nodes = (
"228 171 LINE",
"228 490 LINE",
"77 490 LINE",
"77 171 LINE"
);
},
{
closed = 1;
nodes = (
"453 76 LINE",
"453 331 LINE",
"302 331 LINE",
"302 76 LINE"
);
},
{
closed = 1;
nodes = (
"476 570 LINE",
"53 686 LINE",
"107 716 LINE",
"44 484 LINE",
"25 537 LINE",
"437 424 LINE"
);
},
{
closed = 1;
nodes = (
"453 375 LINE",
"453 576 LINE",
"302 576 LINE",
"302 333 LINE"
);
}
);
width = 600;
},
{
associatedMasterId = "3DD6C797-E5ED-486C-89DE-75EDF9B2F8B8";
layerId = "1841794A-B718-4F7E-8930-77021FC2ADB3";
width = 600;
},
{
layerId = "C1068CC4-E81B-47E6-9D26-F0E70787A68A";
width = 600;
}
);
unicode = 0042;
},
{
glyphname = C;
lastChange = "2019-07-31 03:33:30 +0000";
layers = (
{
layerId = "3DD6C797-E5ED-486C-89DE-75EDF9B2F8B8";
paths = (
{
closed = 1;
nodes = (
"476 570 LINE",
"53 686 LINE",
"107 716 LINE",
"44 484 LINE",
"25 537 LINE",
"437 424 LINE"
);
},
{
closed = 1;
nodes = (
"356 177 LINE",
"375 111 LINE",
"46 206 LINE",
"61 239 LINE",
"1 6 LINE",
"9 62 LINE",
"375 -38 LINE",
"296 -58 LINE"
);
},
{
closed = 1;
nodes = (
"228 171 LINE",
"228 490 LINE",
"77 490 LINE",
"77 171 LINE"
);
},
{
closed = 1;
nodes = (
"525 41 LINE",
"474 -14 LINE",
"411 218 LINE",
"486 187 LINE",
"267 127 LINE",
"306 -19 LINE"
);
}
);
width = 491;
},
{
associatedMasterId = "3DD6C797-E5ED-486C-89DE-75EDF9B2F8B8";
layerId = "1841794A-B718-4F7E-8930-77021FC2ADB3";
width = 600;
},
{
layerId = "C1068CC4-E81B-47E6-9D26-F0E70787A68A";
width = 600;
}
);
unicode = 0043;
},
{
glyphname = D;
lastChange = "2019-07-31 03:33:30 +0000";
layers = (
{
layerId = "3DD6C797-E5ED-486C-89DE-75EDF9B2F8B8";
paths = (
{
closed = 1;
nodes = (
"476 570 LINE",
"53 686 LINE",
"107 716 LINE",
"44 484 LINE",
"25 537 LINE",
"437 424 LINE"
);
},
{
closed = 1;
nodes = (
"396 177 LINE",
"415 111 LINE",
"46 206 LINE",
"61 239 LINE",
"1 6 LINE",
"9 62 LINE",
"375 -38 LINE",
"336 -58 LINE"
);
},
{
closed = 1;
nodes = (
"228 171 LINE",
"228 490 LINE",
"77 490 LINE",
"77 171 LINE"
);
},
{
closed = 1;
nodes = (
"476 86 LINE",
"476 570 LINE",
"325 570 LINE",
"325 86 LINE"
);
}
);
width = 491;
},
{
associatedMasterId = "3DD6C797-E5ED-486C-89DE-75EDF9B2F8B8";
layerId = "1841794A-B718-4F7E-8930-77021FC2ADB3";
width = 600;
},
{
layerId = "C1068CC4-E81B-47E6-9D26-F0E70787A68A";
width = 600;
}
);
unicode = 0044;
},
{
glyphname = E;
lastChange = "2019-07-31 03:33:30 +0000";
layers = (
{
layerId = "3DD6C797-E5ED-486C-89DE-75EDF9B2F8B8";
paths = (
{
closed = 1;
nodes = (
"389 161 LINE",
"389 106 LINE",
"56 197 LINE",
"17 51 LINE",
"350 -40 LINE",
"326 -71 LINE"
);
},
{
closed = 1;
nodes = (
"185 86 LINE",
"185 482 LINE",
"34 482 LINE",
"34 86 LINE"
);
},
{
closed = 1;
nodes = (
"300 228 LINE",
"319 379 LINE",
"90 379 LINE",
"90 228 LINE"
);
},
{
closed = 1;
nodes = (
"436 652 LINE",
"466 601 LINE",
"-15 646 LINE",
"33 685 LINE",
"11 446 LINE",
"-17 495 LINE",
"453 450 LINE",
"414 412 LINE"
);
}
);
width = 447;
},
{
associatedMasterId = "3DD6C797-E5ED-486C-89DE-75EDF9B2F8B8";
layerId = "23396F76-26C7-48B6-B3ED-371B44659AD9";
name = "Apr 18 19, 22:46";
paths = (
{
closed = 1;
nodes = (
"254 86 LINE",
"254 500 LINE",
"103 500 LINE",
"103 86 LINE"
);
},
{
closed = 1;
nodes = (
"415 118 LINE",
"125 197 LINE",
"86 51 LINE",
"376 -28 LINE"
);
},
{
closed = 1;
nodes = (
"525 613 LINE",
"546 558 LINE",
"80 686 LINE",
"134 716 LINE",
"71 484 LINE",
"52 537 LINE",
"507 412 LINE",
"462 381 LINE"
);
},
{
closed = 1;
nodes = (
"159 241 LINE",
"369 241 LINE",
"388 350 LINE",
"159 350 LINE"
);
},
{
closed = 1;
nodes = (
"282 86 LINE",
"282 500 LINE",
"276 500 LINE",
"276 86 LINE"
);
}
);
width = 600;
},
{
associatedMasterId = "3DD6C797-E5ED-486C-89DE-75EDF9B2F8B8";
layerId = "2AC84CF6-0D66-4663-81E0-D4013CD7B66F";
name = "Apr 18 19, 22:47";
paths = (
{
closed = 1;
nodes = (
"182 86 LINE",
"182 500 LINE",
"31 500 LINE",
"31 86 LINE"
);
},
{
closed = 1;
nodes = (
"343 118 LINE",
"53 197 LINE",
"14 51 LINE",
"304 -28 LINE"
);
},
{
closed = 1;
nodes = (
"453 613 LINE",
"474 558 LINE",
"8 686 LINE",
"62 716 LINE",
"-1 484 LINE",
"-20 537 LINE",
"435 412 LINE",
"390 381 LINE"
);
},
{
closed = 1;
nodes = (
"87 241 LINE",
"297 241 LINE",
"316 350 LINE",
"87 350 LINE"
);
}
);
width = 451;
},
{
associatedMasterId = "3DD6C797-E5ED-486C-89DE-75EDF9B2F8B8";
layerId = "202F399D-5DE2-4B56-B908-966BA1F9DDE4";
name = "Apr 18 19, 22:47";
paths = (
{
closed = 1;
nodes = (
"182 86 LINE",
"182 500 LINE",
"31 500 LINE",
"31 86 LINE"
);
},
{
closed = 1;
nodes = (
"343 594 LINE",
"53 673 LINE",
"14 527 LINE",
"304 448 LINE"
);
},
{
closed = 1;
nodes = (
"87 241 LINE",
"297 241 LINE",
"316 350 LINE",
"87 350 LINE"
);
},
{
closed = 1;
nodes = (
"415 147 LINE",
"436 92 LINE",
"-30 220 LINE",
"24 250 LINE",
"-39 18 LINE",
"-58 71 LINE",
"397 -54 LINE",
"352 -85 LINE"
);
}
);
width = 451;
},
{
associatedMasterId = "3DD6C797-E5ED-486C-89DE-75EDF9B2F8B8";
layerId = "E8266510-C651-4BA6-87E8-478689A64387";
name = "Apr 18 19, 23:37";
paths = (
{
closed = 1;
nodes = (
"453 613 LINE",
"474 558 LINE",
"8 686 LINE",
"62 716 LINE",
"-1 484 LINE",
"-20 537 LINE",
"435 412 LINE",
"390 381 LINE"
);
},
{
closed = 1;
nodes = (
"343 118 LINE",
"53 197 LINE",
"14 51 LINE",
"304 -28 LINE"
);
},
{
closed = 1;
nodes = (
"182 86 LINE",
"182 500 LINE",
"31 500 LINE",
"31 86 LINE"
);
},
{
closed = 1;
nodes = (
"297 241 LINE",
"316 350 LINE",
"87 350 LINE",
"87 241 LINE"
);
}
);
width = 451;
},
{
associatedMasterId = "3DD6C797-E5ED-486C-89DE-75EDF9B2F8B8";
layerId = "1841794A-B718-4F7E-8930-77021FC2ADB3";
width = 600;
},
{
layerId = "C1068CC4-E81B-47E6-9D26-F0E70787A68A";
width = 600;
}
);
unicode = 0045;
},
{
glyphname = F;
lastChange = "2019-07-31 03:33:30 +0000";
layers = (
{
layerId = "3DD6C797-E5ED-486C-89DE-75EDF9B2F8B8";
paths = (
{
closed = 1;
nodes = (
"448 652 LINE",
"478 601 LINE",
"-3 646 LINE",
"45 685 LINE",
"23 446 LINE",
"-5 495 LINE",
"465 450 LINE",
"426 412 LINE"
);
},
{
closed = 1;
nodes = (
"230 146 LINE",
"54 194 LINE",
"15 48 LINE",
"191 0 LINE"
);
},
{
closed = 1;
nodes = (
"197 86 LINE",
"197 482 LINE",
"46 482 LINE",
"46 86 LINE"
);
},
{
closed = 1;
nodes = (
"312 241 LINE",
"331 350 LINE",
"102 350 LINE",
"102 241 LINE"
);
}
);
width = 459;
},
{
associatedMasterId = "3DD6C797-E5ED-486C-89DE-75EDF9B2F8B8";
layerId = "1841794A-B718-4F7E-8930-77021FC2ADB3";
width = 600;
},
{
layerId = "C1068CC4-E81B-47E6-9D26-F0E70787A68A";
width = 600;
}
);
unicode = 0046;
},
{
glyphname = G;
lastChange = "2019-07-31 03:33:30 +0000";
layers = (
{
layerId = "3DD6C797-E5ED-486C-89DE-75EDF9B2F8B8";
paths = (
{
closed = 1;
nodes = (
"476 570 LINE",
"53 686 LINE",
"107 716 LINE",
"44 484 LINE",
"25 537 LINE",
"437 424 LINE"
);
},
{
closed = 1;
nodes = (
"356 177 LINE",
"375 111 LINE",
"46 206 LINE",
"61 239 LINE",
"1 6 LINE",
"9 62 LINE",
"375 -38 LINE",
"296 -58 LINE"
);
},
{
closed = 1;
nodes = (
"228 171 LINE",
"228 490 LINE",
"77 490 LINE",
"77 171 LINE"
);
},
{
closed = 1;
nodes = (
"525 41 LINE",
"474 -14 LINE",
"411 218 LINE",
"486 187 LINE",
"267 127 LINE",
"306 -19 LINE"
);
},
{
closed = 1;
nodes = (
"525 -50 LINE",
"525 199 LINE",
"374 199 LINE",
"374 -50 LINE"
);
},
{
closed = 1;
nodes = (
"582 375 LINE",
"737 324 LINE",
"256 369 LINE",
"318 408 LINE",
"296 169 LINE",
"254 218 LINE",
"716 173 LINE",
"560 135 LINE"
);
}
);
width = 594;
},
{
associatedMasterId = "3DD6C797-E5ED-486C-89DE-75EDF9B2F8B8";
layerId = "1841794A-B718-4F7E-8930-77021FC2ADB3";
width = 600;
},
{
layerId = "C1068CC4-E81B-47E6-9D26-F0E70787A68A";
width = 600;
}
);
unicode = 0047;
},
{
glyphname = H;
lastChange = "2019-07-31 03:33:30 +0000";
layers = (
{
layerId = "3DD6C797-E5ED-486C-89DE-75EDF9B2F8B8";
paths = (
{
closed = 1;
nodes = (
"445 86 LINE",
"445 526 LINE",
"294 526 LINE",
"294 86 LINE"
);
},
{
closed = 1;
nodes = (
"245 143 LINE",
"54 195 LINE",
"15 49 LINE",
"206 -3 LINE"
);
},
{
closed = 1;
nodes = (
"112 167 LINE",
"220 167 LINE",
"220 500 LINE",
"69 500 LINE",
"69 128 LINE"
);
},
{
closed = 1;
nodes = (
"478 147 LINE",
"302 195 LINE",
"263 49 LINE",
"439 1 LINE"
);
},
{
closed = 1;
nodes = (
"326 444 LINE",
"347 344 LINE",
"85 416 LINE",
"140 492 LINE",
"89 303 LINE",
"308 243 LINE",
"263 212 LINE"
);
},
{
closed = 1;
nodes = (
"251 613 LINE",
"307 558 LINE",
"25 635 LINE",
"76 666 LINE",
"13 434 LINE",
"-10 488 LINE",
"268 412 LINE",
"188 381 LINE"
);
}
);
width = 493;
},
{
associatedMasterId = "3DD6C797-E5ED-486C-89DE-75EDF9B2F8B8";
layerId = "1841794A-B718-4F7E-8930-77021FC2ADB3";
width = 600;
},
{
layerId = "C1068CC4-E81B-47E6-9D26-F0E70787A68A";
width = 600;
}
);
unicode = 0048;
},
{
glyphname = I;
lastChange = "2019-07-31 03:33:30 +0000";
layers = (
{
layerId = "3DD6C797-E5ED-486C-89DE-75EDF9B2F8B8";
paths = (
{
closed = 1;
nodes = (
"197 85 LINE",
"197 582 LINE",
"46 582 LINE",
"46 85 LINE"
);
},
{
closed = 1;
nodes = (
"230 146 LINE",
"54 194 LINE",
"15 48 LINE",
"191 0 LINE"
);
},
{
closed = 1;
nodes = (
"230 146 LINE",
"54 194 LINE",
"15 48 LINE",
"191 0 LINE"
);
},
{
closed = 1;
nodes = (
"230 626 LINE",
"54 674 LINE",
"15 528 LINE",
"191 480 LINE"
);
}
);
width = 245;
},
{
associatedMasterId = "3DD6C797-E5ED-486C-89DE-75EDF9B2F8B8";
layerId = "1841794A-B718-4F7E-8930-77021FC2ADB3";
width = 600;
},
{
layerId = "C1068CC4-E81B-47E6-9D26-F0E70787A68A";
width = 600;
}
);
unicode = 0049;
},
{
glyphname = J;
lastChange = "2019-07-31 03:33:30 +0000";
layers = (
{
layerId = "3DD6C797-E5ED-486C-89DE-75EDF9B2F8B8";
paths = (
{
closed = 1;
nodes = (
"340 -124 LINE",
"340 465 LINE",
"189 465 LINE",
"189 -161 LINE"
);
},
{
closed = 1;
nodes = (
"228 -15 LINE",
"9 45 LINE",
"84 76 LINE",
"21 -156 LINE",
"-30 -101 LINE",
"189 -161 LINE"
);
},
{
closed = 1;
nodes = (
"392 652 LINE",
"444 601 LINE",
"-37 646 LINE",
"33 685 LINE",
"11 446 LINE",
"-39 495 LINE",
"431 450 LINE",
"370 412 LINE"
);
}
);
width = 403;
},
{
associatedMasterId = "3DD6C797-E5ED-486C-89DE-75EDF9B2F8B8";
layerId = "1841794A-B718-4F7E-8930-77021FC2ADB3";
width = 600;
},
{
layerId = "C1068CC4-E81B-47E6-9D26-F0E70787A68A";
width = 600;
}
);
unicode = 004A;
},
{
glyphname = K;
lastChange = "2019-07-31 03:33:30 +0000";
layers = (
{
layerId = "3DD6C797-E5ED-486C-89DE-75EDF9B2F8B8";
paths = (
{
closed = 1;
nodes = (
"197 85 LINE",
"197 582 LINE",
"46 582 LINE",
"46 85 LINE"
);
},
{
closed = 1;
nodes = (
"230 146 LINE",
"54 194 LINE",
"15 48 LINE",
"191 0 LINE"
);
},
{
closed = 1;
nodes = (
"230 146 LINE",
"54 194 LINE",
"15 48 LINE",
"191 0 LINE"
);
},
{
closed = 1;
nodes = (
"455 147 LINE",
"279 195 LINE",
"240 49 LINE",
"416 1 LINE"
);
},
{
closed = 1;
nodes = (
"422 86 LINE",
"422 312 LINE",
"271 312 LINE",
"271 86 LINE"
);
},
{
closed = 1;
nodes = (
"440 344 LINE",
"473 282 LINE",
"171 459 LINE",
"225 445 LINE",
"106 236 LINE",
"106 323 LINE",
"398 151 LINE",
"321 135 LINE"
);
},
{
closed = 1;
nodes = (
"230 626 LINE",
"54 674 LINE",
"15 528 LINE",
"191 480 LINE"
);
},
{
closed = 1;
nodes = (
"224 322 LINE",
"448 413 LINE",
"422 254 LINE",
"422 611 LINE",
"271 550 LINE",
"271 254 LINE"
);
}
);
width = 470;
},
{
associatedMasterId = "3DD6C797-E5ED-486C-89DE-75EDF9B2F8B8";
layerId = "0BB3512A-DA10-411B-B466-CE02176063F3";
name = "Apr 21 19, 20:19";
paths = (
{
closed = 1;
nodes = (
"197 85 LINE",
"197 582 LINE",
"46 582 LINE",
"46 85 LINE"
);
},
{
closed = 1;
nodes = (
"230 146 LINE",
"54 194 LINE",
"15 48 LINE",
"191 0 LINE"
);
},
{
closed = 1;
nodes = (
"230 146 LINE",
"54 194 LINE",
"15 48 LINE",
"191 0 LINE"
);
},
{
closed = 1;
nodes = (
"230 626 LINE",
"54 674 LINE",
"15 528 LINE",
"191 480 LINE"
);
},
{
closed = 1;
nodes = (
"422 86 LINE",
"422 312 LINE",
"271 312 LINE",
"271 86 LINE"
);
},
{
closed = 1;
nodes = (
"455 147 LINE",
"279 195 LINE",
"240 49 LINE",
"416 1 LINE"
);
},
{
closed = 1;
nodes = (
"440 344 LINE",
"473 282 LINE",
"171 459 LINE",
"225 445 LINE",
"106 236 LINE",
"106 323 LINE",
"398 151 LINE",
"321 135 LINE"
);
},
{
closed = 1;
nodes = (
"271 550 LINE",
"271 254 LINE",
"224 322 LINE",
"448 413 LINE",
"422 254 LINE",
"422 611 LINE"
);
}
);
width = 470;
},
{
associatedMasterId = "3DD6C797-E5ED-486C-89DE-75EDF9B2F8B8";
layerId = "1841794A-B718-4F7E-8930-77021FC2ADB3";
width = 600;
},
{
layerId = "C1068CC4-E81B-47E6-9D26-F0E70787A68A";
width = 600;
}
);
unicode = 004B;
},
{
glyphname = L;
lastChange = "2019-07-31 03:33:30 +0000";
layers = (
{
layerId = "3DD6C797-E5ED-486C-89DE-75EDF9B2F8B8";
paths = (
{
closed = 1;
nodes = (
"417 186 LINE",
"466 135 LINE",
"-15 180 LINE",
"33 219 LINE",
"11 -20 LINE",
"-17 29 LINE",
"453 -16 LINE",
"395 -54 LINE"
);
},
{
closed = 1;
nodes = (
"185 178 LINE",
"185 520 LINE",
"34 520 LINE",
"34 161 LINE"
);
},
{
closed = 1;
nodes = (
"263 615 LINE",
"73 666 LINE",
"34 520 LINE",
"224 469 LINE"
);
}
);
width = 428;
},
{
associatedMasterId = "3DD6C797-E5ED-486C-89DE-75EDF9B2F8B8";
layerId = "1841794A-B718-4F7E-8930-77021FC2ADB3";
width = 600;
},
{
layerId = "C1068CC4-E81B-47E6-9D26-F0E70787A68A";
width = 600;
}
);
unicode = 004C;
},
{
glyphname = M;
lastChange = "2019-07-31 03:33:30 +0000";
layers = (
{
layerId = "3DD6C797-E5ED-486C-89DE-75EDF9B2F8B8";
paths = (
{
closed = 1;
nodes = (
"217 86 LINE",
"217 585 LINE",
"66 585 LINE",
"66 86 LINE"
);
},
{
closed = 1;
nodes = (
"250 147 LINE",
"74 195 LINE",
"35 49 LINE",
"211 1 LINE"
);
},
{
closed = 1;
nodes = (
"475 147 LINE",
"256 207 LINE",
"332 238 LINE",
"269 6 LINE",
"217 61 LINE",
"436 1 LINE"
);
},
{
closed = 1;
nodes = (
"228 625 LINE",
"273 570 LINE",
"54 630 LINE",
"15 484 LINE",
"234 424 LINE",
"165 393 LINE"
);
},
{
closed = 1;
nodes = (
"442 86 LINE",
"442 526 LINE",
"291 526 LINE",
"291 86 LINE"
);
},
{
closed = 1;
nodes = (
"700 147 LINE",
"481 207 LINE",
"557 238 LINE",
"494 6 LINE",
"442 61 LINE",
"661 1 LINE"
);
},
{
closed = 1;
nodes = (
"487 613 LINE",
"508 558 LINE",
"42 686 LINE",
"269 716 LINE",
"200 463 LINE",
"14 537 LINE",
"469 412 LINE",
"424 381 LINE"
);
},
{
closed = 1;
nodes = (
"667 86 LINE",
"667 526 LINE",
"516 526 LINE",
"516 86 LINE"
);
},
{
closed = 1;
nodes = (
"712 613 LINE",
"733 558 LINE",
"267 686 LINE",
"494 716 LINE",
"425 463 LINE",
"239 537 LINE",
"694 412 LINE",
"649 381 LINE"
);
}
);
width = 715;
},
{
associatedMasterId = "3DD6C797-E5ED-486C-89DE-75EDF9B2F8B8";
layerId = "1841794A-B718-4F7E-8930-77021FC2ADB3";
width = 600;
},
{
layerId = "C1068CC4-E81B-47E6-9D26-F0E70787A68A";
width = 600;
}
);
unicode = 004D;
},
{
glyphname = N;
lastChange = "2019-07-31 03:33:30 +0000";
layers = (
{
layerId = "3DD6C797-E5ED-486C-89DE-75EDF9B2F8B8";
paths = (
{
closed = 1;
nodes = (
"217 86 LINE",
"217 585 LINE",
"66 585 LINE",
"66 86 LINE"
);
},
{
closed = 1;
nodes = (
"250 147 LINE",
"74 195 LINE",
"35 49 LINE",
"211 1 LINE"
);
},
{
closed = 1;
nodes = (
"475 147 LINE",
"256 207 LINE",
"332 238 LINE",
"269 6 LINE",
"217 61 LINE",
"436 1 LINE"
);
},
{
closed = 1;
nodes = (
"228 625 LINE",
"273 570 LINE",
"54 630 LINE",
"15 484 LINE",
"234 424 LINE",
"165 393 LINE"
);
},
{
closed = 1;
nodes = (
"442 86 LINE",
"442 526 LINE",
"291 526 LINE",
"291 86 LINE"
);
},
{
closed = 1;
nodes = (
"487 613 LINE",
"508 558 LINE",
"42 686 LINE",
"269 716 LINE",
"200 463 LINE",
"14 537 LINE",
"469 412 LINE",
"424 381 LINE"
);
}
);
width = 490;
},
{
associatedMasterId = "3DD6C797-E5ED-486C-89DE-75EDF9B2F8B8";
layerId = "1841794A-B718-4F7E-8930-77021FC2ADB3";
width = 600;
},
{
layerId = "C1068CC4-E81B-47E6-9D26-F0E70787A68A";
width = 600;
}
);
unicode = 004E;
},
{
glyphname = O;
lastChange = "2019-07-31 03:33:30 +0000";
layers = (
{
layerId = "3DD6C797-E5ED-486C-89DE-75EDF9B2F8B8";
paths = (
{
closed = 1;
nodes = (
"436 574 LINE",
"490 518 LINE",
"24 646 LINE",
"78 676 LINE",
"15 444 LINE",
"-4 497 LINE",
"451 372 LINE",
"373 342 LINE"
);
},
{
closed = 1;
nodes = (
"419 155 LINE",
"430 100 LINE",
"17 206 LINE",
"63 239 LINE",
"3 6 LINE",
"-20 62 LINE",
"389 -50 LINE",
"359 -80 LINE"
);
},
{
closed = 1;
nodes = (
"199 492 LINE",
"48 492 LINE",
"48 177 LINE",
"199 130 LINE"
);
},
{
closed = 1;
nodes = (
"424 86 LINE",
"424 530 LINE",
"273 530 LINE",
"273 86 LINE"
);
}
);
width = 441;
},
{
associatedMasterId = "3DD6C797-E5ED-486C-89DE-75EDF9B2F8B8";
layerId = "87BF53EF-6ED0-415A-968A-00003B3C443C";
name = "Apr 23 19, 00:17";
paths = (
{
closed = 1;
nodes = (
"447 530 LINE",
"24 646 LINE",
"78 676 LINE",
"15 444 LINE",
"-4 497 LINE",
"408 384 LINE"
);
},
{
closed = 1;
nodes = (
"429 155 LINE",
"430 100 LINE",
"17 206 LINE",
"63 239 LINE",
"3 6 LINE",
"-20 62 LINE",
"389 -50 LINE",
"369 -80 LINE"
);
},
{
closed = 1;
nodes = (
"199 492 LINE",
"48 492 LINE",
"48 177 LINE",
"199 130 LINE"
);
},
{
closed = 1;
nodes = (
"447 86 LINE",
"447 530 LINE",
"296 530 LINE",
"296 86 LINE"
);
}
);
width = 462;
},
{
associatedMasterId = "3DD6C797-E5ED-486C-89DE-75EDF9B2F8B8";
layerId = "1841794A-B718-4F7E-8930-77021FC2ADB3";
width = 600;
},
{
layerId = "C1068CC4-E81B-47E6-9D26-F0E70787A68A";
width = 600;
}
);
unicode = 004F;
},
{
glyphname = P;
lastChange = "2019-07-31 03:33:30 +0000";
layers = (
{
layerId = "3DD6C797-E5ED-486C-89DE-75EDF9B2F8B8";
paths = (
{
closed = 1;
nodes = (
"197 85 LINE",
"197 582 LINE",
"46 582 LINE",
"46 85 LINE"
);
},
{
closed = 1;
nodes = (
"230 146 LINE",
"54 194 LINE",
"15 48 LINE",
"191 0 LINE"
);
},
{
closed = 1;
nodes = (
"230 146 LINE",
"54 194 LINE",
"15 48 LINE",
"191 0 LINE"
);
},
{
closed = 1;
nodes = (
"144 210 LINE",
"294 168 LINE",
"445 284 LINE",
"183 356 LINE",
"224 387 LINE",
"161 155 LINE"
);
},
{
closed = 1;
nodes = (
"230 626 LINE",
"54 674 LINE",
"15 528 LINE",
"191 480 LINE"
);
},
{
closed = 1;
nodes = (
"445 256 LINE",
"445 509 LINE",
"294 509 LINE",
"294 168 LINE"
);
},
{
closed = 1;
nodes = (
"482 614 LINE",
"220 686 LINE",
"244 717 LINE",
"181 485 LINE",
"181 540 LINE",
"443 468 LINE"
);
}
);
width = 497;
},
{
associatedMasterId = "3DD6C797-E5ED-486C-89DE-75EDF9B2F8B8";
layerId = "1841794A-B718-4F7E-8930-77021FC2ADB3";
width = 600;
},
{
layerId = "C1068CC4-E81B-47E6-9D26-F0E70787A68A";
width = 600;
}
);
unicode = 0050;
},
{
glyphname = Q;
lastChange = "2019-07-31 03:33:30 +0000";
layers = (
{
components = (
{
name = O;
}
);
layerId = "3DD6C797-E5ED-486C-89DE-75EDF9B2F8B8";
paths = (
{
closed = 1;
nodes = (
"447 -3 LINE",
"271 45 LINE",
"232 -101 LINE",
"408 -149 LINE"
);
}
);
width = 462;
},
{
associatedMasterId = "3DD6C797-E5ED-486C-89DE-75EDF9B2F8B8";
layerId = "1841794A-B718-4F7E-8930-77021FC2ADB3";
width = 600;
},
{
layerId = "C1068CC4-E81B-47E6-9D26-F0E70787A68A";
width = 600;
}
);
unicode = 0051;
},
{
glyphname = R;
lastChange = "2019-07-31 03:33:30 +0000";
layers = (
{
layerId = "3DD6C797-E5ED-486C-89DE-75EDF9B2F8B8";
paths = (
{
closed = 1;
nodes = (
"448 651 LINE",
"478 600 LINE",
"-3 645 LINE",
"45 684 LINE",
"23 445 LINE",
"-5 494 LINE",
"465 449 LINE",
"426 411 LINE"
);
},
{
closed = 1;
nodes = (
"230 146 LINE",
"54 194 LINE",
"15 48 LINE",
"191 0 LINE"
);
},
{
closed = 1;
nodes = (
"230 146 LINE",
"54 194 LINE",
"15 48 LINE",
"191 0 LINE"
);
},
{
closed = 1;
nodes = (
"197 85 LINE",
"197 481 LINE",
"46 481 LINE",
"46 85 LINE"
);
},
{
closed = 1;
nodes = (
"469 146 LINE",
"293 194 LINE",
"254 48 LINE",
"430 0 LINE"
);
},
{
closed = 1;
nodes = (
"430 235 LINE",
"279 235 LINE",
"279 41 LINE",
"430 0 LINE"
);
},
{
closed = 1;
nodes = (
"430 235 LINE",
"430 327 LINE",
"484 302 LINE",
"162 391 LINE",
"217 467 LINE",
"166 278 LINE",
"446 201 LINE",
"413 187 LINE"
);
},
{
closed = 1;
nodes = (
"430 374 LINE",
"430 461 LINE",
"279 461 LINE",
"279 277 LINE"
);
}
);
width = 484;
},
{
associatedMasterId = "3DD6C797-E5ED-486C-89DE-75EDF9B2F8B8";
layerId = "C27FBB37-0F00-41D1-8AB8-C5BA0B366BF7";
name = "Apr 19 19, 23:48";
paths = (
{
closed = 1;
nodes = (
"237 146 LINE",
"61 194 LINE",
"22 48 LINE",
"198 0 LINE"
);
},
{
closed = 1;
nodes = (
"237 146 LINE",
"61 194 LINE",
"22 48 LINE",
"198 0 LINE"
);
},
{
closed = 1;
nodes = (
"455 651 LINE",
"485 600 LINE",
"4 645 LINE",
"52 684 LINE",
"30 445 LINE",
"2 494 LINE",
"472 449 LINE",
"433 411 LINE"
);
},
{
closed = 1;
nodes = (
"204 85 LINE",
"204 481 LINE",
"53 481 LINE",
"53 85 LINE"
);
},
{
closed = 1;
nodes = (
"437 374 LINE",
"437 461 LINE",
"286 461 LINE",
"286 277 LINE"
);
},
{
closed = 1;
nodes = (
"437 235 LINE",
"437 327 LINE",
"491 302 LINE",
"169 391 LINE",
"224 467 LINE",
"173 278 LINE",
"453 201 LINE",
"420 187 LINE"
);
},
{
closed = 1;
nodes = (
"437 99 LINE",
"437 235 LINE",
"286 235 LINE",
"286 68 LINE"
);
},
{
closed = 1;
nodes = (
"470 146 LINE",
"294 194 LINE",
"255 48 LINE",
"431 0 LINE"
);
}
);
width = 600;
},
{
associatedMasterId = "3DD6C797-E5ED-486C-89DE-75EDF9B2F8B8";
layerId = "1841794A-B718-4F7E-8930-77021FC2ADB3";
width = 600;
},
{
layerId = "C1068CC4-E81B-47E6-9D26-F0E70787A68A";
width = 600;
}
);
unicode = 0052;
},
{
glyphname = S;
lastChange = "2019-07-31 03:33:30 +0000";
layers = (
{
layerId = "3DD6C797-E5ED-486C-89DE-75EDF9B2F8B8";
paths = (
{
closed = 1;
nodes = (
"359 373 LINE",
"339 325 LINE",
"130 576 LINE",
"15 478 LINE",
"223 228 LINE",
"173 218 LINE"
);
},
{
closed = 1;
nodes = (
"450 116 LINE",
"143 200 LINE",
"70 63 LINE",
"310 -2 LINE"
);
},
{
closed = 1;
nodes = (
"484 144 LINE",
"484 260 LINE",
"324 449 LINE",
"365 459 LINE",
"182 303 LINE",
"209 351 LINE",
"425 95 LINE"
);
},
{
closed = 1;
nodes = (
"478 602 LINE",
"238 667 LINE",
"98 549 LINE",
"405 465 LINE"
);
}
);
width = 499;
},
{
associatedMasterId = "3DD6C797-E5ED-486C-89DE-75EDF9B2F8B8";
layerId = "5DBD0F1D-D2F3-412A-9220-306E2E8B732B";
name = "Apr 20 19, 20:03";
paths = (
{
closed = 1;
nodes = (
"363 373 LINE",
"343 325 LINE",
"134 576 LINE",
"19 478 LINE",
"227 228 LINE",
"177 218 LINE"
);
},
{
closed = 1;
nodes = (
"454 116 LINE",
"147 200 LINE",
"74 63 LINE",
"314 -2 LINE"
);
},
{
closed = 1;
nodes = (
"488 144 LINE",
"488 260 LINE",
"328 449 LINE",
"369 459 LINE",
"186 303 LINE",
"213 351 LINE",
"429 95 LINE"
);
},
{
closed = 1;
nodes = (
"482 602 LINE",
"242 667 LINE",
"102 549 LINE",
"409 465 LINE"
);
}
);
width = 508;
},
{
associatedMasterId = "3DD6C797-E5ED-486C-89DE-75EDF9B2F8B8";
layerId = "7CA5CCF4-E399-457E-9ADB-D1A2E998BADB";
name = "Apr 20 19, 20:04";
paths = (
{
closed = 1;
nodes = (
"363 373 LINE",
"343 325 LINE",
"134 576 LINE",
"19 478 LINE",
"227 228 LINE",
"177 218 LINE"
);
},
{
closed = 1;
nodes = (
"454 116 LINE",
"147 200 LINE",
"74 63 LINE",
"314 -2 LINE"
);
},
{
closed = 1;
nodes = (
"488 144 LINE",
"488 260 LINE",
"328 449 LINE",
"369 459 LINE",
"186 303 LINE",
"213 351 LINE",
"429 95 LINE"
);
},
{
closed = 1;
nodes = (
"482 602 LINE",
"242 667 LINE",
"102 549 LINE",
"409 465 LINE"
);
},
{
closed = 1;
nodes = (
"258 174 LINE",
"273 96 LINE",
"85 320 LINE",
"143 316 LINE",
"-39 160 LINE",
"-47 195 LINE",
"139 -24 LINE",
"74 19 LINE"
);
},
{
closed = 1;
nodes = (
"594 552 LINE",
"609 474 LINE",
"421 698 LINE",
"479 694 LINE",
"297 538 LINE",
"289 573 LINE",
"475 354 LINE",
"410 397 LINE"
);
}
);
width = 600;
},
{
associatedMasterId = "3DD6C797-E5ED-486C-89DE-75EDF9B2F8B8";
layerId = "1841794A-B718-4F7E-8930-77021FC2ADB3";
width = 600;
},
{
layerId = "C1068CC4-E81B-47E6-9D26-F0E70787A68A";
width = 600;
}
);
unicode = 0053;
},
{
glyphname = T;
lastChange = "2019-07-31 03:33:30 +0000";
layers = (
{
layerId = "3DD6C797-E5ED-486C-89DE-75EDF9B2F8B8";
paths = (
{
closed = 1;
nodes = (
"436 652 LINE",
"466 601 LINE",
"-15 646 LINE",
"33 685 LINE",
"11 446 LINE",
"-17 495 LINE",
"453 450 LINE",
"414 412 LINE"
);
},
{
closed = 1;
nodes = (
"300 146 LINE",
"124 194 LINE",
"85 48 LINE",
"261 0 LINE"
);
},
{
closed = 1;
nodes = (
"300 146 LINE",
"124 194 LINE",
"85 48 LINE",
"261 0 LINE"
);
},
{
closed = 1;
nodes = (
"150 164 LINE",
"189 174 LINE",
"267 174 LINE",
"267 472 LINE",
"116 472 LINE",
"116 164 LINE"
);
}
);
width = 447;
},
{
associatedMasterId = "3DD6C797-E5ED-486C-89DE-75EDF9B2F8B8";
layerId = "1841794A-B718-4F7E-8930-77021FC2ADB3";
width = 600;
},
{
layerId = "C1068CC4-E81B-47E6-9D26-F0E70787A68A";
width = 600;
}
);
unicode = 0054;
},
{
glyphname = U;
lastChange = "2019-07-31 03:33:30 +0000";
layers = (
{
layerId = "3DD6C797-E5ED-486C-89DE-75EDF9B2F8B8";
paths = (
{
closed = 1;
nodes = (
"424 45 LINE",
"424 545 LINE",
"273 545 LINE",
"273 45 LINE"
);
},
{
closed = 1;
nodes = (
"290 167 LINE",
"476 93 LINE",
"21 218 LINE",
"66 249 LINE",
"3 17 LINE",
"-18 72 LINE",
"448 -56 LINE",
"221 -86 LINE"
);
},
{
closed = 1;
nodes = (
"199 104 LINE",
"199 545 LINE",
"48 545 LINE",
"48 104 LINE"
);
},
{
closed = 1;
nodes = (
"475 146 LINE",
"256 206 LINE",
"325 237 LINE",
"262 5 LINE",
"217 60 LINE",
"436 0 LINE"
);
},
{
closed = 1;
nodes = (
"221 625 LINE",
"273 570 LINE",
"54 630 LINE",
"15 484 LINE",
"234 424 LINE",
"158 393 LINE"
);
},
{
closed = 1;
nodes = (
"455 582 LINE",
"279 630 LINE",
"240 484 LINE",
"416 436 LINE"
);
}
);
width = 490;
},
{
associatedMasterId = "3DD6C797-E5ED-486C-89DE-75EDF9B2F8B8";
layerId = "1841794A-B718-4F7E-8930-77021FC2ADB3";
width = 600;
},
{
layerId = "C1068CC4-E81B-47E6-9D26-F0E70787A68A";
width = 600;
}
);
unicode = 0055;
},
{
glyphname = V;
lastChange = "2019-07-31 03:33:30 +0000";
layers = (
{
layerId = "3DD6C797-E5ED-486C-89DE-75EDF9B2F8B8";
paths = (
{
closed = 1;
nodes = (
"398 92 LINE",
"50 257 LINE",
"115 268 LINE",
"24 73 LINE",
"-8 116 LINE",
"240 0 LINE"
);
},
{
closed = 1;
nodes = (
"197 95 LINE",
"197 582 LINE",
"46 582 LINE",
"46 95 LINE"
);
},
{
closed = 1;
nodes = (
"324 49 LINE",
"429 110 LINE",
"419 73 LINE",
"328 268 LINE",
"383 234 LINE",
"182 117 LINE",
"182 186 LINE",
"417 48 LINE"
);
},
{
closed = 1;
nodes = (
"324 49 LINE",
"429 110 LINE",
"458 216 LINE",
"374 606 LINE",
"483 473 LINE",
"247 422 LINE",
"225 582 LINE",
"350 0 LINE"
);
},
{
closed = 1;
nodes = (
"230 626 LINE",
"54 674 LINE",
"15 528 LINE",
"191 480 LINE"
);
},
{
closed = 1;
nodes = (
"453 544 LINE",
"277 592 LINE",
"238 446 LINE",
"414 398 LINE"
);
}
);
width = 473;
},
{
associatedMasterId = "3DD6C797-E5ED-486C-89DE-75EDF9B2F8B8";
layerId = "1841794A-B718-4F7E-8930-77021FC2ADB3";
width = 600;
},
{
layerId = "C1068CC4-E81B-47E6-9D26-F0E70787A68A";
width = 600;
}
);
unicode = 0056;
},
{
glyphname = W;
lastChange = "2019-07-31 03:33:30 +0000";
layers = (
{
layerId = "3DD6C797-E5ED-486C-89DE-75EDF9B2F8B8";
paths = (
{
closed = 1;
nodes = (
"441 167 LINE",
"476 93 LINE",
"21 218 LINE",
"66 249 LINE",
"3 17 LINE",
"-18 72 LINE",
"448 -56 LINE",
"372 -86 LINE"
);
},
{
closed = 1;
nodes = (
"199 104 LINE",
"199 544 LINE",
"48 544 LINE",
"48 104 LINE"
);
},
{
closed = 1;
nodes = (
"665 167 LINE",
"701 93 LINE",
"246 218 LINE",
"291 249 LINE",
"228 17 LINE",
"207 72 LINE",
"673 -56 LINE",
"596 -86 LINE"
);
},
{
closed = 1;
nodes = (
"221 624 LINE",
"273 569 LINE",
"54 629 LINE",
"15 483 LINE",
"234 423 LINE",
"158 392 LINE"
);
},
{
closed = 1;
nodes = (
"424 104 LINE",
"424 544 LINE",
"273 544 LINE",
"273 104 LINE"
);
},
{
closed = 1;
nodes = (
"649 107 LINE",
"649 445 LINE",
"498 445 LINE",
"498 107 LINE"
);
},
{
closed = 1;
nodes = (
"446 624 LINE",
"498 569 LINE",
"279 629 LINE",
"240 483 LINE",
"459 423 LINE",
"383 392 LINE"
);
},
{
closed = 1;
nodes = (
"649 445 LINE",
"561 782 LINE",
"655 641 LINE",
"423 577 LINE",
"414 742 LINE",
"503 407 LINE"
);
}
);
width = 664;
},
{
associatedMasterId = "3DD6C797-E5ED-486C-89DE-75EDF9B2F8B8";
layerId = "A60A729B-512F-4F64-BA0B-34B662FED03E";
name = "Apr 19 19, 17:14";
paths = (
{
closed = 1;
nodes = (
"503 544 LINE",
"503 45 LINE",
"654 45 LINE",
"654 544 LINE"
);
},
{
closed = 1;
nodes = (
"470 483 LINE",
"646 435 LINE",
"685 581 LINE",
"509 629 LINE"
);
},
{
closed = 1;
nodes = (
"245 483 LINE",
"464 423 LINE",
"388 392 LINE",
"451 624 LINE",
"503 569 LINE",
"284 629 LINE"
);
},
{
closed = 1;
nodes = (
"492 5 LINE",
"447 60 LINE",
"666 0 LINE",
"705 146 LINE",
"486 206 LINE",
"555 237 LINE"
);
},
{
closed = 1;
nodes = (
"278 544 LINE",
"278 104 LINE",
"429 104 LINE",
"429 544 LINE"
);
},
{
closed = 1;
nodes = (
"233 17 LINE",
"212 72 LINE",
"678 -56 LINE",
"451 -86 LINE",
"520 167 LINE",
"706 93 LINE",
"251 218 LINE",
"296 249 LINE"
);
},
{
closed = 1;
nodes = (
"20 483 LINE",
"239 423 LINE",
"163 392 LINE",
"226 624 LINE",
"278 569 LINE",
"59 629 LINE"
);
},
{
closed = 1;
nodes = (
"53 544 LINE",
"53 104 LINE",
"204 104 LINE",
"204 544 LINE"
);
},
{
closed = 1;
nodes = (
"8 17 LINE",
"-13 72 LINE",
"453 -56 LINE",
"226 -86 LINE",
"295 167 LINE",
"481 93 LINE",
"26 218 LINE",
"71 249 LINE"
);
}
);
width = 725;
},
{
associatedMasterId = "3DD6C797-E5ED-486C-89DE-75EDF9B2F8B8";
layerId = "1841794A-B718-4F7E-8930-77021FC2ADB3";
width = 600;
},
{
layerId = "C1068CC4-E81B-47E6-9D26-F0E70787A68A";
width = 600;
}
);
unicode = 0057;
},
{
glyphname = X;
lastChange = "2019-07-31 03:33:30 +0000";
layers = (
{
layerId = "3DD6C797-E5ED-486C-89DE-75EDF9B2F8B8";
paths = (
{
closed = 1;
nodes = (
"35 106 LINE",
"223 -11 LINE",
"182 -39 LINE",
"660 774 LINE",
"618 597 LINE",
"410 718 LINE",
"502 804 LINE",
"-10 -68 LINE"
);
},
{
closed = 1;
nodes = (
"397 -12 LINE",
"661 57 LINE",
"650 3 LINE",
"586 235 LINE",
"621 204 LINE",
"358 134 LINE",
"391 203 LINE",
"452 -29 LINE"
);
},
{
closed = 1;
nodes = (
"147 804 LINE",
"239 718 LINE",
"31 597 LINE",
"-11 774 LINE",
"467 -39 LINE",
"426 -11 LINE",
"614 106 LINE",
"659 -68 LINE"
);
},
{
closed = 1;
nodes = (
"31 496 LINE",
"294 566 LINE",
"261 497 LINE",
"200 729 LINE",
"255 712 LINE",
"-9 643 LINE",
"2 697 LINE",
"66 465 LINE"
);
}
);
width = 652;
},
{
associatedMasterId = "3DD6C797-E5ED-486C-89DE-75EDF9B2F8B8";
layerId = "1841794A-B718-4F7E-8930-77021FC2ADB3";
width = 600;
},
{
layerId = "C1068CC4-E81B-47E6-9D26-F0E70787A68A";
width = 600;
}
);
unicode = 0058;
},
{
glyphname = Y;
lastChange = "2019-07-31 03:33:30 +0000";
layers = (
{
layerId = "3DD6C797-E5ED-486C-89DE-75EDF9B2F8B8";
paths = (
{
closed = 1;
nodes = (
"424 -97 LINE",
"424 511 LINE",
"273 511 LINE",
"273 -97 LINE"
);
},
{
closed = 1;
nodes = (
"433 -63 LINE",
"476 -110 LINE",
"48 1 LINE",
"124 34 LINE",
"64 -199 LINE",
"11 -143 LINE",
"485 -272 LINE",
"373 -298 LINE"
);
},
{
closed = 1;
nodes = (
"290 167 LINE",
"476 93 LINE",
"21 218 LINE",
"66 249 LINE",
"3 17 LINE",
"-18 72 LINE",
"448 -56 LINE",
"221 -86 LINE"
);
},
{
closed = 1;
nodes = (
"199 104 LINE",
"199 545 LINE",
"48 545 LINE",
"48 104 LINE"
);
},
{
closed = 1;
nodes = (
"221 625 LINE",
"273 570 LINE",
"54 630 LINE",
"15 484 LINE",
"234 424 LINE",
"158 393 LINE"
);
},
{
closed = 1;
nodes = (
"455 582 LINE",
"279 630 LINE",
"240 484 LINE",
"416 436 LINE"
);
}
);
width = 470;
},
{
associatedMasterId = "3DD6C797-E5ED-486C-89DE-75EDF9B2F8B8";
layerId = "1841794A-B718-4F7E-8930-77021FC2ADB3";
width = 600;
},
{
layerId = "C1068CC4-E81B-47E6-9D26-F0E70787A68A";
width = 600;
}
);
unicode = 0059;
},
{
glyphname = Z;
lastChange = "2019-07-31 03:33:30 +0000";
layers = (
{
layerId = "3DD6C797-E5ED-486C-89DE-75EDF9B2F8B8";
paths = (
{
closed = 1;
nodes = (
"187 112 LINE",
"462 498 LINE",
"447 419 LINE",
"250 558 LINE",
"338 584 LINE",
"35 158 LINE",
"37 172 LINE",
"214 39 LINE"
);
},
{
closed = 1;
nodes = (
"460 192 LINE",
"492 142 LINE",
"10 170 LINE",
"44 211 LINE",
"31 -29 LINE",
"13 19 LINE",
"484 -10 LINE",
"447 -49 LINE"
);
},
{
closed = 1;
nodes = (
"498 173 LINE",
"560 118 LINE",
"341 178 LINE",
"302 32 LINE",
"521 -28 LINE",
"435 -59 LINE"
);
},
{
closed = 1;
nodes = (
"211 630 LINE",
"273 575 LINE",
"54 635 LINE",
"15 489 LINE",
"234 429 LINE",
"148 398 LINE"
);
},
{
closed = 1;
nodes = (
"460 659 LINE",
"492 609 LINE",
"10 638 LINE",
"56 678 LINE",
"43 439 LINE",
"13 487 LINE",
"484 458 LINE",
"447 419 LINE"
);
}
);
width = 503;
},
{
associatedMasterId = "3DD6C797-E5ED-486C-89DE-75EDF9B2F8B8";
layerId = "1841794A-B718-4F7E-8930-77021FC2ADB3";
width = 600;
},
{
layerId = "C1068CC4-E81B-47E6-9D26-F0E70787A68A";
width = 600;
}
);
unicode = 005A;
},
{
glyphname = a;
lastChange = "2019-07-31 04:10:36 +0000";
layers = (
{
layerId = "3DD6C797-E5ED-486C-89DE-75EDF9B2F8B8";
paths = (
{
closed = 1;
nodes = (
"432 432 LINE",
"135 510 LINE",
"98 364 LINE",
"394 285 LINE"
);
},
{
closed = 1;
nodes = (
"245 143 LINE",
"54 195 LINE",
"15 49 LINE",
"206 -3 LINE"
);
},
{
closed = 1;
nodes = (
"177 86 LINE",
"177 392 LINE",
"26 392 LINE",
"26 86 LINE"
);
},
{
closed = 1;
nodes = (
"426 143 LINE",
"235 195 LINE",
"196 49 LINE",
"387 -3 LINE"
);
},
{
closed = 1;
nodes = (
"374 86 LINE",
"374 392 LINE",
"223 392 LINE",
"223 86 LINE"
);
}
);
width = 447;
},
{
associatedMasterId = "3DD6C797-E5ED-486C-89DE-75EDF9B2F8B8";
backgroundImage = {
crop = "{{0, 0}, {505, 139}}";
imagePath = "../Dropbox/screenshots/Screenshot 2019-04-18 20.27.25.png";
transform = "{3.70576, 0, 0, 3.70576, -64, -118}";
};
layerId = "009E2E00-9D4C-447C-B5A0-72D48A0661EC";
name = "Apr 18 19, 20:35";
paths = (
{
closed = 1;
nodes = (
"83 42 LINE",
"83 196 LINE",
"7 196 LINE",
"7 42 LINE"
);
},
{
closed = 1;
nodes = (
"211 216 LINE",
"62 255 LINE",
"43 182 LINE",
"192 142 LINE"
);
},
{
closed = 1;
nodes = (
"182 42 LINE",
"182 196 LINE",
"106 196 LINE",
"106 42 LINE"
);
},
{
closed = 1;
nodes = (
"208 72 LINE",
"112 97 LINE",
"93 24 LINE",
"189 -2 LINE"
);
},
{
closed = 1;
nodes = (
"117 72 LINE",
"21 97 LINE",
"2 24 LINE",
"98 -2 LINE"
);
}
);
width = 600;
},
{
associatedMasterId = "3DD6C797-E5ED-486C-89DE-75EDF9B2F8B8";
backgroundImage = {
crop = "{{0, 0}, {505, 139}}";
imagePath = "../Dropbox/screenshots/Screenshot 2019-04-18 20.27.25.png";
transform = "{3.70576, 0, 0, 3.70576, -64, -118}";
};
layerId = "960292EF-B97C-4115-A843-D9EA8B450A36";
name = "Apr 18 19, 20:35";
paths = (
{
closed = 1;
nodes = (
"163 86 LINE",
"163 392 LINE",
"12 392 LINE",
"12 86 LINE"
);
},
{
closed = 1;
nodes = (
"418 432 LINE",
"121 510 LINE",
"84 364 LINE",
"380 285 LINE"
);
},
{
closed = 1;
nodes = (
"360 86 LINE",
"360 392 LINE",
"209 392 LINE",
"209 86 LINE"
);
},
{
closed = 1;
nodes = (
"412 145 LINE",
"221 195 LINE",
"183 50 LINE",
"374 -2 LINE"
);
},
{
closed = 1;
nodes = (
"231 145 LINE",
"40 195 LINE",
"2 50 LINE",
"193 -2 LINE"
);
}
);
width = 600;
},
{
associatedMasterId = "3DD6C797-E5ED-486C-89DE-75EDF9B2F8B8";
layerId = "1841794A-B718-4F7E-8930-77021FC2ADB3";
paths = (
{
closed = 1;
nodes = (
"46 85 LINE",
"46 418 LINE",
"26 418 LINE",
"26 85 LINE"
);
},
{
closed = 1;
nodes = (
"374 0 LINE",
"374 386 LINE",
"354 386 LINE",
"354 0 LINE"
);
},
{
closed = 1;
nodes = (
"130 404 LINE",
"113 433 LINE",
"459 343 LINE",
"355 310 LINE",
"382 418 LINE",
"464 363 LINE",
"112 454 LINE",
"147 472 LINE"
);
},
{
closed = 1;
nodes = (
"171 455 LINE",
"26 418 LINE",
"31 398 LINE",
"171 435 LINE",
"151 408 LINE",
"136 470 LINE"
);
},
{
closed = 1;
nodes = (
"19 57 LINE",
"22 86 LINE",
"368 -4 LINE",
"345 -37 LINE",
"372 71 LINE",
"373 16 LINE",
"21 107 LINE",
"36 125 LINE"
);
}
);
width = 600;
},
{
layerId = "C1068CC4-E81B-47E6-9D26-F0E70787A68A";
paths = (
{
closed = 1;
nodes = (
"206 -3 LINE",
"245 143 LINE",
"177 162 LINE",
"177 392 LINE",
"26 392 LINE",
"26 90 LINE",
"15 49 LINE"
);
},
{
closed = 1;
nodes = (
"192 83 LINE",
"187 64 LINE",
"65 96 LINE",
"70 116 LINE",
"92 110 LINE",
"92 362 LINE",
"112 362 LINE",
"112 105 LINE"
);
},
{
closed = 1;
nodes = (
"223 331 LINE",
"223 150 LINE",
"196 49 LINE",
"387 -3 LINE",
"426 143 LINE",
"374 157 LINE",
"374 290 LINE",
"394 285 LINE",
"432 432 LINE",
"135 510 LINE",
"98 364 LINE"
);
},
{
closed = 1;
nodes = (
"158 431 LINE",
"373 372 LINE",
"368 353 LINE",
"309 369 LINE",
"309 105 LINE",
"373 87 LINE",
"368 68 LINE",
"262 96 LINE",
"267 116 LINE",
"289 110 LINE",
"289 375 LINE",
"153 412 LINE"
);
}
);
width = 447;
}
);
unicode = 0061;
},
{
glyphname = b;
lastChange = "2019-07-31 03:33:30 +0000";
layers = (
{
layerId = "3DD6C797-E5ED-486C-89DE-75EDF9B2F8B8";
paths = (
{
closed = 1;
nodes = (
"388 92 LINE",
"40 257 LINE",
"105 268 LINE",
"14 73 LINE",
"-18 116 LINE",
"230 0 LINE"
);
},
{
closed = 1;
nodes = (
"197 105 LINE",
"197 582 LINE",
"46 582 LINE",
"46 105 LINE"
);
},
{
closed = 1;
nodes = (
"314 49 LINE",
"419 110 LINE",
"448 216 LINE",
"389 489 LINE",
"457 371 LINE",
"221 320 LINE",
"237 480 LINE",
"340 0 LINE"
);
},
{
closed = 1;
nodes = (
"416 362 LINE",
"251 440 LINE",
"188 303 LINE",
"353 225 LINE"
);
},
{
closed = 1;
nodes = (
"230 626 LINE",
"54 674 LINE",
"15 528 LINE",
"191 480 LINE"
);
}
);
width = 463;
},
{
associatedMasterId = "3DD6C797-E5ED-486C-89DE-75EDF9B2F8B8";
layerId = "00CC84C8-AB4D-445A-B2F6-C8783469147E";
name = "Apr 21 19, 13:29";
paths = (
{
closed = 1;
nodes = (
"390 92 LINE",
"42 257 LINE",
"107 268 LINE",
"16 73 LINE",
"-16 116 LINE",
"232 0 LINE"
);
},
{
closed = 1;
nodes = (
"391 489 LINE",
"456 411 LINE",
"220 360 LINE",
"239 480 LINE",
"342 0 LINE",
"316 49 LINE",
"421 110 LINE",
"450 216 LINE"
);
},
{
closed = 1;
nodes = (
"199 105 LINE",
"199 582 LINE",
"48 582 LINE",
"48 105 LINE"
);
},
{
closed = 1;
nodes = (
"232 626 LINE",
"56 674 LINE",
"17 528 LINE",
"193 480 LINE"
);
},
{
closed = 1;
nodes = (
"410 401 LINE",
"69 490 LINE",
"231 523 LINE",
"172 289 LINE",
"33 345 LINE",
"372 254 LINE"
);
}
);
width = 600;
},
{
associatedMasterId = "3DD6C797-E5ED-486C-89DE-75EDF9B2F8B8";
layerId = "E3E99D9A-1153-4F5B-96BE-29941AD2BADE";
name = "Apr 21 19, 13:30";
paths = (
{
closed = 1;
nodes = (
"388 92 LINE",
"40 257 LINE",
"105 268 LINE",
"14 73 LINE",
"-18 116 LINE",
"230 0 LINE"
);
},
{
closed = 1;
nodes = (
"389 489 LINE",
"457 371 LINE",
"221 320 LINE",
"237 480 LINE",
"340 0 LINE",
"314 49 LINE",
"419 110 LINE",
"448 216 LINE"
);
},
{
closed = 1;
nodes = (
"197 105 LINE",
"197 582 LINE",
"46 582 LINE",
"46 105 LINE"
);
},
{
closed = 1;
nodes = (
"230 626 LINE",
"54 674 LINE",
"15 528 LINE",
"191 480 LINE"
);
},
{
closed = 1;
nodes = (
"416 362 LINE",
"251 440 LINE",
"188 303 LINE",
"353 225 LINE"
);
}
);
width = 463;
},
{
associatedMasterId = "3DD6C797-E5ED-486C-89DE-75EDF9B2F8B8";
layerId = "0D0E655D-D455-4ADF-AD67-60A864A01BEA";
name = "Apr 21 19, 13:31";
paths = (
{
closed = 1;
nodes = (
"390 92 LINE",
"42 257 LINE",
"107 268 LINE",
"16 73 LINE",
"-16 116 LINE",
"232 0 LINE"
);
},
{
closed = 1;
nodes = (
"391 489 LINE",
"456 411 LINE",
"220 360 LINE",
"239 480 LINE",
"342 0 LINE",
"316 49 LINE",
"421 110 LINE",
"450 216 LINE"
);
},
{
closed = 1;
nodes = (
"199 105 LINE",
"199 582 LINE",
"48 582 LINE",
"48 105 LINE"
);
},
{
closed = 1;
nodes = (
"232 626 LINE",
"56 674 LINE",
"17 528 LINE",
"193 480 LINE"
);
},
{
closed = 1;
nodes = (
"410 401 LINE",
"234 449 LINE",
"195 303 LINE",
"371 255 LINE"
);
}
);
width = 600;
},
{
associatedMasterId = "3DD6C797-E5ED-486C-89DE-75EDF9B2F8B8";
layerId = "C7A17FED-C64B-4512-9817-C833599DDEC9";
name = "Apr 21 19, 13:36";
paths = (
{
closed = 1;
nodes = (
"390 92 LINE",
"42 257 LINE",
"107 268 LINE",
"16 73 LINE",
"-16 116 LINE",
"232 0 LINE"
);
},
{
closed = 1;
nodes = (
"391 489 LINE",
"456 376 LINE",
"220 325 LINE",
"239 480 LINE",
"342 0 LINE",
"316 49 LINE",
"421 110 LINE",
"450 216 LINE"
);
},
{
closed = 1;
nodes = (
"199 105 LINE",
"199 582 LINE",
"48 582 LINE",
"48 105 LINE"
);
},
{
closed = 1;
nodes = (
"232 626 LINE",
"56 674 LINE",
"17 528 LINE",
"193 480 LINE"
);
},
{
closed = 1;
nodes = (
"417 368 LINE",
"97 516 LINE",
"263 519 LINE",
"163 300 LINE",
"36 380 LINE",
"354 230 LINE"
);
}
);
width = 600;
},
{
associatedMasterId = "3DD6C797-E5ED-486C-89DE-75EDF9B2F8B8";
layerId = "1841794A-B718-4F7E-8930-77021FC2ADB3";
width = 600;
},
{
layerId = "C1068CC4-E81B-47E6-9D26-F0E70787A68A";
width = 600;
}
);
unicode = 0062;
},
{
glyphname = c;
lastChange = "2019-07-31 03:33:30 +0000";
layers = (
{
layerId = "3DD6C797-E5ED-486C-89DE-75EDF9B2F8B8";
paths = (
{
closed = 1;
nodes = (
"374 441 LINE",
"77 519 LINE",
"40 373 LINE",
"336 294 LINE"
);
},
{
closed = 1;
nodes = (
"288 186 LINE",
"288 131 LINE",
"54 195 LINE",
"15 49 LINE",
"249 -15 LINE",
"225 -46 LINE"
);
},
{
closed = 1;
nodes = (
"177 86 LINE",
"177 352 LINE",
"26 352 LINE",
"26 86 LINE"
);
},
{
closed = 1;
nodes = (
"445 109 LINE",
"399 38 LINE",
"277 247 LINE",
"369 240 LINE",
"158 119 LINE",
"234 -11 LINE"
);
}
);
width = 394;
},
{
associatedMasterId = "3DD6C797-E5ED-486C-89DE-75EDF9B2F8B8";
layerId = "1841794A-B718-4F7E-8930-77021FC2ADB3";
width = 600;
},
{
layerId = "C1068CC4-E81B-47E6-9D26-F0E70787A68A";
width = 600;
}
);
unicode = 0063;
},
{
glyphname = d;
lastChange = "2019-07-31 03:33:30 +0000";
layers = (
{
layerId = "3DD6C797-E5ED-486C-89DE-75EDF9B2F8B8";
paths = (
{
closed = 1;
nodes = (
"225 149 LINE",
"449 240 LINE",
"424 146 LINE",
"219 652 LINE",
"79 595 LINE",
"284 89 LINE"
);
},
{
closed = 1;
nodes = (
"290 133 LINE",
"53 195 LINE",
"15 50 LINE",
"252 -14 LINE"
);
},
{
closed = 1;
nodes = (
"176 86 LINE",
"176 392 LINE",
"25 392 LINE",
"25 86 LINE"
);
},
{
closed = 1;
nodes = (
"395 86 LINE",
"395 218 LINE",
"244 218 LINE",
"244 86 LINE"
);
}
);
width = 410;
},
{
associatedMasterId = "3DD6C797-E5ED-486C-89DE-75EDF9B2F8B8";
backgroundImage = {
crop = "{{0, 0}, {505, 139}}";
imagePath = "../Dropbox/screenshots/Screenshot 2019-04-18 20.27.25.png";
transform = "{7.391, 0, 0, 7.391, -414, -236}";
};
layerId = "5BBBDFD7-EFE4-4C65-B68E-2359266C0F9A";
name = "Apr 18 19, 20:38";
paths = (
{
closed = 1;
nodes = (
"295 86 LINE",
"295 392 LINE",
"144 392 LINE",
"144 86 LINE"
);
},
{
closed = 1;
nodes = (
"525 186 LINE",
"355 652 LINE",
"213 600 LINE",
"383 134 LINE"
);
},
{
closed = 1;
nodes = (
"409 133 LINE",
"172 195 LINE",
"134 50 LINE",
"371 -14 LINE"
);
}
);
width = 600;
},
{
associatedMasterId = "3DD6C797-E5ED-486C-89DE-75EDF9B2F8B8";
layerId = "B4496096-8219-4E0B-A1AB-EEDDB644E116";
name = "Apr 19 19, 03:21";
paths = (
{
closed = 1;
nodes = (
"408 188 LINE",
"220 652 LINE",
"80 595 LINE",
"268 131 LINE"
);
},
{
closed = 1;
nodes = (
"291 133 LINE",
"54 195 LINE",
"16 50 LINE",
"253 -14 LINE"
);
},
{
closed = 1;
nodes = (
"177 86 LINE",
"177 392 LINE",
"26 392 LINE",
"26 86 LINE"
);
}
);
width = 436;
},
{
associatedMasterId = "3DD6C797-E5ED-486C-89DE-75EDF9B2F8B8";
layerId = "1841794A-B718-4F7E-8930-77021FC2ADB3";
width = 600;
},
{
layerId = "C1068CC4-E81B-47E6-9D26-F0E70787A68A";
width = 600;
}
);
unicode = 0064;
},
{
glyphname = e;
lastChange = "2019-07-31 03:33:30 +0000";
layers = (
{
layerId = "3DD6C797-E5ED-486C-89DE-75EDF9B2F8B8";
paths = (
{
closed = 1;
nodes = (
"384 365 LINE",
"198 523 LINE",
"101 407 LINE",
"287 249 LINE"
);
},
{
closed = 1;
nodes = (
"344 118 LINE",
"54 197 LINE",
"15 51 LINE",
"305 -28 LINE"
);
},
{
closed = 1;
nodes = (
"183 86 LINE",
"183 392 LINE",
"32 392 LINE",
"32 86 LINE"
);
},
{
closed = 1;
nodes = (
"84 132 LINE",
"303 192 LINE",
"252 381 LINE",
"307 305 LINE",
"45 233 LINE",
"66 333 LINE",
"129 101 LINE"
);
}
);
width = 399;
},
{
associatedMasterId = "3DD6C797-E5ED-486C-89DE-75EDF9B2F8B8";
layerId = "8B864186-239D-4100-914B-12AAD67FBD24";
name = "Apr 20 19, 01:25";
paths = (
{
closed = 1;
nodes = (
"455 365 LINE",
"269 523 LINE",
"172 407 LINE",
"358 249 LINE"
);
},
{
closed = 1;
nodes = (
"415 118 LINE",
"125 197 LINE",
"86 51 LINE",
"376 -28 LINE"
);
},
{
closed = 1;
nodes = (
"254 86 LINE",
"254 392 LINE",
"103 392 LINE",
"103 86 LINE"
);
},
{
closed = 1;
nodes = (
"358 249 LINE",
"355 256 LINE",
"222 209 LINE",
"245 147 LINE"
);
}
);
width = 600;
},
{
associatedMasterId = "3DD6C797-E5ED-486C-89DE-75EDF9B2F8B8";
layerId = "1841794A-B718-4F7E-8930-77021FC2ADB3";
width = 600;
},
{
layerId = "C1068CC4-E81B-47E6-9D26-F0E70787A68A";
width = 600;
}
);
unicode = 0065;
},
{
glyphname = f;
lastChange = "2019-07-31 03:33:30 +0000";
layers = (
{
layerId = "3DD6C797-E5ED-486C-89DE-75EDF9B2F8B8";
paths = (
{
closed = 1;
nodes = (
"185 462 LINE",
"34 462 LINE",
"34 44 LINE",
"185 2 LINE"
);
},
{
closed = 1;
nodes = (
"240 241 LINE",
"259 350 LINE",
"90 350 LINE",
"90 241 LINE"
);
},
{
closed = 1;
nodes = (
"311 632 LINE",
"466 581 LINE",
"-15 626 LINE",
"33 665 LINE",
"11 426 LINE",
"-17 475 LINE",
"445 430 LINE",
"289 392 LINE"
);
}
);
width = 323;
},
{
associatedMasterId = "3DD6C797-E5ED-486C-89DE-75EDF9B2F8B8";
layerId = "1841794A-B718-4F7E-8930-77021FC2ADB3";
width = 600;
},
{
layerId = "C1068CC4-E81B-47E6-9D26-F0E70787A68A";
width = 600;
}
);
unicode = 0066;
},
{
glyphname = g;
lastChange = "2019-07-31 03:33:16 +0000";
layers = (
{
layerId = "3DD6C797-E5ED-486C-89DE-75EDF9B2F8B8";
paths = (
{
closed = 1;
nodes = (
"415 -51 LINE",
"458 -98 LINE",
"30 13 LINE",
"106 46 LINE",
"46 -187 LINE",
"-7 -131 LINE",
"467 -260 LINE",
"355 -286 LINE"
);
},
{
closed = 1;
nodes = (
"281 177 LINE",
"355 122 LINE",
"-97 239 LINE",
"62 239 LINE",
"2 6 LINE",
"-116 91 LINE",
"316 -26 LINE",
"221 -58 LINE"
);
},
{
closed = 1;
nodes = (
"197 177 LINE",
"197 392 LINE",
"46 392 LINE",
"46 177 LINE"
);
},
{
closed = 1;
nodes = (
"406 -85 LINE",
"406 360 LINE",
"255 360 LINE",
"255 -85 LINE"
);
},
{
closed = 1;
nodes = (
"438 477 LINE",
"509 422 LINE",
"43 550 LINE",
"143 580 LINE",
"80 348 LINE",
"15 401 LINE",
"470 276 LINE",
"375 245 LINE"
);
}
);
width = 444;
},
{
associatedMasterId = "3DD6C797-E5ED-486C-89DE-75EDF9B2F8B8";
layerId = "1841794A-B718-4F7E-8930-77021FC2ADB3";
width = 600;
},
{
layerId = "C1068CC4-E81B-47E6-9D26-F0E70787A68A";
width = 600;
}
);
unicode = 0067;
},
{
glyphname = h;
lastChange = "2019-07-31 03:33:30 +0000";
layers = (
{
layerId = "3DD6C797-E5ED-486C-89DE-75EDF9B2F8B8";
paths = (
{
closed = 1;
nodes = (
"220 86 LINE",
"220 640 LINE",
"69 579 LINE",
"69 86 LINE"
);
},
{
closed = 1;
nodes = (
"245 143 LINE",
"54 195 LINE",
"15 49 LINE",
"206 -3 LINE"
);
},
{
closed = 1;
nodes = (
"423 61 LINE",
"423 390 LINE",
"272 390 LINE",
"272 0 LINE"
);
},
{
closed = 1;
nodes = (
"431 448 LINE",
"240 500 LINE",
"201 354 LINE",
"392 302 LINE"
);
}
);
width = 446;
},
{
associatedMasterId = "3DD6C797-E5ED-486C-89DE-75EDF9B2F8B8";
backgroundImage = {
crop = "{{0, 0}, {505, 139}}";
imagePath = "../Dropbox/screenshots/Screenshot 2019-04-18 20.27.25.png";
transform = "{7.391, 0, 0, 7.391, -883, -236}";
};
layerId = "537B6740-E02F-4D10-BC2A-4A049F7E90BC";
name = "Apr 18 19, 20:44";
paths = (
{
closed = 1;
nodes = (
"225 143 LINE",
"34 195 LINE",
"-5 49 LINE",
"186 -3 LINE"
);
},
{
closed = 1;
nodes = (
"200 86 LINE",
"200 640 LINE",
"49 579 LINE",
"49 86 LINE"
);
},
{
closed = 1;
nodes = (
"411 448 LINE",
"220 500 LINE",
"181 354 LINE",
"372 302 LINE"
);
},
{
closed = 1;
nodes = (
"252 390 LINE",
"252 -3 LINE",
"403 58 LINE",
"403 390 LINE"
);
}
);
width = 600;
},
{
associatedMasterId = "3DD6C797-E5ED-486C-89DE-75EDF9B2F8B8";
layerId = "1841794A-B718-4F7E-8930-77021FC2ADB3";
width = 600;
},
{
layerId = "C1068CC4-E81B-47E6-9D26-F0E70787A68A";
width = 600;
}
);
unicode = 0068;
},
{
glyphname = idotless;
lastChange = "2019-07-31 03:33:30 +0000";
layers = (
{
anchors = (
{
name = bottom;
position = "{123, -50}";
},
{
name = ogonek;
position = "{221, 10}";
},
{
name = top;
position = "{117, 500}";
}
);
layerId = "3DD6C797-E5ED-486C-89DE-75EDF9B2F8B8";
paths = (
{
closed = 1;
nodes = (
"197 85 LINE",
"197 392 LINE",
"46 392 LINE",
"46 85 LINE"
);
},
{
closed = 1;
nodes = (
"230 146 LINE",
"54 194 LINE",
"15 48 LINE",
"191 0 LINE"
);
},
{
closed = 1;
nodes = (
"230 436 LINE",
"54 484 LINE",
"15 338 LINE",
"191 290 LINE"
);
}
);
width = 245;
},
{
associatedMasterId = "3DD6C797-E5ED-486C-89DE-75EDF9B2F8B8";
layerId = "1841794A-B718-4F7E-8930-77021FC2ADB3";
width = 600;
},
{
layerId = "C1068CC4-E81B-47E6-9D26-F0E70787A68A";
width = 600;
}
);
unicode = 0131;
},
{
glyphname = jdotless;
lastChange = "2019-07-31 03:33:30 +0000";
layers = (
{
anchors = (
{
name = bottom;
position = "{123, -200}";
},
{
name = top;
position = "{117, 500}";
}
);
layerId = "3DD6C797-E5ED-486C-89DE-75EDF9B2F8B8";
paths = (
{
closed = 1;
nodes = (
"197 -124 LINE",
"197 373 LINE",
"46 373 LINE",
"46 -161 LINE"
);
},
{
closed = 1;
nodes = (
"230 436 LINE",
"54 484 LINE",
"15 338 LINE",
"191 290 LINE"
);
}
);
width = 245;
},
{
associatedMasterId = "3DD6C797-E5ED-486C-89DE-75EDF9B2F8B8";
layerId = "1841794A-B718-4F7E-8930-77021FC2ADB3";
width = 600;
},
{
layerId = "C1068CC4-E81B-47E6-9D26-F0E70787A68A";
width = 600;
}
);
unicode = 0237;
},
{
glyphname = k;
lastChange = "2019-07-31 03:33:30 +0000";
layers = (
{
layerId = "3DD6C797-E5ED-486C-89DE-75EDF9B2F8B8";
paths = (
{
closed = 1;
nodes = (
"197 86 LINE",
"197 640 LINE",
"46 579 LINE",
"46 86 LINE"
);
},
{
closed = 1;
nodes = (
"230 146 LINE",
"54 194 LINE",
"15 48 LINE",
"191 0 LINE"
);
},
{
closed = 1;
nodes = (
"400 61 LINE",
"400 312 LINE",
"249 312 LINE",
"249 0 LINE"
);
},
{
closed = 1;
nodes = (
"418 344 LINE",
"451 282 LINE",
"149 459 LINE",
"203 445 LINE",
"84 236 LINE",
"84 323 LINE",
"376 151 LINE",
"299 135 LINE"
);
},
{
closed = 1;
nodes = (
"451 445 LINE",
"400 383 LINE",
"400 615 LINE",
"428 606 LINE",
"127 429 LINE",
"116 424 LINE",
"371 366 LINE",
"202 298 LINE"
);
}
);
width = 415;
},
{
associatedMasterId = "3DD6C797-E5ED-486C-89DE-75EDF9B2F8B8";
layerId = "539A3DED-46E7-40D4-9AD9-B1F898A97928";
name = "Apr 21 19, 19:56";
paths = (
{
closed = 1;
nodes = (
"245 143 LINE",
"54 195 LINE",
"15 49 LINE",
"206 -3 LINE"
);
},
{
closed = 1;
nodes = (
"423 61 LINE",
"423 312 LINE",
"272 312 LINE",
"272 0 LINE"
);
},
{
closed = 1;
nodes = (
"441 344 LINE",
"474 282 LINE",
"172 459 LINE",
"226 445 LINE",
"107 236 LINE",
"107 323 LINE",
"399 151 LINE",
"322 135 LINE"
);
},
{
closed = 1;
nodes = (
"220 105 LINE",
"220 582 LINE",
"69 582 LINE",
"69 105 LINE"
);
},
{
closed = 1;
nodes = (
"253 626 LINE",
"77 674 LINE",
"38 528 LINE",
"214 480 LINE"
);
},
{
closed = 1;
nodes = (
"451 606 LINE",
"150 429 LINE",
"139 424 LINE",
"394 366 LINE",
"225 298 LINE",
"474 445 LINE",
"423 383 LINE",
"423 615 LINE"
);
}
);
width = 438;
},
{
associatedMasterId = "3DD6C797-E5ED-486C-89DE-75EDF9B2F8B8";
layerId = "4404C974-A38E-4E9E-8C1A-027A6EA13C9A";
name = "Apr 21 19, 19:58";
paths = (
{
closed = 1;
nodes = (
"423 61 LINE",
"423 312 LINE",
"272 312 LINE",
"272 0 LINE"
);
},
{
closed = 1;
nodes = (
"441 344 LINE",
"474 282 LINE",
"172 459 LINE",
"226 445 LINE",
"107 236 LINE",
"107 323 LINE",
"399 151 LINE",
"322 135 LINE"
);
},
{
closed = 1;
nodes = (
"451 606 LINE",
"150 429 LINE",
"139 424 LINE",
"394 366 LINE",
"225 298 LINE",
"474 445 LINE",
"423 383 LINE",
"423 615 LINE"
);
},
{
closed = 1;
nodes = (
"220 86 LINE",
"220 640 LINE",
"69 579 LINE",
"69 86 LINE"
);
},
{
closed = 1;
nodes = (
"253 146 LINE",
"77 194 LINE",
"38 48 LINE",
"214 0 LINE"
);
}
);
width = 438;
},
{
associatedMasterId = "3DD6C797-E5ED-486C-89DE-75EDF9B2F8B8";
layerId = "F7205B59-8241-4D23-BE78-940266144072";
name = "Apr 21 19, 20:05";
paths = (
{
closed = 1;
nodes = (
"400 61 LINE",
"400 312 LINE",
"249 312 LINE",
"249 0 LINE"
);
},
{
closed = 1;
nodes = (
"418 344 LINE",
"451 282 LINE",
"149 459 LINE",
"233 445 LINE",
"114 236 LINE",
"84 323 LINE",
"376 151 LINE",
"299 135 LINE"
);
},
{
closed = 1;
nodes = (
"197 86 LINE",
"197 640 LINE",
"46 579 LINE",
"46 86 LINE"
);
},
{
closed = 1;
nodes = (
"230 146 LINE",
"54 194 LINE",
"15 48 LINE",
"191 0 LINE"
);
},
{
closed = 1;
nodes = (
"450 556 LINE",
"158 384 LINE",
"188 471 LINE",
"307 262 LINE",
"223 248 LINE",
"525 425 LINE",
"492 363 LINE",
"373 572 LINE"
);
}
);
width = 415;
},
{
associatedMasterId = "3DD6C797-E5ED-486C-89DE-75EDF9B2F8B8";
layerId = "1841794A-B718-4F7E-8930-77021FC2ADB3";
width = 600;
},
{
layerId = "C1068CC4-E81B-47E6-9D26-F0E70787A68A";
width = 600;
}
);
unicode = 006B;
},
{
glyphname = l;
lastChange = "2019-07-31 03:33:30 +0000";
layers = (
{
layerId = "3DD6C797-E5ED-486C-89DE-75EDF9B2F8B8";
paths = (
{
closed = 1;
nodes = (
"192 85 LINE",
"192 619 LINE",
"41 582 LINE",
"41 85 LINE"
);
},
{
closed = 1;
nodes = (
"225 146 LINE",
"49 194 LINE",
"10 48 LINE",
"186 0 LINE"
);
},
{
closed = 1;
nodes = (
"225 146 LINE",
"49 194 LINE",
"10 48 LINE",
"186 0 LINE"
);
}
);
width = 235;
},
{
associatedMasterId = "3DD6C797-E5ED-486C-89DE-75EDF9B2F8B8";
layerId = "1841794A-B718-4F7E-8930-77021FC2ADB3";
width = 600;
},
{
layerId = "C1068CC4-E81B-47E6-9D26-F0E70787A68A";
width = 600;
}
);
unicode = 006C;
},
{
glyphname = m;
lastChange = "2019-07-31 03:33:30 +0000";
layers = (
{
layerId = "3DD6C797-E5ED-486C-89DE-75EDF9B2F8B8";
paths = (
{
closed = 1;
nodes = (
"660 440 LINE",
"441 500 LINE",
"402 354 LINE",
"621 294 LINE"
);
},
{
closed = 1;
nodes = (
"230 146 LINE",
"54 194 LINE",
"15 48 LINE",
"191 0 LINE"
);
},
{
closed = 1;
nodes = (
"230 146 LINE",
"54 194 LINE",
"15 48 LINE",
"191 0 LINE"
);
},
{
closed = 1;
nodes = (
"197 85 LINE",
"197 396 LINE",
"46 396 LINE",
"46 85 LINE"
);
},
{
closed = 1;
nodes = (
"445 146 LINE",
"269 194 LINE",
"230 48 LINE",
"406 0 LINE"
);
},
{
closed = 1;
nodes = (
"445 146 LINE",
"269 194 LINE",
"230 48 LINE",
"406 0 LINE"
);
},
{
closed = 1;
nodes = (
"230 440 LINE",
"54 488 LINE",
"15 342 LINE",
"191 294 LINE"
);
},
{
closed = 1;
nodes = (
"412 85 LINE",
"412 396 LINE",
"261 396 LINE",
"261 85 LINE"
);
},
{
closed = 1;
nodes = (
"660 146 LINE",
"484 194 LINE",
"445 48 LINE",
"621 0 LINE"
);
},
{
closed = 1;
nodes = (
"445 440 LINE",
"226 500 LINE",
"187 354 LINE",
"406 294 LINE"
);
},
{
closed = 1;
nodes = (
"627 85 LINE",
"627 396 LINE",
"476 396 LINE",
"476 85 LINE"
);
}
);
width = 675;
},
{
associatedMasterId = "3DD6C797-E5ED-486C-89DE-75EDF9B2F8B8";
layerId = "1841794A-B718-4F7E-8930-77021FC2ADB3";
width = 600;
},
{
layerId = "C1068CC4-E81B-47E6-9D26-F0E70787A68A";
width = 600;
}
);
unicode = 006D;
},
{
glyphname = n;
lastChange = "2019-07-31 03:33:16 +0000";
layers = (
{
layerId = "3DD6C797-E5ED-486C-89DE-75EDF9B2F8B8";
paths = (
{
closed = 1;
nodes = (
"445 440 LINE",
"226 500 LINE",
"187 354 LINE",
"406 294 LINE"
);
},
{
closed = 1;
nodes = (
"230 146 LINE",
"54 194 LINE",
"15 48 LINE",
"191 0 LINE"
);
},
{
closed = 1;
nodes = (
"197 85 LINE",
"197 396 LINE",
"46 396 LINE",
"46 85 LINE"
);
},
{
closed = 1;
nodes = (
"445 146 LINE",
"269 194 LINE",
"230 48 LINE",
"406 0 LINE"
);
},
{
closed = 1;
nodes = (
"230 440 LINE",
"54 488 LINE",
"15 342 LINE",
"191 294 LINE"
);
},
{
closed = 1;
nodes = (
"412 85 LINE",
"412 396 LINE",
"261 396 LINE",
"261 85 LINE"
);
}
);
width = 460;
},
{
associatedMasterId = "3DD6C797-E5ED-486C-89DE-75EDF9B2F8B8";
layerId = "1841794A-B718-4F7E-8930-77021FC2ADB3";
width = 600;
},
{
layerId = "C1068CC4-E81B-47E6-9D26-F0E70787A68A";
width = 600;
}
);
unicode = 006E;
},
{
glyphname = o;
lastChange = "2019-07-31 03:33:30 +0000";
layers = (
{
layerId = "3DD6C797-E5ED-486C-89DE-75EDF9B2F8B8";
paths = (
{
closed = 1;
nodes = (
"417 477 LINE",
"488 422 LINE",
"22 550 LINE",
"122 580 LINE",
"59 348 LINE",
"-6 401 LINE",
"449 276 LINE",
"354 245 LINE"
);
},
{
closed = 1;
nodes = (
"290 133 LINE",
"53 195 LINE",
"15 50 LINE",
"252 -14 LINE"
);
},
{
closed = 1;
nodes = (
"176 86 LINE",
"176 392 LINE",
"25 392 LINE",
"25 86 LINE"
);
},
{
closed = 1;
nodes = (
"385 86 LINE",
"385 360 LINE",
"234 360 LINE",
"234 86 LINE"
);
}
);
width = 423;
},
{
associatedMasterId = "3DD6C797-E5ED-486C-89DE-75EDF9B2F8B8";
layerId = "3EF3CC55-62B2-4DD0-AEA6-EAB1D2A88055";
name = "Apr 18 19, 23:00";
paths = (
{
closed = 1;
nodes = (
"407 188 LINE",
"202 694 LINE",
"315 510 LINE",
"25 392 LINE",
"62 637 LINE",
"267 131 LINE"
);
},
{
closed = 1;
nodes = (
"290 133 LINE",
"53 195 LINE",
"15 50 LINE",
"252 -14 LINE"
);
},
{
closed = 1;
nodes = (
"176 86 LINE",
"176 392 LINE",
"25 392 LINE",
"25 86 LINE"
);
},
{
closed = 1;
nodes = (
"176 392 LINE",
"142 440 LINE",
"25 392 LINE"
);
},
{
closed = 1;
nodes = (
"176 86 LINE",
"176 392 LINE",
"25 392 LINE",
"25 86 LINE"
);
}
);
width = 412;
},
{
associatedMasterId = "3DD6C797-E5ED-486C-89DE-75EDF9B2F8B8";
layerId = "903C2A81-F123-491F-B98A-DB25976FE939";
name = "Apr 18 19, 23:00";
paths = (
{
closed = 1;
nodes = (
"445 287 LINE",
"450 195 LINE",
"137 696 LINE",
"280 553 LINE",
"25 392 LINE",
"9 615 LINE",
"322 114 LINE",
"241 158 LINE"
);
},
{
closed = 1;
nodes = (
"290 133 LINE",
"53 195 LINE",
"15 50 LINE",
"252 -14 LINE"
);
},
{
closed = 1;
nodes = (
"176 86 LINE",
"176 392 LINE",
"25 392 LINE",
"25 86 LINE"
);
},
{
closed = 1;
nodes = (
"176 392 LINE",
"132 460 LINE",
"25 392 LINE"
);
},
{
closed = 1;
nodes = (
"407 86 LINE",
"407 263 LINE",
"256 263 LINE",
"256 86 LINE"
);
}
);
width = 412;
},
{
associatedMasterId = "3DD6C797-E5ED-486C-89DE-75EDF9B2F8B8";
layerId = "1841794A-B718-4F7E-8930-77021FC2ADB3";
width = 600;
},
{
layerId = "C1068CC4-E81B-47E6-9D26-F0E70787A68A";
width = 600;
}
);
unicode = 006F;
},
{
glyphname = p;
lastChange = "2019-07-31 03:33:30 +0000";
layers = (
{
layerId = "3DD6C797-E5ED-486C-89DE-75EDF9B2F8B8";
paths = (
{
closed = 1;
nodes = (
"197 -158 LINE",
"197 360 LINE",
"46 360 LINE",
"46 -195 LINE"
);
},
{
closed = 1;
nodes = (
"107 62 LINE",
"257 20 LINE",
"408 136 LINE",
"146 208 LINE",
"221 239 LINE",
"158 7 LINE"
);
},
{
closed = 1;
nodes = (
"408 108 LINE",
"408 361 LINE",
"257 361 LINE",
"257 20 LINE"
);
},
{
closed = 1;
nodes = (
"230 452 LINE",
"54 500 LINE",
"15 354 LINE",
"191 306 LINE"
);
},
{
closed = 1;
nodes = (
"445 440 LINE",
"226 500 LINE",
"187 354 LINE",
"406 294 LINE"
);
}
);
width = 460;
},
{
associatedMasterId = "3DD6C797-E5ED-486C-89DE-75EDF9B2F8B8";
layerId = "7A2C0183-B258-4A5F-9C20-58372829A820";
name = "Apr 21 19, 20:12";
paths = (
{
closed = 1;
nodes = (
"197 -158 LINE",
"197 360 LINE",
"46 360 LINE",
"46 -195 LINE"
);
},
{
closed = 1;
nodes = (
"230 452 LINE",
"54 500 LINE",
"15 354 LINE",
"191 306 LINE"
);
},
{
closed = 1;
nodes = (
"182 -34 LINE",
"429 110 LINE",
"419 73 LINE",
"328 268 LINE",
"383 234 LINE",
"93 65 LINE",
"136 169 LINE",
"227 -26 LINE"
);
},
{
closed = 1;
nodes = (
"445 440 LINE",
"226 500 LINE",
"187 354 LINE",
"406 294 LINE"
);
},
{
closed = 1;
nodes = (
"408 98 LINE",
"408 361 LINE",
"257 361 LINE",
"257 43 LINE"
);
}
);
width = 600;
},
{
associatedMasterId = "3DD6C797-E5ED-486C-89DE-75EDF9B2F8B8";
layerId = "1D3F06FD-DE2E-43E0-8DB2-8DD5F3B89C96";
name = "Apr 21 19, 20:14";
paths = (
{
closed = 1;
nodes = (
"197 -158 LINE",
"197 360 LINE",
"46 360 LINE",
"46 -195 LINE"
);
},
{
closed = 1;
nodes = (
"230 452 LINE",
"54 500 LINE",
"15 354 LINE",
"191 306 LINE"
);
},
{
closed = 1;
nodes = (
"445 440 LINE",
"226 500 LINE",
"187 354 LINE",
"406 294 LINE"
);
},
{
closed = 1;
nodes = (
"408 136 LINE",
"408 361 LINE",
"257 361 LINE",
"257 33 LINE"
);
},
{
closed = 1;
nodes = (
"408 136 LINE",
"189 196 LINE",
"150 50 LINE",
"369 -10 LINE"
);
}
);
width = 460;
},
{
associatedMasterId = "3DD6C797-E5ED-486C-89DE-75EDF9B2F8B8";
layerId = "1841794A-B718-4F7E-8930-77021FC2ADB3";
width = 600;
},
{
layerId = "C1068CC4-E81B-47E6-9D26-F0E70787A68A";
width = 600;
}
);
unicode = 0070;
},
{
glyphname = q;
lastChange = "2019-07-31 03:33:30 +0000";
layers = (
{
layerId = "3DD6C797-E5ED-486C-89DE-75EDF9B2F8B8";
paths = (
{
closed = 1;
nodes = (
"385 -158 LINE",
"385 360 LINE",
"234 360 LINE",
"234 -195 LINE"
);
},
{
closed = 1;
nodes = (
"259 177 LINE",
"334 122 LINE",
"53 195 LINE",
"15 50 LINE",
"295 -26 LINE",
"199 -58 LINE"
);
},
{
closed = 1;
nodes = (
"176 86 LINE",
"176 392 LINE",
"25 392 LINE",
"25 86 LINE"
);
},
{
closed = 1;
nodes = (
"417 477 LINE",
"488 422 LINE",
"22 550 LINE",
"122 580 LINE",
"59 348 LINE",
"-6 401 LINE",
"449 276 LINE",
"354 245 LINE"
);
}
);
width = 423;
},
{
associatedMasterId = "3DD6C797-E5ED-486C-89DE-75EDF9B2F8B8";
layerId = "FE34D568-5C3E-4390-B554-D6F3AEBCD865";
name = "Apr 21 19, 20:04";
paths = (
{
closed = 1;
nodes = (
"417 477 LINE",
"488 422 LINE",
"22 550 LINE",
"122 580 LINE",
"59 348 LINE",
"-6 401 LINE",
"449 276 LINE",
"354 245 LINE"
);
},
{
closed = 1;
nodes = (
"290 133 LINE",
"53 195 LINE",
"15 50 LINE",
"252 -14 LINE"
);
},
{
closed = 1;
nodes = (
"176 86 LINE",
"176 392 LINE",
"25 392 LINE",
"25 86 LINE"
);
},
{
closed = 1;
nodes = (
"385 86 LINE",
"385 360 LINE",
"234 360 LINE",
"234 86 LINE"
);
},
{
closed = 1;
nodes = (
"385 -137 LINE",
"385 360 LINE",
"234 360 LINE",
"234 -174 LINE"
);
}
);
width = 600;
},
{
associatedMasterId = "3DD6C797-E5ED-486C-89DE-75EDF9B2F8B8";
layerId = "1841794A-B718-4F7E-8930-77021FC2ADB3";
width = 600;
},
{
layerId = "C1068CC4-E81B-47E6-9D26-F0E70787A68A";
width = 600;
}
);
unicode = 0071;
},
{
glyphname = r;
lastChange = "2019-07-31 03:33:30 +0000";
layers = (
{
layerId = "3DD6C797-E5ED-486C-89DE-75EDF9B2F8B8";
paths = (
{
closed = 1;
nodes = (
"197 85 LINE",
"197 392 LINE",
"46 392 LINE",
"46 85 LINE"
);
},
{
closed = 1;
nodes = (
"230 146 LINE",
"54 194 LINE",
"15 48 LINE",
"191 0 LINE"
);
},
{
closed = 1;
nodes = (
"221 479 LINE",
"273 424 LINE",
"54 484 LINE",
"15 338 LINE",
"234 278 LINE",
"158 247 LINE"
);
},
{
closed = 1;
nodes = (
"340 479 LINE",
"431 424 LINE",
"212 484 LINE",
"173 338 LINE",
"392 278 LINE",
"277 247 LINE"
);
}
);
width = 342;
},
{
associatedMasterId = "3DD6C797-E5ED-486C-89DE-75EDF9B2F8B8";
layerId = "1841794A-B718-4F7E-8930-77021FC2ADB3";
width = 600;
},
{
layerId = "C1068CC4-E81B-47E6-9D26-F0E70787A68A";
width = 600;
}
);
unicode = 0072;
},
{
glyphname = s;
lastChange = "2019-07-31 03:33:30 +0000";
layers = (
{
layerId = "3DD6C797-E5ED-486C-89DE-75EDF9B2F8B8";
paths = (
{
closed = 1;
nodes = (
"234 278 LINE",
"100 471 LINE",
"234 535 LINE",
"-37 307 LINE",
"-24 383 LINE",
"110 191 LINE"
);
},
{
closed = 1;
nodes = (
"315 116 LINE",
"52 188 LINE",
"120 229 LINE",
"5 12 LINE",
"-21 51 LINE",
"176 -2 LINE"
);
},
{
closed = 1;
nodes = (
"269 78 LINE",
"380 170 LINE",
"350 99 LINE",
"364 259 LINE",
"299 352 LINE",
"176 265 LINE",
"317 63 LINE"
);
},
{
closed = 1;
nodes = (
"388 494 LINE",
"191 547 LINE",
"268 564 LINE",
"60 388 LINE",
"51 429 LINE",
"315 357 LINE"
);
}
);
width = 393;
},
{
associatedMasterId = "3DD6C797-E5ED-486C-89DE-75EDF9B2F8B8";
backgroundImage = {
crop = "{{0, 0}, {505, 139}}";
imagePath = "../Dropbox/screenshots/Screenshot 2019-04-18 20.27.25.png";
transform = "{7.391, 0, 0, 7.391, -1595, -236}";
};
layerId = "8D0A0018-48CE-4FF8-A879-73547FDD1C36";
name = "Apr 18 19, 20:56";
paths = (
{
closed = 1;
nodes = (
"270 263 LINE",
"148 409 LINE",
"116 382 LINE",
"33 311 LINE",
"154 166 LINE"
);
},
{
closed = 1;
nodes = (
"476 192 LINE",
"337 358 LINE",
"222 260 LINE",
"360 95 LINE"
);
},
{
closed = 1;
nodes = (
"410 459 LINE",
"256 500 LINE",
"116 382 LINE",
"337 322 LINE"
);
},
{
closed = 1;
nodes = (
"91 39 LINE",
"245 -2 LINE",
"385 116 LINE",
"164 176 LINE"
);
}
);
width = 600;
},
{
associatedMasterId = "3DD6C797-E5ED-486C-89DE-75EDF9B2F8B8";
backgroundImage = {
crop = "{{0, 0}, {505, 139}}";
imagePath = "../Dropbox/screenshots/Screenshot 2019-04-18 20.27.25.png";
transform = "{7.391, 0, 0, 7.391, -1595, -236}";
};
layerId = "276E4788-A7D9-4022-AFFD-C5DBE8ACAB4D";
name = "Apr 18 19, 20:59";
paths = (
{
closed = 1;
nodes = (
"270 263 LINE",
"148 409 LINE",
"116 382 LINE",
"33 311 LINE",
"154 166 LINE"
);
},
{
closed = 1;
nodes = (
"419 144 LINE",
"476 192 LINE",
"419 260 LINE",
"337 358 LINE",
"222 260 LINE",
"360 95 LINE"
);
},
{
closed = 1;
nodes = (
"410 459 LINE",
"256 500 LINE",
"116 382 LINE",
"337 322 LINE"
);
},
{
closed = 1;
nodes = (
"91 39 LINE",
"245 -2 LINE",
"385 116 LINE",
"164 176 LINE"
);
}
);
width = 600;
},
{
associatedMasterId = "3DD6C797-E5ED-486C-89DE-75EDF9B2F8B8";
layerId = "698576C1-8795-4207-9F16-3EA5D69852AB";
name = "Apr 20 19, 19:54";
paths = (
{
closed = 1;
nodes = (
"256 263 LINE",
"134 409 LINE",
"102 382 LINE",
"19 311 LINE",
"140 166 LINE"
);
},
{
closed = 1;
nodes = (
"371 116 LINE",
"107 188 LINE",
"161 229 LINE",
"46 12 LINE",
"34 51 LINE",
"231 -2 LINE"
);
},
{
closed = 1;
nodes = (
"405 144 LINE",
"405 260 LINE",
"332 347 LINE",
"217 249 LINE",
"346 95 LINE"
);
},
{
closed = 1;
nodes = (
"396 459 LINE",
"242 500 LINE",
"102 382 LINE",
"323 322 LINE"
);
}
);
width = 422;
},
{
associatedMasterId = "3DD6C797-E5ED-486C-89DE-75EDF9B2F8B8";
layerId = "D26CA062-B56E-4A66-B3D2-E0C0155032BC";
name = "Apr 20 19, 20:01";
paths = (
{
closed = 1;
nodes = (
"244 278 LINE",
"110 471 LINE",
"244 535 LINE",
"-27 307 LINE",
"-14 383 LINE",
"120 191 LINE"
);
},
{
closed = 1;
nodes = (
"325 116 LINE",
"62 188 LINE",
"130 229 LINE",
"15 12 LINE",
"-11 51 LINE",
"186 -2 LINE"
);
},
{
closed = 1;
nodes = (
"390 170 LINE",
"360 99 LINE",
"374 259 LINE",
"309 352 LINE",
"186 265 LINE",
"327 63 LINE",
"279 78 LINE"
);
},
{
closed = 1;
nodes = (
"398 494 LINE",
"201 547 LINE",
"278 564 LINE",
"70 388 LINE",
"61 429 LINE",
"325 357 LINE"
);
}
);
width = 413;
},
{
associatedMasterId = "3DD6C797-E5ED-486C-89DE-75EDF9B2F8B8";
layerId = "A6EF8AA0-19CF-4D75-8C83-F2C8781D73E4";
name = "Apr 20 19, 20:01";
paths = (
{
closed = 1;
nodes = (
"299 283 LINE",
"165 476 LINE",
"299 540 LINE",
"28 312 LINE",
"41 388 LINE",
"175 196 LINE"
);
},
{
closed = 1;
nodes = (
"370 116 LINE",
"107 188 LINE",
"175 229 LINE",
"60 12 LINE",
"34 51 LINE",
"231 -2 LINE"
);
},
{
closed = 1;
nodes = (
"435 170 LINE",
"405 99 LINE",
"419 259 LINE",
"354 352 LINE",
"231 265 LINE",
"372 63 LINE",
"324 78 LINE"
);
},
{
closed = 1;
nodes = (
"453 499 LINE",
"256 552 LINE",
"333 569 LINE",
"125 393 LINE",
"116 434 LINE",
"380 362 LINE"
);
},
{
closed = 1;
nodes = (
"261 100 LINE",
"269 21 LINE",
"101 260 LINE",
"159 251 LINE",
"-36 112 LINE",
"-20 169 LINE",
"146 -66 LINE",
"64 -39 LINE"
);
}
);
width = 422;
},
{
associatedMasterId = "3DD6C797-E5ED-486C-89DE-75EDF9B2F8B8";
layerId = "3267ECC0-5F5C-4464-A04B-D96FB451BA0D";
name = "Apr 20 19, 20:04";
paths = (
{
closed = 1;
nodes = (
"256 263 LINE",
"134 409 LINE",
"102 382 LINE",
"19 311 LINE",
"140 166 LINE"
);
},
{
closed = 1;
nodes = (
"371 116 LINE",
"107 188 LINE",
"161 229 LINE",
"46 12 LINE",
"34 51 LINE",
"231 -2 LINE"
);
},
{
closed = 1;
nodes = (
"405 144 LINE",
"405 260 LINE",
"332 347 LINE",
"217 249 LINE",
"346 95 LINE"
);
},
{
closed = 1;
nodes = (
"396 459 LINE",
"242 500 LINE",
"102 382 LINE",
"323 322 LINE"
);
}
);
width = 422;
},
{
associatedMasterId = "3DD6C797-E5ED-486C-89DE-75EDF9B2F8B8";
layerId = "1841794A-B718-4F7E-8930-77021FC2ADB3";
width = 600;
},
{
layerId = "C1068CC4-E81B-47E6-9D26-F0E70787A68A";
width = 600;
}
);
unicode = 0073;
},
{
glyphname = t;
lastChange = "2019-07-31 03:33:30 +0000";
layers = (
{
layerId = "3DD6C797-E5ED-486C-89DE-75EDF9B2F8B8";
paths = (
{
closed = 1;
nodes = (
"95 164 LINE",
"134 174 LINE",
"212 174 LINE",
"212 634 LINE",
"61 634 LINE",
"61 164 LINE"
);
},
{
closed = 1;
nodes = (
"245 146 LINE",
"69 194 LINE",
"30 48 LINE",
"206 0 LINE"
);
},
{
closed = 1;
nodes = (
"245 146 LINE",
"69 194 LINE",
"30 48 LINE",
"206 0 LINE"
);
},
{
closed = 1;
nodes = (
"265 602 LINE",
"466 536 LINE",
"-15 581 LINE",
"33 620 LINE",
"11 381 LINE",
"-17 430 LINE",
"453 385 LINE",
"243 362 LINE"
);
}
);
width = 276;
},
{
associatedMasterId = "3DD6C797-E5ED-486C-89DE-75EDF9B2F8B8";
layerId = "66BF953C-56B2-4FC3-996E-ECF050A689C8";
name = "Apr 18 19, 23:35";
paths = (
{
closed = 1;
nodes = (
"92 164 LINE",
"131 174 LINE",
"209 174 LINE",
"209 633 LINE",
"58 674 LINE",
"58 164 LINE"
);
},
{
closed = 1;
nodes = (
"242 146 LINE",
"66 194 LINE",
"27 48 LINE",
"203 0 LINE"
);
},
{
closed = 1;
nodes = (
"242 146 LINE",
"66 194 LINE",
"27 48 LINE",
"203 0 LINE"
);
},
{
closed = 1;
nodes = (
"270 521 LINE",
"51 581 LINE",
"12 435 LINE",
"231 375 LINE"
);
}
);
width = 289;
},
{
associatedMasterId = "3DD6C797-E5ED-486C-89DE-75EDF9B2F8B8";
layerId = "1841794A-B718-4F7E-8930-77021FC2ADB3";
width = 600;
},
{
layerId = "C1068CC4-E81B-47E6-9D26-F0E70787A68A";
width = 600;
}
);
unicode = 0074;
},
{
glyphname = u;
lastChange = "2019-07-31 03:33:30 +0000";
layers = (
{
layerId = "3DD6C797-E5ED-486C-89DE-75EDF9B2F8B8";
paths = (
{
closed = 1;
nodes = (
"273 134 LINE",
"54 194 LINE",
"15 48 LINE",
"234 -12 LINE"
);
},
{
closed = 1;
nodes = (
"199 92 LINE",
"199 415 LINE",
"48 415 LINE",
"48 92 LINE"
);
},
{
closed = 1;
nodes = (
"445 146 LINE",
"269 194 LINE",
"230 48 LINE",
"406 0 LINE"
);
},
{
closed = 1;
nodes = (
"230 452 LINE",
"54 500 LINE",
"15 354 LINE",
"191 306 LINE"
);
},
{
closed = 1;
nodes = (
"414 92 LINE",
"414 415 LINE",
"263 415 LINE",
"263 92 LINE"
);
},
{
closed = 1;
nodes = (
"445 452 LINE",
"269 500 LINE",
"230 354 LINE",
"406 306 LINE"
);
}
);
width = 460;
},
{
associatedMasterId = "3DD6C797-E5ED-486C-89DE-75EDF9B2F8B8";
layerId = "1841794A-B718-4F7E-8930-77021FC2ADB3";
width = 600;
},
{
layerId = "C1068CC4-E81B-47E6-9D26-F0E70787A68A";
width = 600;
}
);
unicode = 0075;
},
{
glyphname = v;
lastChange = "2019-07-31 03:33:30 +0000";
layers = (
{
layerId = "3DD6C797-E5ED-486C-89DE-75EDF9B2F8B8";
paths = (
{
closed = 1;
nodes = (
"390 92 LINE",
"42 257 LINE",
"107 268 LINE",
"16 73 LINE",
"-16 116 LINE",
"232 0 LINE"
);
},
{
closed = 1;
nodes = (
"199 92 LINE",
"199 415 LINE",
"48 415 LINE",
"48 92 LINE"
);
},
{
closed = 1;
nodes = (
"230 452 LINE",
"54 500 LINE",
"15 354 LINE",
"191 306 LINE"
);
},
{
closed = 1;
nodes = (
"316 49 LINE",
"421 110 LINE",
"450 216 LINE",
"391 489 LINE",
"475 381 LINE",
"239 330 LINE",
"239 480 LINE",
"342 0 LINE"
);
},
{
closed = 1;
nodes = (
"445 452 LINE",
"269 500 LINE",
"230 354 LINE",
"406 306 LINE"
);
}
);
width = 465;
},
{
associatedMasterId = "3DD6C797-E5ED-486C-89DE-75EDF9B2F8B8";
layerId = "0B9B7019-9E89-4F81-ABCD-48D2F8DB41E2";
name = "Apr 20 19, 23:47";
paths = (
{
closed = 1;
nodes = (
"199 92 LINE",
"199 415 LINE",
"48 415 LINE",
"48 92 LINE"
);
},
{
closed = 1;
nodes = (
"230 452 LINE",
"54 500 LINE",
"15 354 LINE",
"191 306 LINE"
);
},
{
closed = 1;
nodes = (
"373 106 LINE",
"2 208 LINE",
"64 231 LINE",
"8 22 LINE",
"-31 59 LINE",
"234 -12 LINE"
);
},
{
closed = 1;
nodes = (
"412 139 LINE",
"422 249 LINE",
"357 342 LINE",
"234 255 LINE",
"351 88 LINE"
);
}
);
width = 600;
},
{
associatedMasterId = "3DD6C797-E5ED-486C-89DE-75EDF9B2F8B8";
layerId = "A6DB0B5D-2F3D-4A16-A0BC-2373A76C788E";
name = "Apr 21 19, 00:01";
paths = (
{
closed = 1;
nodes = (
"325 70 LINE",
"77 500 LINE",
"-54 424 LINE",
"195 -6 LINE"
);
},
{
closed = 1;
nodes = (
"500 424 LINE",
"369 500 LINE",
"99 31 LINE",
"188 210 LINE",
"396 88 LINE",
"228 -45 LINE"
);
}
);
width = 465;
},
{
associatedMasterId = "3DD6C797-E5ED-486C-89DE-75EDF9B2F8B8";
layerId = "8AA90CE3-902F-4BC7-8A93-7007E2C65633";
name = "Apr 21 19, 00:02";
paths = (
{
closed = 1;
nodes = (
"199 92 LINE",
"199 415 LINE",
"48 415 LINE",
"48 92 LINE"
);
},
{
closed = 1;
nodes = (
"230 452 LINE",
"54 500 LINE",
"15 354 LINE",
"191 306 LINE"
);
},
{
closed = 1;
nodes = (
"390 92 LINE",
"42 257 LINE",
"107 268 LINE",
"16 73 LINE",
"-16 116 LINE",
"232 0 LINE"
);
},
{
closed = 1;
nodes = (
"391 489 LINE",
"456 459 LINE",
"220 408 LINE",
"239 480 LINE",
"342 0 LINE",
"316 49 LINE",
"421 110 LINE",
"450 216 LINE"
);
}
);
width = 465;
},
{
associatedMasterId = "3DD6C797-E5ED-486C-89DE-75EDF9B2F8B8";
layerId = "CF492D38-2A51-45AB-AC44-2415BE8D7626";
name = "Apr 21 19, 00:06";
paths = (
{
closed = 1;
nodes = (
"390 92 LINE",
"42 257 LINE",
"107 268 LINE",
"16 73 LINE",
"-16 116 LINE",
"232 0 LINE"
);
},
{
closed = 1;
nodes = (
"199 92 LINE",
"199 415 LINE",
"48 415 LINE",
"48 92 LINE"
);
},
{
closed = 1;
nodes = (
"230 452 LINE",
"54 500 LINE",
"15 354 LINE",
"191 306 LINE"
);
},
{
closed = 1;
nodes = (
"316 49 LINE",
"421 110 LINE",
"450 216 LINE",
"391 489 LINE",
"475 381 LINE",
"239 330 LINE",
"239 480 LINE",
"342 0 LINE"
);
},
{
closed = 1;
nodes = (
"445 452 LINE",
"269 500 LINE",
"230 354 LINE",
"406 306 LINE"
);
},
{
closed = 1;
nodes = (
"316 49 LINE",
"421 110 LINE",
"411 73 LINE",
"320 268 LINE",
"375 234 LINE",
"174 117 LINE",
"174 186 LINE",
"409 48 LINE"
);
}
);
width = 465;
},
{
associatedMasterId = "3DD6C797-E5ED-486C-89DE-75EDF9B2F8B8";
layerId = "1841794A-B718-4F7E-8930-77021FC2ADB3";
width = 600;
},
{
layerId = "C1068CC4-E81B-47E6-9D26-F0E70787A68A";
width = 600;
}
);
unicode = 0076;
},
{
glyphname = w;
lastChange = "2019-07-31 03:33:30 +0000";
layers = (
{
layerId = "3DD6C797-E5ED-486C-89DE-75EDF9B2F8B8";
paths = (
{
closed = 1;
nodes = (
"640 146 LINE",
"688 91 LINE",
"269 206 LINE",
"230 60 LINE",
"649 -55 LINE",
"577 -86 LINE"
);
},
{
closed = 1;
nodes = (
"414 107 LINE",
"54 206 LINE",
"15 60 LINE",
"375 -39 LINE"
);
},
{
closed = 1;
nodes = (
"199 104 LINE",
"199 411 LINE",
"48 411 LINE",
"48 104 LINE"
);
},
{
closed = 1;
nodes = (
"232 491 LINE",
"273 436 LINE",
"54 496 LINE",
"15 350 LINE",
"234 290 LINE",
"169 259 LINE"
);
},
{
closed = 1;
nodes = (
"414 104 LINE",
"414 411 LINE",
"263 411 LINE",
"263 104 LINE"
);
},
{
closed = 1;
nodes = (
"447 491 LINE",
"488 436 LINE",
"269 496 LINE",
"230 350 LINE",
"449 290 LINE",
"384 259 LINE"
);
},
{
closed = 1;
nodes = (
"629 107 LINE",
"629 299 LINE",
"478 299 LINE",
"478 107 LINE"
);
},
{
closed = 1;
nodes = (
"629 299 LINE",
"571 642 LINE",
"652 486 LINE",
"416 442 LINE",
"421 615 LINE",
"481 274 LINE"
);
}
);
width = 644;
},
{
associatedMasterId = "3DD6C797-E5ED-486C-89DE-75EDF9B2F8B8";
layerId = "F9DEF52A-379C-4F7D-B400-1FA029E9D90C";
name = "Apr 19 19, 17:19";
paths = (
{
closed = 1;
nodes = (
"235 60 LINE",
"454 0 LINE",
"493 146 LINE",
"274 206 LINE"
);
},
{
closed = 1;
nodes = (
"450 350 LINE",
"626 302 LINE",
"665 448 LINE",
"489 496 LINE"
);
},
{
closed = 1;
nodes = (
"450 350 LINE",
"626 302 LINE",
"665 448 LINE",
"489 496 LINE"
);
},
{
closed = 1;
nodes = (
"483 411 LINE",
"483 104 LINE",
"634 104 LINE",
"634 411 LINE"
);
},
{
closed = 1;
nodes = (
"235 350 LINE",
"411 302 LINE",
"450 448 LINE",
"274 496 LINE"
);
},
{
closed = 1;
nodes = (
"235 350 LINE",
"411 302 LINE",
"450 448 LINE",
"274 496 LINE"
);
},
{
closed = 1;
nodes = (
"450 60 LINE",
"626 12 LINE",
"665 158 LINE",
"489 206 LINE"
);
},
{
closed = 1;
nodes = (
"268 411 LINE",
"268 104 LINE",
"419 104 LINE",
"419 411 LINE"
);
},
{
closed = 1;
nodes = (
"20 60 LINE",
"239 0 LINE",
"278 146 LINE",
"59 206 LINE"
);
},
{
closed = 1;
nodes = (
"20 350 LINE",
"196 302 LINE",
"235 448 LINE",
"59 496 LINE"
);
},
{
closed = 1;
nodes = (
"53 411 LINE",
"53 104 LINE",
"204 104 LINE",
"204 411 LINE"
);
}
);
width = 685;
},
{
associatedMasterId = "3DD6C797-E5ED-486C-89DE-75EDF9B2F8B8";
layerId = "1841794A-B718-4F7E-8930-77021FC2ADB3";
width = 600;
},
{
layerId = "C1068CC4-E81B-47E6-9D26-F0E70787A68A";
width = 600;
}
);
unicode = 0077;
},
{
glyphname = x;
lastChange = "2019-07-31 03:33:30 +0000";
layers = (
{
layerId = "3DD6C797-E5ED-486C-89DE-75EDF9B2F8B8";
paths = (
{
closed = 1;
nodes = (
"142 -16 LINE",
"536 430 LINE",
"553 361 LINE",
"372 520 LINE",
"406 512 LINE",
"41 98 LINE",
"41 107 LINE",
"203 -44 LINE"
);
},
{
closed = 1;
nodes = (
"513 107 LINE",
"513 98 LINE",
"148 512 LINE",
"182 520 LINE",
"1 361 LINE",
"18 430 LINE",
"412 -16 LINE",
"351 -44 LINE"
);
},
{
closed = 1;
nodes = (
"575 82 LINE",
"563 22 LINE",
"460 241 LINE",
"510 219 LINE",
"263 105 LINE",
"306 200 LINE",
"406 -18 LINE",
"327 -32 LINE"
);
},
{
closed = 1;
nodes = (
"47 281 LINE",
"294 395 LINE",
"251 300 LINE",
"151 518 LINE",
"230 532 LINE",
"-18 418 LINE",
"-6 478 LINE",
"97 259 LINE"
);
}
);
width = 557;
},
{
associatedMasterId = "3DD6C797-E5ED-486C-89DE-75EDF9B2F8B8";
layerId = "4DDEC3EF-E55F-4539-B84B-C035EFAD881A";
name = "Apr 20 19, 19:41";
paths = (
{
closed = 1;
nodes = (
"148 -16 LINE",
"542 430 LINE",
"559 361 LINE",
"378 520 LINE",
"412 512 LINE",
"47 98 LINE",
"47 107 LINE",
"209 -44 LINE"
);
},
{
closed = 1;
nodes = (
"519 107 LINE",
"519 98 LINE",
"154 512 LINE",
"188 520 LINE",
"7 361 LINE",
"24 430 LINE",
"418 -16 LINE",
"357 -44 LINE"
);
},
{
closed = 1;
nodes = (
"549 38 LINE",
"509 184 LINE",
"290 126 LINE",
"348 212 LINE",
"409 -20 LINE",
"329 -20 LINE"
);
},
{
closed = 1;
nodes = (
"160 520 LINE",
"240 520 LINE",
"20 462 LINE",
"60 316 LINE",
"279 374 LINE",
"221 288 LINE"
);
}
);
width = 569;
},
{
associatedMasterId = "3DD6C797-E5ED-486C-89DE-75EDF9B2F8B8";
layerId = "1841794A-B718-4F7E-8930-77021FC2ADB3";
width = 600;
},
{
layerId = "C1068CC4-E81B-47E6-9D26-F0E70787A68A";
width = 600;
}
);
unicode = 0078;
},
{
glyphname = y;
lastChange = "2019-07-31 03:33:30 +0000";
layers = (
{
layerId = "3DD6C797-E5ED-486C-89DE-75EDF9B2F8B8";
paths = (
{
closed = 1;
nodes = (
"423 -53 LINE",
"466 -100 LINE",
"38 11 LINE",
"114 44 LINE",
"54 -189 LINE",
"1 -133 LINE",
"475 -262 LINE",
"363 -288 LINE"
);
},
{
closed = 1;
nodes = (
"281 177 LINE",
"355 122 LINE",
"-97 239 LINE",
"62 239 LINE",
"2 6 LINE",
"-116 91 LINE",
"316 -26 LINE",
"221 -58 LINE"
);
},
{
closed = 1;
nodes = (
"199 92 LINE",
"199 415 LINE",
"48 415 LINE",
"48 92 LINE"
);
},
{
closed = 1;
nodes = (
"414 -87 LINE",
"414 360 LINE",
"263 360 LINE",
"263 -87 LINE"
);
},
{
closed = 1;
nodes = (
"230 452 LINE",
"54 500 LINE",
"15 354 LINE",
"191 306 LINE"
);
},
{
closed = 1;
nodes = (
"445 452 LINE",
"269 500 LINE",
"230 354 LINE",
"406 306 LINE"
);
}
);
width = 460;
},
{
associatedMasterId = "3DD6C797-E5ED-486C-89DE-75EDF9B2F8B8";
layerId = "1841794A-B718-4F7E-8930-77021FC2ADB3";
width = 600;
},
{
layerId = "C1068CC4-E81B-47E6-9D26-F0E70787A68A";
width = 600;
}
);
unicode = 0079;
},
{
glyphname = z;
lastChange = "2019-07-31 03:33:30 +0000";
layers = (
{
layerId = "3DD6C797-E5ED-486C-89DE-75EDF9B2F8B8";
paths = (
{
closed = 1;
nodes = (
"191 96 LINE",
"511 446 LINE",
"434 264 LINE",
"255 425 LINE",
"398 546 LINE",
"46 161 LINE",
"49 174 LINE",
"209 21 LINE"
);
},
{
closed = 1;
nodes = (
"427 147 LINE",
"54 169 LINE",
"46 18 LINE",
"419 -4 LINE"
);
},
{
closed = 1;
nodes = (
"468 177 LINE",
"530 122 LINE",
"311 182 LINE",
"272 36 LINE",
"491 -24 LINE",
"405 -55 LINE"
);
},
{
closed = 1;
nodes = (
"211 495 LINE",
"273 440 LINE",
"54 500 LINE",
"15 354 LINE",
"234 294 LINE",
"148 263 LINE"
);
},
{
closed = 1;
nodes = (
"427 478 LINE",
"54 500 LINE",
"46 349 LINE",
"419 327 LINE"
);
}
);
width = 473;
},
{
associatedMasterId = "3DD6C797-E5ED-486C-89DE-75EDF9B2F8B8";
layerId = "1841794A-B718-4F7E-8930-77021FC2ADB3";
width = 600;
},
{
layerId = "C1068CC4-E81B-47E6-9D26-F0E70787A68A";
width = 600;
}
);
unicode = 007A;
},
{
glyphname = "hamza-ar";
lastChange = "2019-07-31 03:33:30 +0000";
layers = (
{
anchors = (
{
name = bottom;
position = "{224, -50}";
},
{
name = top;
position = "{224, 500}";
}
);
layerId = "3DD6C797-E5ED-486C-89DE-75EDF9B2F8B8";
paths = (
{
closed = 1;
nodes = (
"398 209 LINE",
"441 152 LINE",
"47 382 LINE",
"117 387 LINE",
"-9 187 LINE",
"-38 257 LINE",
"350 30 LINE",
"275 3 LINE"
);
},
{
closed = 1;
nodes = (
"-135 0 LINE",
"480 0 LINE",
"441 -51 LINE",
"400 187 LINE",
"463 151 LINE",
"-152 151 LINE",
"10 196 LINE",
"51 -43 LINE"
);
},
{
closed = 1;
nodes = (
"404 427 LINE",
"500 388 LINE",
"177 477 LINE",
"81 328 LINE",
"37 359 LINE",
"413 254 LINE",
"287 210 LINE"
);
}
);
width = 447;
},
{
associatedMasterId = "3DD6C797-E5ED-486C-89DE-75EDF9B2F8B8";
layerId = "1841794A-B718-4F7E-8930-77021FC2ADB3";
width = 600;
},
{
layerId = "C1068CC4-E81B-47E6-9D26-F0E70787A68A";
width = 600;
}
);
unicode = 0621;
},
{
glyphname = "alef-ar";
lastChange = "2019-07-31 03:33:30 +0000";
layers = (
{
anchors = (
{
name = bottom;
position = "{112, -40}";
},
{
name = top;
position = "{56, 669}";
}
);
layerId = "3DD6C797-E5ED-486C-89DE-75EDF9B2F8B8";
paths = (
{
closed = 1;
nodes = (
"179 39 LINE",
"179 620 LINE",
"28 620 LINE",
"28 -3 LINE"
);
},
{
closed = 1;
nodes = (
"204 528 LINE",
"165 674 LINE",
"-11 626 LINE",
"28 480 LINE"
);
}
);
width = 219;
},
{
associatedMasterId = "3DD6C797-E5ED-486C-89DE-75EDF9B2F8B8";
layerId = "1841794A-B718-4F7E-8930-77021FC2ADB3";
width = 600;
},
{
layerId = "C1068CC4-E81B-47E6-9D26-F0E70787A68A";
width = 600;
}
);
unicode = 0627;
},
{
glyphname = "alef-ar.fina";
lastChange = "2019-07-31 03:33:30 +0000";
layers = (
{
anchors = (
{
name = bottom;
position = "{120, -40}";
},
{
name = top;
position = "{78, 615}";
}
);
layerId = "3DD6C797-E5ED-486C-89DE-75EDF9B2F8B8";
paths = (
{
closed = 1;
nodes = (
"187 86 LINE",
"187 620 LINE",
"36 579 LINE",
"36 86 LINE"
);
},
{
closed = 1;
nodes = (
"-20 -15 LINE",
"214 49 LINE",
"175 195 LINE",
"-59 131 LINE",
"-2 194 LINE",
"61 -38 LINE"
);
}
);
width = 187;
},
{
associatedMasterId = "3DD6C797-E5ED-486C-89DE-75EDF9B2F8B8";
layerId = "1841794A-B718-4F7E-8930-77021FC2ADB3";
width = 600;
},
{
layerId = "C1068CC4-E81B-47E6-9D26-F0E70787A68A";
width = 600;
}
);
unicode = FE8E;
},
{
glyphname = "alef-ar.short";
lastChange = "2019-07-31 03:33:30 +0000";
layers = (
{
anchors = (
{
name = bottom;
position = "{112, -50}";
},
{
name = top;
position = "{59, 584}";
}
);
layerId = "3DD6C797-E5ED-486C-89DE-75EDF9B2F8B8";
paths = (
{
closed = 1;
nodes = (
"179 39 LINE",
"179 535 LINE",
"28 535 LINE",
"28 -3 LINE"
);
},
{
closed = 1;
nodes = (
"204 443 LINE",
"165 589 LINE",
"-11 541 LINE",
"28 395 LINE"
);
}
);
width = 224;
},
{
associatedMasterId = "3DD6C797-E5ED-486C-89DE-75EDF9B2F8B8";
components = (
{
name = "alef-ar";
}
);
layerId = "0006F49A-3549-441F-B218-20A1B6FD8B6A";
name = "Apr 24 19, 20:06";
width = 219;
},
{
associatedMasterId = "3DD6C797-E5ED-486C-89DE-75EDF9B2F8B8";
layerId = "1841794A-B718-4F7E-8930-77021FC2ADB3";
width = 600;
},
{
layerId = "C1068CC4-E81B-47E6-9D26-F0E70787A68A";
width = 600;
}
);
},
{
glyphname = "alef-ar.fina.short";
lastChange = "2019-07-31 03:33:30 +0000";
layers = (
{
anchors = (
{
name = bottom;
position = "{120, -50}";
},
{
name = top;
position = "{95, 583}";
}
);
layerId = "3DD6C797-E5ED-486C-89DE-75EDF9B2F8B8";
paths = (
{
closed = 1;
nodes = (
"187 86 LINE",
"187 595 LINE",
"36 554 LINE",
"36 86 LINE"
);
},
{
closed = 1;
nodes = (
"-20 -15 LINE",
"214 49 LINE",
"175 195 LINE",
"-59 131 LINE",
"-2 194 LINE",
"61 -38 LINE"
);
}
);
width = 187;
},
{
associatedMasterId = "3DD6C797-E5ED-486C-89DE-75EDF9B2F8B8";
layerId = "1841794A-B718-4F7E-8930-77021FC2ADB3";
width = 600;
},
{
layerId = "C1068CC4-E81B-47E6-9D26-F0E70787A68A";
width = 600;
}
);
},
{
glyphname = "behDotless-ar";
lastChange = "2019-07-31 03:33:30 +0000";
layers = (
{
anchors = (
{
name = bottom;
position = "{568, -13}";
},
{
name = ring;
position = "{565, 0}";
},
{
name = top;
position = "{208, 283}";
}
);
layerId = "3DD6C797-E5ED-486C-89DE-75EDF9B2F8B8";
paths = (
{
closed = 1;
nodes = (
"152 -3 LINE",
"701 49 LINE",
"657 -6 LINE",
"635 234 LINE",
"669 197 LINE",
"139 148 LINE",
"169 199 LINE",
"191 -41 LINE"
);
},
{
closed = 1;
nodes = (
"240 206 LINE",
"334 119 LINE",
"53 192 LINE",
"15 47 LINE",
"295 -29 LINE",
"180 -29 LINE"
);
},
{
closed = 1;
nodes = (
"648 86 LINE",
"648 392 LINE",
"497 351 LINE",
"497 86 LINE"
);
}
);
width = 667;
},
{
anchors = (
{
name = bottom;
position = "{583, 0}";
},
{
name = ring;
position = "{571, 0}";
},
{
name = top;
position = "{285, 340}";
}
);
associatedMasterId = "3DD6C797-E5ED-486C-89DE-75EDF9B2F8B8";
layerId = "43C74CD3-A2F7-42EE-90F1-4ADA9E7D2BA8";
name = "Apr 19 19, 03:13";
paths = (
{
closed = 1;
nodes = (
"654 392 LINE",
"503 392 LINE",
"503 86 LINE",
"654 86 LINE"
);
},
{
closed = 1;
nodes = (
"707 51 LINE",
"663 -4 LINE",
"641 236 LINE",
"675 199 LINE",
"145 150 LINE",
"175 201 LINE",
"197 -39 LINE",
"158 -1 LINE"
);
},
{
closed = 1;
nodes = (
"246 208 LINE",
"340 121 LINE",
"59 194 LINE",
"21 49 LINE",
"301 -27 LINE",
"186 -27 LINE"
);
}
);
width = 678;
},
{
anchors = (
{
name = bottom;
position = "{583, 0}";
},
{
name = ring;
position = "{571, 0}";
},
{
name = top;
position = "{285, 340}";
}
);
associatedMasterId = "3DD6C797-E5ED-486C-89DE-75EDF9B2F8B8";
layerId = "95DC21DB-D9EF-40B0-B8A0-A9264B7ACC2B";
name = "Apr 19 19, 03:14";
paths = (
{
closed = 1;
nodes = (
"654 392 LINE",
"503 392 LINE",
"503 86 LINE",
"654 86 LINE"
);
},
{
closed = 1;
nodes = (
"246 208 LINE",
"340 121 LINE",
"59 194 LINE",
"21 49 LINE",
"301 -27 LINE",
"186 -27 LINE"
);
},
{
closed = 1;
nodes = (
"665 49 LINE",
"626 195 LINE",
"107 53 LINE",
"124 131 LINE",
"187 -101 LINE",
"151 -92 LINE"
);
},
{
closed = 1;
nodes = (
"654 392 LINE",
"503 392 LINE",
"503 86 LINE",
"654 86 LINE"
);
}
);
width = 678;
},
{
anchors = (
{
name = bottom;
position = "{583, 0}";
},
{
name = ring;
position = "{571, 0}";
},
{
name = top;
position = "{214, 283}";
}
);
associatedMasterId = "3DD6C797-E5ED-486C-89DE-75EDF9B2F8B8";
layerId = "9F2DB598-4727-4082-B6F0-AC12E2BBAEA2";
name = "Apr 19 19, 22:47";
paths = (
{
closed = 1;
nodes = (
"158 -3 LINE",
"707 49 LINE",
"690 14 LINE",
"633 230 LINE",
"675 197 LINE",
"145 148 LINE",
"175 199 LINE",
"197 -41 LINE"
);
},
{
closed = 1;
nodes = (
"246 206 LINE",
"340 119 LINE",
"59 192 LINE",
"21 47 LINE",
"301 -29 LINE",
"186 -29 LINE"
);
},
{
closed = 1;
nodes = (
"654 86 LINE",
"654 392 LINE",
"503 351 LINE",
"503 86 LINE"
);
},
{
closed = 1;
nodes = (
"654 86 LINE",
"654 392 LINE",
"503 351 LINE",
"503 86 LINE"
);
}
);
width = 678;
},
{
associatedMasterId = "3DD6C797-E5ED-486C-89DE-75EDF9B2F8B8";
layerId = "1841794A-B718-4F7E-8930-77021FC2ADB3";
width = 600;
},
{
layerId = "C1068CC4-E81B-47E6-9D26-F0E70787A68A";
width = 600;
}
);
unicode = 066E;
},
{
glyphname = "behDotless-ar.medi";
lastChange = "2019-07-31 03:33:30 +0000";
layers = (
{
anchors = (
{
name = bottom;
position = "{115, -13}";
},
{
name = ring;
position = "{114, 0}";
},
{
name = top;
position = "{110, 404}";
}
);
layerId = "3DD6C797-E5ED-486C-89DE-75EDF9B2F8B8";
paths = (
{
closed = 1;
nodes = (
"-10 -15 LINE",
"224 49 LINE",
"185 195 LINE",
"-49 131 LINE",
"-34 186 LINE",
"29 -46 LINE"
);
},
{
closed = 1;
nodes = (
"197 86 LINE",
"197 392 LINE",
"46 351 LINE",
"46 86 LINE"
);
}
);
width = 197;
},
{
associatedMasterId = "3DD6C797-E5ED-486C-89DE-75EDF9B2F8B8";
layerId = "1841794A-B718-4F7E-8930-77021FC2ADB3";
width = 600;
},
{
layerId = "C1068CC4-E81B-47E6-9D26-F0E70787A68A";
width = 600;
}
);
},
{
glyphname = "behDotless-ar.init";
lastChange = "2019-07-31 03:33:30 +0000";
layers = (
{
anchors = (
{
name = bottom;
position = "{121, -13}";
},
{
name = ring;
position = "{115, 0}";
},
{
name = top;
position = "{111, 404}";
}
);
layerId = "3DD6C797-E5ED-486C-89DE-75EDF9B2F8B8";
paths = (
{
closed = 1;
nodes = (
"198 86 LINE",
"198 392 LINE",
"47 351 LINE",
"47 86 LINE"
);
},
{
closed = 1;
nodes = (
"209 49 LINE",
"170 195 LINE",
"-21 143 LINE",
"18 -3 LINE"
);
}
);
width = 224;
},
{
associatedMasterId = "3DD6C797-E5ED-486C-89DE-75EDF9B2F8B8";
layerId = "1841794A-B718-4F7E-8930-77021FC2ADB3";
width = 600;
},
{
layerId = "C1068CC4-E81B-47E6-9D26-F0E70787A68A";
width = 600;
}
);
},
{
glyphname = "teh-ar";
lastChange = "2019-07-31 03:33:30 +0000";
layers = (
{
components = (
{
name = "behDotless-ar";
},
{
name = "twodotshorizontalabove-ar";
transform = "{1, 0, 0, 1, 57, -217}";
}
);
layerId = "3DD6C797-E5ED-486C-89DE-75EDF9B2F8B8";
width = 667;
},
{
anchors = (
{
name = _top;
position = "{285, 340}";
},
{
name = top;
position = "{285, 500}";
}
);
associatedMasterId = "3DD6C797-E5ED-486C-89DE-75EDF9B2F8B8";
components = (
{
name = "behDotless-ar";
}
);
layerId = "3E08FFA3-AB95-4E38-B958-D229DC742E07";
name = "Apr 19 19, 03:42";
paths = (
{
closed = 1;
nodes = (
"274 340 LINE",
"493 400 LINE",
"421 344 LINE",
"380 504 LINE",
"474 472 LINE",
"255 412 LINE"
);
},
{
closed = 1;
nodes = (
"190 296 LINE",
"96 328 LINE",
"315 388 LINE",
"296 460 LINE",
"77 400 LINE",
"149 456 LINE"
);
}
);
width = 678;
},
{
associatedMasterId = "3DD6C797-E5ED-486C-89DE-75EDF9B2F8B8";
layerId = "1841794A-B718-4F7E-8930-77021FC2ADB3";
width = 600;
},
{
layerId = "C1068CC4-E81B-47E6-9D26-F0E70787A68A";
width = 600;
}
);
unicode = 062A;
},
{
glyphname = "hah-ar";
lastChange = "2019-07-31 03:33:30 +0000";
layers = (
{
anchors = (
{
name = bottom;
position = "{304, -234}";
},
{
name = center;
position = "{426, -56}";
},
{
name = top;
position = "{441, 386}";
}
);
layerId = "3DD6C797-E5ED-486C-89DE-75EDF9B2F8B8";
paths = (
{
closed = 1;
nodes = (
"-35 -4 LINE",
"578 54 LINE",
"568 5 LINE",
"505 239 LINE",
"546 202 LINE",
"-66 145 LINE",
"4 195 LINE",
"67 -39 LINE"
);
},
{
closed = 1;
nodes = (
"106 -175 LINE",
"306 -38 LINE",
"345 -147 LINE",
"178 91 LINE",
"55 5 LINE",
"220 -234 LINE"
);
},
{
closed = 1;
nodes = (
"533 385 LINE",
"545 334 LINE",
"64 379 LINE",
"112 418 LINE",
"90 179 LINE",
"62 228 LINE",
"532 183 LINE",
"511 145 LINE"
);
}
);
width = 570;
},
{
anchors = (
{
name = bottom;
position = "{300, -256}";
},
{
name = center;
position = "{471, -56}";
},
{
name = top;
position = "{437, 386}";
}
);
associatedMasterId = "3DD6C797-E5ED-486C-89DE-75EDF9B2F8B8";
layerId = "A4B79D35-C362-4566-9080-03FD0E751582";
name = "Apr 19 19, 21:00";
paths = (
{
closed = 1;
nodes = (
"529 385 LINE",
"541 334 LINE",
"60 379 LINE",
"108 418 LINE",
"86 179 LINE",
"58 228 LINE",
"528 183 LINE",
"507 145 LINE"
);
},
{
closed = 1;
nodes = (
"-39 -4 LINE",
"574 54 LINE",
"530 -1 LINE",
"508 239 LINE",
"542 202 LINE",
"-70 145 LINE",
"41 201 LINE",
"63 -39 LINE"
);
},
{
closed = 1;
nodes = (
"367 38 LINE",
"498 -13 LINE",
"17 32 LINE",
"65 71 LINE",
"43 -168 LINE",
"15 -119 LINE",
"485 -164 LINE",
"345 -202 LINE"
);
}
);
width = 545;
},
{
anchors = (
{
name = bottom;
position = "{300, -256}";
},
{
name = center;
position = "{437, -56}";
},
{
name = top;
position = "{437, 386}";
}
);
associatedMasterId = "3DD6C797-E5ED-486C-89DE-75EDF9B2F8B8";
layerId = "338FD917-4706-461E-A55F-8D9EFCD2B673";
name = "Apr 19 19, 21:00";
paths = (
{
closed = 1;
nodes = (
"529 385 LINE",
"541 334 LINE",
"60 379 LINE",
"108 418 LINE",
"86 179 LINE",
"58 228 LINE",
"528 183 LINE",
"507 145 LINE"
);
},
{
closed = 1;
nodes = (
"-39 -4 LINE",
"574 54 LINE",
"530 -1 LINE",
"508 239 LINE",
"542 202 LINE",
"-70 145 LINE",
"41 201 LINE",
"63 -39 LINE"
);
},
{
closed = 1;
nodes = (
"331 -5 LINE",
"336 -61 LINE",
"76 61 LINE",
"100 89 LINE",
"-3 -129 LINE",
"12 -76 LINE",
"272 -198 LINE",
"228 -222 LINE"
);
}
);
width = 545;
},
{
anchors = (
{
name = bottom;
position = "{290, -256}";
},
{
name = center;
position = "{461, -56}";
},
{
name = top;
position = "{427, 386}";
}
);
associatedMasterId = "3DD6C797-E5ED-486C-89DE-75EDF9B2F8B8";
layerId = "2C7002C6-4828-4586-8B21-AB36C960718B";
name = "Apr 19 19, 21:03";
paths = (
{
closed = 1;
nodes = (
"519 385 LINE",
"531 334 LINE",
"50 379 LINE",
"98 418 LINE",
"76 179 LINE",
"48 228 LINE",
"518 183 LINE",
"497 145 LINE"
);
},
{
closed = 1;
nodes = (
"-49 -4 LINE",
"564 54 LINE",
"520 -1 LINE",
"498 239 LINE",
"532 202 LINE",
"-80 145 LINE",
"31 201 LINE",
"53 -39 LINE"
);
},
{
closed = 1;
nodes = (
"357 38 LINE",
"488 -13 LINE",
"7 32 LINE",
"55 71 LINE",
"33 -168 LINE",
"5 -119 LINE",
"475 -164 LINE",
"335 -202 LINE"
);
}
);
width = 555;
},
{
associatedMasterId = "3DD6C797-E5ED-486C-89DE-75EDF9B2F8B8";
layerId = "1841794A-B718-4F7E-8930-77021FC2ADB3";
width = 600;
},
{
layerId = "C1068CC4-E81B-47E6-9D26-F0E70787A68A";
width = 600;
}
);
unicode = 062D;
},
{
glyphname = "hah-ar.init";
lastChange = "2019-07-31 03:33:30 +0000";
layers = (
{
anchors = (
{
name = bottom;
position = "{383, 0}";
},
{
name = top;
position = "{392, 386}";
}
);
layerId = "3DD6C797-E5ED-486C-89DE-75EDF9B2F8B8";
paths = (
{
closed = 1;
nodes = (
"-62 -8 LINE",
"551 50 LINE",
"526 1 LINE",
"463 235 LINE",
"519 198 LINE",
"-93 141 LINE",
"-32 190 LINE",
"30 -43 LINE"
);
},
{
closed = 1;
nodes = (
"491 381 LINE",
"503 330 LINE",
"22 375 LINE",
"70 414 LINE",
"48 175 LINE",
"20 224 LINE",
"490 179 LINE",
"469 141 LINE"
);
}
);
width = 529;
},
{
anchors = (
{
name = bottom;
position = "{377, 0}";
},
{
name = top;
position = "{386, 386}";
}
);
associatedMasterId = "3DD6C797-E5ED-486C-89DE-75EDF9B2F8B8";
layerId = "43F479E7-C892-482C-A05D-DBB5D7D12008";
name = "Apr 19 19, 22:48";
paths = (
{
closed = 1;
nodes = (
"-90 -4 LINE",
"523 54 LINE",
"498 49 LINE",
"457 239 LINE",
"491 202 LINE",
"-121 145 LINE",
"-20 201 LINE",
"2 -39 LINE"
);
},
{
closed = 1;
nodes = (
"482 385 LINE",
"490 334 LINE",
"9 379 LINE",
"57 418 LINE",
"35 179 LINE",
"7 228 LINE",
"477 183 LINE",
"460 145 LINE"
);
}
);
width = 494;
},
{
anchors = (
{
name = bottom;
position = "{377, 0}";
},
{
name = top;
position = "{386, 386}";
}
);
associatedMasterId = "3DD6C797-E5ED-486C-89DE-75EDF9B2F8B8";
layerId = "73066479-9EF1-4C16-9FC5-DD37E4B97AAD";
name = "Apr 24 19, 00:06";
paths = (
{
closed = 1;
nodes = (
"-90 -4 LINE",
"523 54 LINE",
"479 -1 LINE",
"457 239 LINE",
"491 202 LINE",
"-121 145 LINE",
"-20 201 LINE",
"2 -39 LINE"
);
},
{
closed = 1;
nodes = (
"478 385 LINE",
"490 334 LINE",
"9 379 LINE",
"57 418 LINE",
"35 179 LINE",
"7 228 LINE",
"477 183 LINE",
"456 145 LINE"
);
}
);
width = 494;
},
{
associatedMasterId = "3DD6C797-E5ED-486C-89DE-75EDF9B2F8B8";
layerId = "1841794A-B718-4F7E-8930-77021FC2ADB3";
width = 600;
},
{
layerId = "C1068CC4-E81B-47E6-9D26-F0E70787A68A";
width = 600;
}
);
unicode = FEA3;
},
{
glyphname = "dal-ar";
lastChange = "2019-07-31 03:33:30 +0000";
layers = (
{
anchors = (
{
name = bottom;
position = "{186, -50}";
},
{
name = top;
position = "{264, 386}";
}
);
layerId = "3DD6C797-E5ED-486C-89DE-75EDF9B2F8B8";
paths = (
{
closed = 1;
nodes = (
"-148 -3 LINE",
"401 49 LINE",
"357 -6 LINE",
"335 234 LINE",
"369 197 LINE",
"-161 148 LINE",
"17 199 LINE",
"39 -41 LINE"
);
},
{
closed = 1;
nodes = (
"348 86 LINE",
"348 392 LINE",
"197 351 LINE",
"197 86 LINE"
);
}
);
width = 372;
},
{
associatedMasterId = "3DD6C797-E5ED-486C-89DE-75EDF9B2F8B8";
layerId = "1841794A-B718-4F7E-8930-77021FC2ADB3";
width = 600;
},
{
layerId = "C1068CC4-E81B-47E6-9D26-F0E70787A68A";
width = 600;
}
);
unicode = 062F;
},
{
glyphname = "reh-ar";
lastChange = "2019-07-31 03:33:30 +0000";
layers = (
{
anchors = (
{
name = bottom;
position = "{69, -220}";
},
{
name = top;
position = "{79, 404}";
}
);
layerId = "3DD6C797-E5ED-486C-89DE-75EDF9B2F8B8";
paths = (
{
closed = 1;
nodes = (
"166 -146 LINE",
"166 392 LINE",
"15 351 LINE",
"15 -187 LINE"
);
}
);
width = 181;
},
{
anchors = (
{
name = bottom;
position = "{139, -200}";
},
{
name = top;
position = "{152, 386}";
}
);
associatedMasterId = "3DD6C797-E5ED-486C-89DE-75EDF9B2F8B8";
layerId = "6889C7DE-C9EF-4371-B02C-30BABAD12EBE";
name = "Apr 25 19, 15:09";
paths = (
{
closed = 1;
nodes = (
"236 -123 LINE",
"236 392 LINE",
"85 351 LINE",
"85 -123 LINE"
);
},
{
closed = 1;
nodes = (
"29 -194 LINE",
"263 -130 LINE",
"224 16 LINE",
"-10 -48 LINE",
"6 -7 LINE",
"69 -239 LINE"
);
}
);
width = 278;
},
{
associatedMasterId = "3DD6C797-E5ED-486C-89DE-75EDF9B2F8B8";
layerId = "1841794A-B718-4F7E-8930-77021FC2ADB3";
width = 600;
},
{
layerId = "C1068CC4-E81B-47E6-9D26-F0E70787A68A";
width = 600;
}
);
unicode = 0631;
},
{
glyphname = "seen-ar";
lastChange = "2019-07-31 03:33:30 +0000";
layers = (
{
anchors = (
{
name = bottom;
position = "{716, -60}";
},
{
name = top;
position = "{603, 380}";
}
);
layerId = "3DD6C797-E5ED-486C-89DE-75EDF9B2F8B8";
paths = (
{
closed = 1;
nodes = (
"137 -136 LINE",
"686 -84 LINE",
"506 -139 LINE",
"484 101 LINE",
"654 64 LINE",
"124 15 LINE",
"174 66 LINE",
"196 -174 LINE"
);
},
{
closed = 1;
nodes = (
"245 75 LINE",
"339 -12 LINE",
"58 61 LINE",
"20 -84 LINE",
"300 -160 LINE",
"185 -160 LINE"
);
},
{
closed = 1;
nodes = (
"500 50 LINE",
"497 64 LINE",
"485 63 LINE",
"478 48 LINE"
);
},
{
closed = 1;
nodes = (
"489 11 LINE",
"489 292 LINE",
"338 251 LINE",
"338 11 LINE"
);
},
{
closed = 1;
nodes = (
"697 49 LINE",
"658 195 LINE",
"467 143 LINE",
"506 -3 LINE"
);
},
{
closed = 1;
nodes = (
"686 86 LINE",
"686 342 LINE",
"535 301 LINE",
"535 86 LINE"
);
},
{
closed = 1;
nodes = (
"894 49 LINE",
"855 195 LINE",
"664 143 LINE",
"703 -3 LINE"
);
},
{
closed = 1;
nodes = (
"883 86 LINE",
"883 392 LINE",
"732 351 LINE",
"732 86 LINE"
);
}
);
width = 914;
},
{
associatedMasterId = "3DD6C797-E5ED-486C-89DE-75EDF9B2F8B8";
layerId = "1841794A-B718-4F7E-8930-77021FC2ADB3";
width = 600;
},
{
layerId = "C1068CC4-E81B-47E6-9D26-F0E70787A68A";
width = 600;
}
);
unicode = 0633;
},
{
glyphname = "seen-ar.init";
lastChange = "2019-07-31 03:33:30 +0000";
layers = (
{
anchors = (
{
name = bottom;
position = "{311, -60}";
},
{
name = top;
position = "{311, 380}";
}
);
layerId = "3DD6C797-E5ED-486C-89DE-75EDF9B2F8B8";
paths = (
{
closed = 1;
nodes = (
"591 86 LINE",
"591 392 LINE",
"440 351 LINE",
"440 86 LINE"
);
},
{
closed = 1;
nodes = (
"208 49 LINE",
"169 195 LINE",
"-22 143 LINE",
"17 -3 LINE"
);
},
{
closed = 1;
nodes = (
"197 86 LINE",
"197 292 LINE",
"46 251 LINE",
"46 86 LINE"
);
},
{
closed = 1;
nodes = (
"405 49 LINE",
"366 195 LINE",
"175 143 LINE",
"214 -3 LINE"
);
},
{
closed = 1;
nodes = (
"394 86 LINE",
"394 342 LINE",
"243 301 LINE",
"243 86 LINE"
);
},
{
closed = 1;
nodes = (
"602 49 LINE",
"563 195 LINE",
"372 143 LINE",
"411 -3 LINE"
);
}
);
width = 622;
},
{
associatedMasterId = "3DD6C797-E5ED-486C-89DE-75EDF9B2F8B8";
layerId = "1841794A-B718-4F7E-8930-77021FC2ADB3";
width = 600;
},
{
layerId = "C1068CC4-E81B-47E6-9D26-F0E70787A68A";
width = 600;
}
);
unicode = FEB3;
},
{
glyphname = "sad-ar";
lastChange = "2019-07-31 03:33:30 +0000";
layers = (
{
anchors = (
{
name = bottom;
position = "{898, 0}";
},
{
name = top;
position = "{812, 386}";
}
);
layerId = "3DD6C797-E5ED-486C-89DE-75EDF9B2F8B8";
paths = (
{
closed = 1;
nodes = (
"285 -18 LINE",
"1049 54 LINE",
"1034 5 LINE",
"971 239 LINE",
"1017 202 LINE",
"270 132 LINE",
"462 162 LINE",
"513 -31 LINE"
);
},
{
closed = 1;
nodes = (
"240 75 LINE",
"334 -12 LINE",
"53 61 LINE",
"15 -84 LINE",
"295 -160 LINE",
"180 -160 LINE"
);
},
{
closed = 1;
nodes = (
"132 -136 LINE",
"681 -84 LINE",
"501 -139 LINE",
"479 101 LINE",
"649 64 LINE",
"119 15 LINE",
"169 66 LINE",
"191 -174 LINE"
);
},
{
closed = 1;
nodes = (
"495 50 LINE",
"495 81 LINE",
"472 83 LINE",
"473 48 LINE"
);
},
{
closed = 1;
nodes = (
"484 26 LINE",
"484 332 LINE",
"333 291 LINE",
"333 26 LINE"
);
},
{
closed = 1;
nodes = (
"672 86 LINE",
"672 274 LINE",
"521 229 LINE",
"521 86 LINE"
);
},
{
closed = 1;
nodes = (
"999 385 LINE",
"1011 334 LINE",
"530 379 LINE",
"538 418 LINE",
"516 179 LINE",
"498 231 LINE",
"998 183 LINE",
"977 145 LINE"
);
}
);
width = 1037;
},
{
associatedMasterId = "3DD6C797-E5ED-486C-89DE-75EDF9B2F8B8";
layerId = "1841794A-B718-4F7E-8930-77021FC2ADB3";
width = 600;
},
{
layerId = "C1068CC4-E81B-47E6-9D26-F0E70787A68A";
width = 600;
}
);
unicode = 0635;
},
{
glyphname = "sad-ar.init";
lastChange = "2019-07-31 03:33:30 +0000";
layers = (
{
anchors = (
{
name = bottom;
position = "{609, 0}";
},
{
name = top;
position = "{523, 386}";
}
);
layerId = "3DD6C797-E5ED-486C-89DE-75EDF9B2F8B8";
paths = (
{
closed = 1;
nodes = (
"-9 -18 LINE",
"755 54 LINE",
"745 5 LINE",
"682 239 LINE",
"723 202 LINE",
"-24 132 LINE",
"-23 139 LINE",
"22 -31 LINE"
);
},
{
closed = 1;
nodes = (
"195 86 LINE",
"195 332 LINE",
"44 291 LINE",
"44 86 LINE"
);
},
{
closed = 1;
nodes = (
"383 86 LINE",
"383 274 LINE",
"232 229 LINE",
"232 86 LINE"
);
},
{
closed = 1;
nodes = (
"710 385 LINE",
"722 334 LINE",
"241 379 LINE",
"249 418 LINE",
"227 179 LINE",
"209 231 LINE",
"709 183 LINE",
"688 145 LINE"
);
}
);
width = 747;
},
{
anchors = (
{
name = bottom;
position = "{611, 0}";
},
{
name = top;
position = "{525, 386}";
}
);
associatedMasterId = "3DD6C797-E5ED-486C-89DE-75EDF9B2F8B8";
layerId = "5B6A234B-C9EC-4D38-9FF2-623293624641";
name = "Apr 24 19, 00:19";
paths = (
{
closed = 1;
nodes = (
"-7 -18 LINE",
"757 54 LINE",
"713 -1 LINE",
"691 239 LINE",
"725 202 LINE",
"-22 132 LINE",
"-21 139 LINE",
"24 -31 LINE"
);
},
{
closed = 1;
nodes = (
"197 86 LINE",
"197 332 LINE",
"46 291 LINE",
"46 86 LINE"
);
},
{
closed = 1;
nodes = (
"385 86 LINE",
"385 274 LINE",
"234 229 LINE",
"234 86 LINE"
);
},
{
closed = 1;
nodes = (
"712 385 LINE",
"724 334 LINE",
"243 379 LINE",
"251 418 LINE",
"229 179 LINE",
"211 231 LINE",
"711 183 LINE",
"690 145 LINE"
);
}
);
width = 728;
},
{
associatedMasterId = "3DD6C797-E5ED-486C-89DE-75EDF9B2F8B8";
layerId = "1841794A-B718-4F7E-8930-77021FC2ADB3";
width = 600;
},
{
layerId = "C1068CC4-E81B-47E6-9D26-F0E70787A68A";
width = 600;
}
);
unicode = FEBB;
},
{
glyphname = "tah-ar";
lastChange = "2019-07-31 03:33:30 +0000";
layers = (
{
anchors = (
{
name = bottom;
position = "{609, 0}";
},
{
name = top;
position = "{523, 386}";
}
);
layerId = "3DD6C797-E5ED-486C-89DE-75EDF9B2F8B8";
paths = (
{
closed = 1;
nodes = (
"-9 -18 LINE",
"755 54 LINE",
"754 -3 LINE",
"690 239 LINE",
"728 202 LINE",
"-24 132 LINE",
"-2 200 LINE",
"60 -33 LINE"
);
},
{
closed = 1;
nodes = (
"232 39 LINE",
"232 620 LINE",
"81 620 LINE",
"81 -3 LINE"
);
},
{
closed = 1;
nodes = (
"257 528 LINE",
"218 674 LINE",
"42 626 LINE",
"81 480 LINE"
);
},
{
closed = 1;
nodes = (
"717 385 LINE",
"722 334 LINE",
"191 384 LINE",
"242 418 LINE",
"220 179 LINE",
"209 231 LINE",
"709 183 LINE",
"695 145 LINE"
);
}
);
width = 754;
},
{
anchors = (
{
name = bottom;
position = "{593, 0}";
},
{
name = top;
position = "{507, 386}";
}
);
associatedMasterId = "3DD6C797-E5ED-486C-89DE-75EDF9B2F8B8";
layerId = "AAB9C08E-260E-4B12-BF1C-EA215B314D00";
name = "Apr 24 19, 00:44";
paths = (
{
closed = 1;
nodes = (
"-25 -18 LINE",
"739 54 LINE",
"695 -1 LINE",
"673 239 LINE",
"707 202 LINE",
"-40 132 LINE",
"9 205 LINE",
"31 -31 LINE"
);
},
{
closed = 1;
nodes = (
"216 39 LINE",
"216 620 LINE",
"65 620 LINE",
"65 -3 LINE"
);
},
{
closed = 1;
nodes = (
"241 528 LINE",
"202 674 LINE",
"26 626 LINE",
"65 480 LINE"
);
},
{
closed = 1;
nodes = (
"694 385 LINE",
"706 334 LINE",
"175 384 LINE",
"226 418 LINE",
"204 179 LINE",
"193 231 LINE",
"693 183 LINE",
"672 145 LINE"
);
}
);
width = 705;
},
{
associatedMasterId = "3DD6C797-E5ED-486C-89DE-75EDF9B2F8B8";
layerId = "1841794A-B718-4F7E-8930-77021FC2ADB3";
width = 600;
},
{
layerId = "C1068CC4-E81B-47E6-9D26-F0E70787A68A";
width = 600;
}
);
unicode = 0637;
},
{
glyphname = "ain-ar";
lastChange = "2019-07-31 03:33:30 +0000";
layers = (
{
anchors = (
{
name = bottom;
position = "{300, -200}";
},
{
name = top;
position = "{297, 516}";
}
);
layerId = "3DD6C797-E5ED-486C-89DE-75EDF9B2F8B8";
paths = (
{
closed = 1;
nodes = (
"-35 -4 LINE",
"578 54 LINE",
"568 5 LINE",
"505 239 LINE",
"546 202 LINE",
"-66 145 LINE",
"4 195 LINE",
"67 -39 LINE"
);
},
{
closed = 1;
nodes = (
"106 -175 LINE",
"306 -38 LINE",
"345 -147 LINE",
"178 91 LINE",
"55 5 LINE",
"220 -234 LINE"
);
},
{
closed = 1;
nodes = (
"477 254 LINE",
"524 201 LINE",
"111 393 LINE",
"180 405 LINE",
"73 194 LINE",
"37 260 LINE",
"446 72 LINE",
"373 37 LINE"
);
},
{
closed = 1;
nodes = (
"510 476 LINE",
"561 442 LINE",
"231 500 LINE",
"149 343 LINE",
"103 370 LINE",
"487 300 LINE",
"415 249 LINE"
);
}
);
width = 570;
},
{
anchors = (
{
name = bottom;
position = "{266, -200}";
},
{
name = top;
position = "{263, 516}";
}
);
associatedMasterId = "3DD6C797-E5ED-486C-89DE-75EDF9B2F8B8";
layerId = "DDB9D968-E0BB-4601-B14E-3A2483AA1F29";
name = "Apr 24 19, 00:25";
paths = (
{
closed = 1;
nodes = (
"80 -175 LINE",
"280 -38 LINE",
"319 -147 LINE",
"152 91 LINE",
"29 5 LINE",
"194 -234 LINE"
);
},
{
closed = 1;
nodes = (
"3 260 LINE",
"412 72 LINE",
"339 37 LINE",
"443 254 LINE",
"490 201 LINE",
"77 393 LINE",
"146 405 LINE",
"39 194 LINE"
);
},
{
closed = 1;
nodes = (
"115 343 LINE",
"69 370 LINE",
"453 300 LINE",
"381 249 LINE",
"476 476 LINE",
"527 442 LINE",
"197 500 LINE"
);
},
{
closed = 1;
nodes = (
"-69 -4 LINE",
"544 54 LINE",
"534 5 LINE",
"471 239 LINE",
"512 202 LINE",
"-100 145 LINE",
"11 201 LINE",
"33 -39 LINE"
);
}
);
width = 510;
},
{
associatedMasterId = "3DD6C797-E5ED-486C-89DE-75EDF9B2F8B8";
layerId = "1841794A-B718-4F7E-8930-77021FC2ADB3";
width = 600;
},
{
layerId = "C1068CC4-E81B-47E6-9D26-F0E70787A68A";
width = 600;
}
);
unicode = 0639;
},
{
glyphname = "ain-ar.fina";
lastChange = "2019-07-31 03:33:30 +0000";
layers = (
{
anchors = (
{
name = bottom;
position = "{289, -200}";
},
{
name = top;
position = "{297, 516}";
}
);
layerId = "3DD6C797-E5ED-486C-89DE-75EDF9B2F8B8";
paths = (
{
closed = 1;
nodes = (
"501 254 LINE",
"549 189 LINE",
"111 393 LINE",
"180 405 LINE",
"73 194 LINE",
"37 260 LINE",
"446 72 LINE",
"397 37 LINE"
);
},
{
closed = 1;
nodes = (
"106 -175 LINE",
"306 -38 LINE",
"345 -147 LINE",
"178 91 LINE",
"55 5 LINE",
"220 -234 LINE"
);
},
{
closed = 1;
nodes = (
"-35 -4 LINE",
"578 54 LINE",
"568 5 LINE",
"505 239 LINE",
"546 202 LINE",
"-66 145 LINE",
"4 195 LINE",
"67 -39 LINE"
);
},
{
closed = 1;
nodes = (
"546 348 LINE",
"549 264 LINE",
"329 365 LINE",
"409 412 LINE",
"305 192 LINE",
"442 129 LINE"
);
},
{
closed = 1;
nodes = (
"510 476 LINE",
"561 442 LINE",
"231 500 LINE",
"149 343 LINE",
"103 370 LINE",
"487 300 LINE",
"415 249 LINE"
);
}
);
width = 524;
},
{
associatedMasterId = "3DD6C797-E5ED-486C-89DE-75EDF9B2F8B8";
layerId = "1841794A-B718-4F7E-8930-77021FC2ADB3";
width = 600;
},
{
layerId = "C1068CC4-E81B-47E6-9D26-F0E70787A68A";
width = 600;
}
);
unicode = FECA;
},
{
glyphname = "ain-ar.medi";
lastChange = "2019-07-31 03:33:30 +0000";
layers = (
{
anchors = (
{
name = bottom;
position = "{233, -50}";
},
{
name = top;
position = "{240, 516}";
}
);
layerId = "3DD6C797-E5ED-486C-89DE-75EDF9B2F8B8";
paths = (
{
closed = 1;
nodes = (
"444 254 LINE",
"492 189 LINE",
"54 393 LINE",
"123 405 LINE",
"16 194 LINE",
"-20 260 LINE",
"389 72 LINE",
"340 37 LINE"
);
},
{
closed = 1;
nodes = (
"-92 -4 LINE",
"521 54 LINE",
"521 5 LINE",
"458 239 LINE",
"489 202 LINE",
"-123 145 LINE",
"-34 201 LINE",
"30 -35 LINE"
);
},
{
closed = 1;
nodes = (
"489 348 LINE",
"492 264 LINE",
"272 365 LINE",
"352 412 LINE",
"248 192 LINE",
"385 129 LINE"
);
},
{
closed = 1;
nodes = (
"453 476 LINE",
"504 442 LINE",
"174 500 LINE",
"92 343 LINE",
"46 370 LINE",
"430 300 LINE",
"358 249 LINE"
);
}
);
width = 457;
},
{
associatedMasterId = "3DD6C797-E5ED-486C-89DE-75EDF9B2F8B8";
layerId = "1841794A-B718-4F7E-8930-77021FC2ADB3";
width = 600;
},
{
layerId = "C1068CC4-E81B-47E6-9D26-F0E70787A68A";
width = 600;
}
);
unicode = FECC;
},
{
glyphname = "ain-ar.init";
lastChange = "2019-07-31 03:33:30 +0000";
layers = (
{
anchors = (
{
name = bottom;
position = "{273, -50}";
},
{
name = top;
position = "{270, 516}";
}
);
layerId = "3DD6C797-E5ED-486C-89DE-75EDF9B2F8B8";
paths = (
{
closed = 1;
nodes = (
"450 254 LINE",
"497 201 LINE",
"84 393 LINE",
"153 405 LINE",
"46 194 LINE",
"10 260 LINE",
"419 72 LINE",
"346 37 LINE"
);
},
{
closed = 1;
nodes = (
"-62 -4 LINE",
"551 54 LINE",
"516 -1 LINE",
"453 233 LINE",
"519 202 LINE",
"-93 145 LINE",
"-33 195 LINE",
"30 -39 LINE"
);
},
{
closed = 1;
nodes = (
"483 476 LINE",
"534 442 LINE",
"204 500 LINE",
"122 343 LINE",
"76 370 LINE",
"460 300 LINE",
"388 249 LINE"
);
}
);
width = 517;
},
{
anchors = (
{
name = bottom;
position = "{245, -50}";
},
{
name = top;
position = "{242, 516}";
}
);
associatedMasterId = "3DD6C797-E5ED-486C-89DE-75EDF9B2F8B8";
layerId = "2F406C9C-9EA8-450C-A6C0-7DA001756159";
name = "Apr 24 19, 00:24";
paths = (
{
closed = 1;
nodes = (
"-90 -4 LINE",
"523 54 LINE",
"479 -1 LINE",
"457 239 LINE",
"491 202 LINE",
"-121 145 LINE",
"-20 201 LINE",
"2 -39 LINE"
);
},
{
closed = 1;
nodes = (
"-18 260 LINE",
"391 72 LINE",
"318 37 LINE",
"422 254 LINE",
"469 201 LINE",
"56 393 LINE",
"125 405 LINE",
"18 194 LINE"
);
},
{
closed = 1;
nodes = (
"94 343 LINE",
"48 370 LINE",
"432 300 LINE",
"360 249 LINE",
"455 476 LINE",
"506 442 LINE",
"176 500 LINE"
);
}
);
width = 489;
},
{
associatedMasterId = "3DD6C797-E5ED-486C-89DE-75EDF9B2F8B8";
layerId = "1841794A-B718-4F7E-8930-77021FC2ADB3";
width = 600;
},
{
layerId = "C1068CC4-E81B-47E6-9D26-F0E70787A68A";
width = 600;
}
);
unicode = FECB;
},
{
glyphname = "fehDotless-ar";
lastChange = "2019-07-31 03:33:30 +0000";
layers = (
{
anchors = (
{
name = bottom;
position = "{472, -50}";
},
{
name = top;
position = "{560, 441}";
}
);
layerId = "3DD6C797-E5ED-486C-89DE-75EDF9B2F8B8";
paths = (
{
closed = 1;
nodes = (
"157 -3 LINE",
"706 49 LINE",
"662 -6 LINE",
"640 234 LINE",
"674 197 LINE",
"144 148 LINE",
"174 199 LINE",
"196 -41 LINE"
);
},
{
closed = 1;
nodes = (
"245 206 LINE",
"339 119 LINE",
"58 192 LINE",
"20 47 LINE",
"300 -29 LINE",
"185 -29 LINE"
);
},
{
closed = 1;
nodes = (
"444 93 LINE",
"444 302 LINE",
"293 302 LINE",
"293 93 LINE"
);
},
{
closed = 1;
nodes = (
"653 61 LINE",
"653 348 LINE",
"502 348 LINE",
"502 61 LINE"
);
},
{
closed = 1;
nodes = (
"675 387 LINE",
"756 332 LINE",
"290 460 LINE",
"390 490 LINE",
"327 258 LINE",
"262 311 LINE",
"717 186 LINE",
"612 155 LINE"
);
}
);
width = 677;
},
{
anchors = (
{
name = bottom;
position = "{339, -50}";
},
{
name = top;
position = "{364, 494}";
}
);
associatedMasterId = "3DD6C797-E5ED-486C-89DE-75EDF9B2F8B8";
layerId = "3072B55E-2A67-4A8B-B4D6-727CB0AB94B2";
name = "Apr 19 19, 23:22";
paths = (
{
closed = 1;
nodes = (
"157 -3 LINE",
"706 49 LINE",
"662 -6 LINE",
"640 234 LINE",
"674 197 LINE",
"144 148 LINE",
"174 199 LINE",
"196 -41 LINE"
);
},
{
closed = 1;
nodes = (
"245 206 LINE",
"339 119 LINE",
"58 192 LINE",
"20 47 LINE",
"300 -29 LINE",
"185 -29 LINE"
);
},
{
closed = 1;
nodes = (
"584 407 LINE",
"487 523 LINE",
"301 365 LINE",
"398 249 LINE"
);
},
{
closed = 1;
nodes = (
"653 392 LINE",
"502 392 LINE",
"502 86 LINE",
"653 86 LINE"
);
},
{
closed = 1;
nodes = (
"534 209 LINE",
"401 256 LINE",
"398 249 LINE",
"511 147 LINE"
);
}
);
width = 677;
},
{
associatedMasterId = "3DD6C797-E5ED-486C-89DE-75EDF9B2F8B8";
layerId = "09522080-53B6-43ED-BC8B-347DD6DC161A";
name = "Apr 24 19, 01:57";
paths = (
{
closed = 1;
nodes = (
"157 -3 LINE",
"706 49 LINE",
"662 -6 LINE",
"640 234 LINE",
"674 197 LINE",
"144 148 LINE",
"174 199 LINE",
"196 -41 LINE"
);
},
{
closed = 1;
nodes = (
"245 206 LINE",
"339 119 LINE",
"58 192 LINE",
"20 47 LINE",
"300 -29 LINE",
"185 -29 LINE"
);
},
{
closed = 1;
nodes = (
"585 315 LINE",
"488 431 LINE",
"302 273 LINE",
"399 157 LINE"
);
},
{
closed = 1;
nodes = (
"653 86 LINE",
"653 392 LINE",
"502 392 LINE",
"502 86 LINE"
);
}
);
width = 677;
},
{
anchors = (
{
name = bottom;
position = "{472, -50}";
},
{
name = top;
position = "{560, 441}";
}
);
associatedMasterId = "3DD6C797-E5ED-486C-89DE-75EDF9B2F8B8";
layerId = "2D0C2B4A-90D4-4B73-A96D-C9B18FDDAAF6";
name = "Apr 24 19, 01:58";
paths = (
{
closed = 1;
nodes = (
"245 206 LINE",
"339 119 LINE",
"58 192 LINE",
"20 47 LINE",
"300 -29 LINE",
"185 -29 LINE"
);
},
{
closed = 1;
nodes = (
"653 61 LINE",
"653 348 LINE",
"502 348 LINE",
"502 61 LINE"
);
},
{
closed = 1;
nodes = (
"675 387 LINE",
"756 332 LINE",
"290 460 LINE",
"390 490 LINE",
"327 258 LINE",
"262 311 LINE",
"717 186 LINE",
"612 155 LINE"
);
},
{
closed = 1;
nodes = (
"444 93 LINE",
"444 302 LINE",
"293 302 LINE",
"293 93 LINE"
);
},
{
closed = 1;
nodes = (
"157 -3 LINE",
"706 49 LINE",
"662 -6 LINE",
"640 234 LINE",
"674 197 LINE",
"144 148 LINE",
"174 199 LINE",
"196 -41 LINE"
);
}
);
width = 677;
},
{
associatedMasterId = "3DD6C797-E5ED-486C-89DE-75EDF9B2F8B8";
layerId = "1841794A-B718-4F7E-8930-77021FC2ADB3";
width = 600;
},
{
layerId = "C1068CC4-E81B-47E6-9D26-F0E70787A68A";
width = 600;
}
);
unicode = 06A1;
},
{
glyphname = "fehDotless-ar.init";
lastChange = "2019-07-31 03:33:30 +0000";
layers = (
{
anchors = (
{
name = bottom;
position = "{225, -50}";
},
{
name = top;
position = "{313, 441}";
}
);
layerId = "3DD6C797-E5ED-486C-89DE-75EDF9B2F8B8";
paths = (
{
closed = 1;
nodes = (
"-90 -10 LINE",
"459 42 LINE",
"430 -5 LINE",
"367 227 LINE",
"427 190 LINE",
"-103 141 LINE",
"-35 181 LINE",
"28 -51 LINE"
);
},
{
closed = 1;
nodes = (
"197 86 LINE",
"197 295 LINE",
"46 295 LINE",
"46 86 LINE"
);
},
{
closed = 1;
nodes = (
"406 54 LINE",
"406 341 LINE",
"255 341 LINE",
"255 54 LINE"
);
},
{
closed = 1;
nodes = (
"428 380 LINE",
"509 325 LINE",
"43 453 LINE",
"143 483 LINE",
"80 251 LINE",
"15 304 LINE",
"470 179 LINE",
"365 148 LINE"
);
}
);
width = 435;
},
{
anchors = (
{
name = top;
position = "{222, 441}";
}
);
associatedMasterId = "3DD6C797-E5ED-486C-89DE-75EDF9B2F8B8";
layerId = "8DDA73F7-82BF-48E2-B2BB-6CE424098AAD";
name = "Apr 24 19, 01:19";
paths = (
{
closed = 1;
nodes = (
"319 315 LINE",
"222 431 LINE",
"36 273 LINE",
"133 157 LINE"
);
},
{
closed = 1;
nodes = (
"-109 -3 LINE",
"440 49 LINE",
"396 -6 LINE",
"374 234 LINE",
"408 197 LINE",
"-122 148 LINE",
"-34 186 LINE",
"29 -46 LINE"
);
},
{
closed = 1;
nodes = (
"387 86 LINE",
"387 392 LINE",
"236 392 LINE",
"236 86 LINE"
);
}
);
width = 411;
},
{
anchors = (
{
name = bottom;
position = "{206, -50}";
},
{
name = top;
position = "{222, 441}";
}
);
associatedMasterId = "3DD6C797-E5ED-486C-89DE-75EDF9B2F8B8";
layerId = "81A8A741-A26B-4A7E-8334-007310B8D982";
name = "Apr 24 19, 01:49";
paths = (
{
closed = 1;
nodes = (
"319 315 LINE",
"222 431 LINE",
"36 273 LINE",
"133 157 LINE"
);
},
{
closed = 1;
nodes = (
"-109 -3 LINE",
"440 49 LINE",
"410 2 LINE",
"347 234 LINE",
"408 197 LINE",
"-122 148 LINE",
"-34 186 LINE",
"29 -46 LINE"
);
},
{
closed = 1;
nodes = (
"387 86 LINE",
"387 392 LINE",
"236 392 LINE",
"236 86 LINE"
);
}
);
width = 411;
},
{
associatedMasterId = "3DD6C797-E5ED-486C-89DE-75EDF9B2F8B8";
layerId = "1841794A-B718-4F7E-8930-77021FC2ADB3";
width = 600;
},
{
anchors = (
{
name = bottom;
position = "{225, -50}";
},
{
name = top;
position = "{313, 441}";
}
);
associatedMasterId = "3DD6C797-E5ED-486C-89DE-75EDF9B2F8B8";
layerId = "2F6C97CD-AC67-4185-BF11-DA8D8DF85E54";
name = "Apr 26 19, 13:15";
paths = (
{
closed = 1;
nodes = (
"-90 -3 LINE",
"459 49 LINE",
"430 2 LINE",
"367 234 LINE",
"427 197 LINE",
"-103 148 LINE",
"-35 188 LINE",
"28 -44 LINE"
);
},
{
closed = 1;
nodes = (
"197 93 LINE",
"197 302 LINE",
"46 302 LINE",
"46 93 LINE"
);
},
{
closed = 1;
nodes = (
"406 61 LINE",
"406 348 LINE",
"255 348 LINE",
"255 61 LINE"
);
},
{
closed = 1;
nodes = (
"428 387 LINE",
"509 332 LINE",
"43 460 LINE",
"143 490 LINE",
"80 258 LINE",
"15 311 LINE",
"470 186 LINE",
"365 155 LINE"
);
}
);
width = 435;
},
{
anchors = (
{
name = bottom;
position = "{212, -50}";
},
{
name = top;
position = "{300, 441}";
}
);
associatedMasterId = "3DD6C797-E5ED-486C-89DE-75EDF9B2F8B8";
layerId = "E54FB134-3110-4FD0-8823-4FEFAE34B497";
name = "Apr 26 19, 13:17";
paths = (
{
closed = 1;
nodes = (
"184 93 LINE",
"184 302 LINE",
"33 302 LINE",
"33 93 LINE"
);
},
{
closed = 1;
nodes = (
"393 61 LINE",
"393 348 LINE",
"242 348 LINE",
"242 61 LINE"
);
},
{
closed = 1;
nodes = (
"415 387 LINE",
"496 332 LINE",
"30 460 LINE",
"130 490 LINE",
"67 258 LINE",
"2 311 LINE",
"457 186 LINE",
"352 155 LINE"
);
},
{
closed = 1;
nodes = (
"404 45 LINE",
"365 191 LINE",
"174 139 LINE",
"213 -7 LINE"
);
},
{
closed = 1;
nodes = (
"393 328 LINE",
"242 328 LINE",
"242 82 LINE",
"393 82 LINE"
);
},
{
closed = 1;
nodes = (
"223 45 LINE",
"184 191 LINE",
"-50 127 LINE",
"-34 182 LINE",
"29 -50 LINE",
"-11 -19 LINE"
);
}
);
width = 422;
},
{
layerId = "C1068CC4-E81B-47E6-9D26-F0E70787A68A";
width = 600;
}
);
},
{
glyphname = "qafDotless-ar";
lastChange = "2019-07-31 03:33:30 +0000";
layers = (
{
anchors = (
{
name = bottom;
position = "{257, -200}";
},
{
name = top;
position = "{391, 441}";
}
);
layerId = "3DD6C797-E5ED-486C-89DE-75EDF9B2F8B8";
paths = (
{
closed = 1;
nodes = (
"506 387 LINE",
"587 332 LINE",
"121 460 LINE",
"221 490 LINE",
"158 258 LINE",
"93 311 LINE",
"548 186 LINE",
"443 155 LINE"
);
},
{
closed = 1;
nodes = (
"240 75 LINE",
"334 -12 LINE",
"53 61 LINE",
"15 -84 LINE",
"295 -160 LINE",
"180 -160 LINE"
);
},
{
closed = 1;
nodes = (
"359 178 LINE",
"433 122 LINE",
"154 200 LINE",
"101 12 LINE",
"71 108 LINE",
"392 15 LINE",
"295 -56 LINE"
);
},
{
closed = 1;
nodes = (
"132 -136 LINE",
"681 -84 LINE",
"501 -139 LINE",
"479 101 LINE",
"649 64 LINE",
"119 15 LINE",
"169 66 LINE",
"191 -174 LINE"
);
},
{
closed = 1;
nodes = (
"275 93 LINE",
"275 302 LINE",
"124 302 LINE",
"124 93 LINE"
);
},
{
closed = 1;
nodes = (
"484 26 LINE",
"484 348 LINE",
"333 348 LINE",
"333 26 LINE"
);
}
);
width = 513;
},
{
anchors = (
{
name = bottom;
position = "{262, -200}";
},
{
name = top;
position = "{324, 441}";
}
);
associatedMasterId = "3DD6C797-E5ED-486C-89DE-75EDF9B2F8B8";
layerId = "A6E25D9F-3BF6-4BEC-B891-847C50B279C2";
name = "Apr 20 19, 01:10";
paths = (
{
closed = 1;
nodes = (
"245 75 LINE",
"339 -12 LINE",
"58 61 LINE",
"20 -84 LINE",
"300 -160 LINE",
"185 -160 LINE"
);
},
{
closed = 1;
nodes = (
"137 -136 LINE",
"686 -84 LINE",
"506 -139 LINE",
"484 101 LINE",
"654 64 LINE",
"124 15 LINE",
"174 66 LINE",
"196 -174 LINE"
);
},
{
closed = 1;
nodes = (
"489 392 LINE",
"338 392 LINE",
"338 26 LINE",
"489 26 LINE"
);
},
{
closed = 1;
nodes = (
"421 315 LINE",
"324 431 LINE",
"138 273 LINE",
"235 157 LINE"
);
},
{
closed = 1;
nodes = (
"371 117 LINE",
"238 164 LINE",
"235 157 LINE",
"348 55 LINE"
);
}
);
width = 523;
},
{
anchors = (
{
name = bottom;
position = "{262, -200}";
},
{
name = top;
position = "{324, 441}";
}
);
associatedMasterId = "3DD6C797-E5ED-486C-89DE-75EDF9B2F8B8";
layerId = "186CB795-6C5D-4D93-84B7-40A83996FE1A";
name = "Apr 24 19, 01:44";
paths = (
{
closed = 1;
nodes = (
"421 315 LINE",
"324 431 LINE",
"138 273 LINE",
"235 157 LINE"
);
},
{
closed = 1;
nodes = (
"245 75 LINE",
"339 -12 LINE",
"58 61 LINE",
"20 -84 LINE",
"300 -160 LINE",
"185 -160 LINE"
);
},
{
closed = 1;
nodes = (
"137 -136 LINE",
"686 -84 LINE",
"506 -139 LINE",
"484 101 LINE",
"654 64 LINE",
"124 15 LINE",
"174 66 LINE",
"196 -174 LINE"
);
},
{
closed = 1;
nodes = (
"456 241 LINE",
"477 141 LINE",
"215 213 LINE",
"270 289 LINE",
"219 100 LINE",
"438 40 LINE",
"393 9 LINE"
);
},
{
closed = 1;
nodes = (
"489 26 LINE",
"489 392 LINE",
"338 392 LINE",
"338 26 LINE"
);
}
);
width = 523;
},
{
associatedMasterId = "3DD6C797-E5ED-486C-89DE-75EDF9B2F8B8";
layerId = "1841794A-B718-4F7E-8930-77021FC2ADB3";
width = 600;
},
{
layerId = "C1068CC4-E81B-47E6-9D26-F0E70787A68A";
width = 600;
}
);
unicode = 066F;
},
{
glyphname = "kafDotless-ar";
lastChange = "2019-07-31 03:33:30 +0000";
layers = (
{
anchors = (
{
name = bottom;
position = "{577, -50}";
},
{
name = top;
position = "{208, 233}";
}
);
layerId = "3DD6C797-E5ED-486C-89DE-75EDF9B2F8B8";
paths = (
{
closed = 1;
nodes = (
"152 -3 LINE",
"701 49 LINE",
"657 -6 LINE",
"635 234 LINE",
"669 197 LINE",
"139 148 LINE",
"169 199 LINE",
"191 -41 LINE"
);
},
{
closed = 1;
nodes = (
"240 206 LINE",
"334 119 LINE",
"53 192 LINE",
"15 47 LINE",
"295 -29 LINE",
"180 -29 LINE"
);
},
{
closed = 1;
nodes = (
"648 86 LINE",
"648 620 LINE",
"497 579 LINE",
"497 86 LINE"
);
}
);
width = 667;
},
{
associatedMasterId = "3DD6C797-E5ED-486C-89DE-75EDF9B2F8B8";
layerId = "1841794A-B718-4F7E-8930-77021FC2ADB3";
width = 600;
},
{
layerId = "C1068CC4-E81B-47E6-9D26-F0E70787A68A";
width = 600;
}
);
},
{
glyphname = "kaf-ar.init";
lastChange = "2019-07-31 03:33:30 +0000";
layers = (
{
anchors = (
{
name = bottom;
position = "{263, -50}";
},
{
name = top;
position = "{110, 548}";
}
);
layerId = "3DD6C797-E5ED-486C-89DE-75EDF9B2F8B8";
paths = (
{
closed = 1;
nodes = (
"-62 -8 LINE",
"551 50 LINE",
"538 1 LINE",
"475 235 LINE",
"519 198 LINE",
"-93 141 LINE",
"-32 190 LINE",
"30 -43 LINE"
);
},
{
closed = 1;
nodes = (
"503 381 LINE",
"525 330 LINE",
"-6 380 LINE",
"67 415 LINE",
"45 175 LINE",
"12 227 LINE",
"512 179 LINE",
"481 141 LINE"
);
},
{
closed = 1;
nodes = (
"1 344 LINE",
"526 418 LINE",
"449 367 LINE",
"406 604 LINE",
"531 550 LINE",
"6 476 LINE",
"18 529 LINE",
"60 293 LINE"
);
},
{
closed = 1;
nodes = (
"442 406 LINE",
"403 624 LINE",
"221 598 LINE",
"259 386 LINE"
);
}
);
width = 550;
},
{
associatedMasterId = "3DD6C797-E5ED-486C-89DE-75EDF9B2F8B8";
layerId = "84E72BB1-EE67-4713-95CE-6638399DDFEF";
name = "Apr 24 19, 01:24";
paths = (
{
closed = 1;
nodes = (
"532 385 LINE",
"544 334 LINE",
"13 384 LINE",
"64 418 LINE",
"42 179 LINE",
"31 231 LINE",
"531 183 LINE",
"510 145 LINE"
);
},
{
closed = 1;
nodes = (
"519 572 LINE",
"25 480 LINE",
"32 533 LINE",
"74 297 LINE",
"20 348 LINE",
"545 422 LINE",
"538 371 LINE",
"495 608 LINE"
);
},
{
closed = 1;
nodes = (
"518 479 LINE",
"491 628 LINE",
"311 595 LINE",
"338 446 LINE"
);
},
{
closed = 1;
nodes = (
"-43 -4 LINE",
"570 54 LINE",
"567 5 LINE",
"504 239 LINE",
"538 202 LINE",
"-74 145 LINE",
"-33 194 LINE",
"29 -39 LINE"
);
}
);
width = 544;
},
{
associatedMasterId = "3DD6C797-E5ED-486C-89DE-75EDF9B2F8B8";
layerId = "1841794A-B718-4F7E-8930-77021FC2ADB3";
width = 600;
},
{
layerId = "C1068CC4-E81B-47E6-9D26-F0E70787A68A";
width = 600;
}
);
unicode = FEDB;
},
{
glyphname = "keheh-ar";
lastChange = "2019-07-31 03:33:30 +0000";
layers = (
{
anchors = (
{
name = bottom;
position = "{457, -50}";
},
{
name = top;
position = "{278, 548}";
}
);
components = (
{
name = "kaf-ar.init";
transform = "{1, 0, 0, 1, 168, 0}";
}
);
layerId = "3DD6C797-E5ED-486C-89DE-75EDF9B2F8B8";
paths = (
{
closed = 1;
nodes = (
"240 206 LINE",
"334 119 LINE",
"53 192 LINE",
"15 47 LINE",
"295 -29 LINE",
"180 -29 LINE"
);
}
);
width = 708;
},
{
layerId = "C1068CC4-E81B-47E6-9D26-F0E70787A68A";
width = 600;
}
);
unicode = 06A9;
},
{
glyphname = "gaf-ar.medi";
lastChange = "2019-07-31 03:33:30 +0000";
layers = (
{
anchors = (
{
name = bottom;
position = "{275, -50}";
},
{
name = top;
position = "{162, 626}";
}
);
components = (
{
name = "keheh-ar.medi";
}
);
layerId = "3DD6C797-E5ED-486C-89DE-75EDF9B2F8B8";
paths = (
{
closed = 1;
nodes = (
"2 548 LINE",
"226 580 LINE",
"213 551 LINE",
"201 620 LINE",
"222 598 LINE",
"7 568 LINE",
"13 587 LINE",
"22 534 LINE"
);
}
);
width = 497;
},
{
layerId = "C1068CC4-E81B-47E6-9D26-F0E70787A68A";
width = 600;
}
);
unicode = FB95;
},
{
glyphname = "lam-ar";
lastChange = "2019-07-31 03:33:30 +0000";
layers = (
{
anchors = (
{
name = bottom;
position = "{398, -184}";
},
{
name = top;
position = "{380, 700}";
}
);
layerId = "3DD6C797-E5ED-486C-89DE-75EDF9B2F8B8";
paths = (
{
closed = 1;
nodes = (
"469 -5 LINE",
"469 620 LINE",
"318 579 LINE",
"318 -5 LINE"
);
},
{
closed = 1;
nodes = (
"245 75 LINE",
"339 -12 LINE",
"58 61 LINE",
"20 -84 LINE",
"300 -160 LINE",
"185 -160 LINE"
);
},
{
closed = 1;
nodes = (
"137 -136 LINE",
"686 -84 LINE",
"486 -139 LINE",
"464 101 LINE",
"654 64 LINE",
"124 15 LINE",
"174 66 LINE",
"196 -174 LINE"
);
},
{
closed = 1;
nodes = (
"494 528 LINE",
"455 674 LINE",
"279 626 LINE",
"318 480 LINE"
);
}
);
width = 514;
},
{
associatedMasterId = "3DD6C797-E5ED-486C-89DE-75EDF9B2F8B8";
layerId = "1841794A-B718-4F7E-8930-77021FC2ADB3";
width = 600;
},
{
layerId = "C1068CC4-E81B-47E6-9D26-F0E70787A68A";
width = 600;
}
);
unicode = 0644;
},
{
glyphname = "lam-ar.medi";
lastChange = "2019-07-31 03:33:30 +0000";
layers = (
{
anchors = (
{
name = bottom;
position = "{126, -50}";
},
{
name = ring;
position = "{114, 0}";
},
{
name = top;
position = "{108, 667}";
}
);
layerId = "3DD6C797-E5ED-486C-89DE-75EDF9B2F8B8";
paths = (
{
closed = 1;
nodes = (
"197 86 LINE",
"197 620 LINE",
"46 579 LINE",
"46 86 LINE"
);
},
{
closed = 1;
nodes = (
"208 49 LINE",
"169 195 LINE",
"-22 143 LINE",
"17 -3 LINE"
);
}
);
width = 197;
},
{
associatedMasterId = "3DD6C797-E5ED-486C-89DE-75EDF9B2F8B8";
layerId = "1841794A-B718-4F7E-8930-77021FC2ADB3";
width = 600;
},
{
layerId = "C1068CC4-E81B-47E6-9D26-F0E70787A68A";
width = 600;
}
);
unicode = FEE0;
},
{
glyphname = "lam-ar.init";
lastChange = "2019-07-31 03:33:30 +0000";
layers = (
{
anchors = (
{
name = bottom;
position = "{126, -50}";
},
{
name = ring;
position = "{114, 0}";
},
{
name = top;
position = "{108, 667}";
}
);
layerId = "3DD6C797-E5ED-486C-89DE-75EDF9B2F8B8";
paths = (
{
closed = 1;
nodes = (
"197 86 LINE",
"197 620 LINE",
"46 579 LINE",
"46 86 LINE"
);
},
{
closed = 1;
nodes = (
"208 49 LINE",
"169 195 LINE",
"-22 143 LINE",
"17 -3 LINE"
);
}
);
width = 228;
},
{
associatedMasterId = "3DD6C797-E5ED-486C-89DE-75EDF9B2F8B8";
layerId = "1841794A-B718-4F7E-8930-77021FC2ADB3";
width = 600;
},
{
layerId = "C1068CC4-E81B-47E6-9D26-F0E70787A68A";
width = 600;
}
);
unicode = FEDF;
},
{
glyphname = "meem-ar";
lastChange = "2019-07-31 03:33:30 +0000";
layers = (
{
anchors = (
{
name = bottom;
position = "{349, -136}";
},
{
name = top;
position = "{214, 480}";
}
);
components = (
{
name = "meem-ar.init";
transform = "{1, 0, 0, 1, 46, 0}";
}
);
layerId = "3DD6C797-E5ED-486C-89DE-75EDF9B2F8B8";
paths = (
{
closed = 1;
nodes = (
"166 -146 LINE",
"166 174 LINE",
"15 133 LINE",
"15 -187 LINE"
);
}
);
width = 465;
},
{
anchors = (
{
name = bottom;
position = "{255, -234}";
},
{
name = top;
position = "{261, 433}";
}
);
associatedMasterId = "3DD6C797-E5ED-486C-89DE-75EDF9B2F8B8";
layerId = "8D44E91D-5BE9-481C-92C1-84A1B028482C";
name = "Apr 25 19, 15:43";
paths = (
{
closed = 1;
nodes = (
"-84 -4 LINE",
"529 54 LINE",
"519 5 LINE",
"456 239 LINE",
"497 202 LINE",
"-115 145 LINE",
"5 195 LINE",
"68 -39 LINE"
);
},
{
closed = 1;
nodes = (
"109 -175 LINE",
"309 -38 LINE",
"348 -147 LINE",
"155 128 LINE",
"218 124 LINE",
"21 -14 LINE",
"32 42 LINE",
"223 -234 LINE"
);
},
{
closed = 1;
nodes = (
"494 86 LINE",
"494 392 LINE",
"343 351 LINE",
"343 86 LINE"
);
},
{
closed = 1;
nodes = (
"108 227 LINE",
"484 263 LINE",
"474 214 LINE",
"411 448 LINE",
"452 411 LINE",
"86 377 LINE",
"122 404 LINE",
"185 170 LINE"
);
},
{
closed = 1;
nodes = (
"298 45 LINE",
"298 351 LINE",
"147 310 LINE",
"147 45 LINE"
);
}
);
width = 521;
},
{
layerId = "C1068CC4-E81B-47E6-9D26-F0E70787A68A";
width = 600;
}
);
unicode = 0645;
},
{
glyphname = "meem-ar.init";
lastChange = "2019-07-31 03:33:30 +0000";
layers = (
{
anchors = (
{
name = bottom;
position = "{210, -50}";
},
{
name = top;
position = "{210, 480}";
}
);
layerId = "3DD6C797-E5ED-486C-89DE-75EDF9B2F8B8";
paths = (
{
closed = 1;
nodes = (
"364 312 LINE",
"352 256 LINE",
"293 490 LINE",
"328 457 LINE",
"-57 357 LINE",
"23 412 LINE",
"83 177 LINE",
"-18 209 LINE"
);
},
{
closed = 1;
nodes = (
"404 45 LINE",
"365 191 LINE",
"174 139 LINE",
"213 -7 LINE"
);
},
{
closed = 1;
nodes = (
"393 328 LINE",
"242 328 LINE",
"242 82 LINE",
"393 82 LINE"
);
},
{
closed = 1;
nodes = (
"223 45 LINE",
"184 191 LINE",
"-50 127 LINE",
"-34 182 LINE",
"29 -50 LINE",
"-11 -19 LINE"
);
},
{
closed = 1;
nodes = (
"196 328 LINE",
"45 328 LINE",
"45 82 LINE",
"196 82 LINE"
);
}
);
width = 419;
},
{
anchors = (
{
name = bottom;
position = "{235, -50}";
},
{
name = top;
position = "{160, 433}";
}
);
associatedMasterId = "3DD6C797-E5ED-486C-89DE-75EDF9B2F8B8";
layerId = "D600FB1D-98D2-4DE8-BA38-0D5516871A83";
name = "Apr 25 19, 15:39";
paths = (
{
closed = 1;
nodes = (
"-15 -3 LINE",
"428 39 LINE",
"418 -10 LINE",
"355 224 LINE",
"396 187 LINE",
"-53 145 LINE",
"-31 180 LINE",
"32 -54 LINE"
);
},
{
closed = 1;
nodes = (
"393 71 LINE",
"393 377 LINE",
"242 336 LINE",
"242 71 LINE"
);
},
{
closed = 1;
nodes = (
"7 212 LINE",
"383 248 LINE",
"373 199 LINE",
"310 433 LINE",
"351 396 LINE",
"-15 362 LINE",
"21 389 LINE",
"84 155 LINE"
);
},
{
closed = 1;
nodes = (
"197 30 LINE",
"197 336 LINE",
"46 295 LINE",
"46 30 LINE"
);
}
);
width = 420;
},
{
layerId = "C1068CC4-E81B-47E6-9D26-F0E70787A68A";
width = 600;
}
);
unicode = FEE3;
},
{
glyphname = "noonghunna-ar";
lastChange = "2019-07-31 03:33:30 +0000";
layers = (
{
anchors = (
{
name = bottom;
position = "{398, -184}";
},
{
name = top;
position = "{154, 223}";
}
);
layerId = "3DD6C797-E5ED-486C-89DE-75EDF9B2F8B8";
paths = (
{
closed = 1;
nodes = (
"469 -12 LINE",
"469 392 LINE",
"318 351 LINE",
"318 -12 LINE"
);
},
{
closed = 1;
nodes = (
"245 75 LINE",
"339 -12 LINE",
"58 61 LINE",
"20 -84 LINE",
"300 -160 LINE",
"185 -160 LINE"
);
},
{
closed = 1;
nodes = (
"137 -136 LINE",
"686 -84 LINE",
"486 -139 LINE",
"464 101 LINE",
"654 64 LINE",
"124 15 LINE",
"174 66 LINE",
"196 -174 LINE"
);
}
);
width = 503;
},
{
associatedMasterId = "3DD6C797-E5ED-486C-89DE-75EDF9B2F8B8";
layerId = "1841794A-B718-4F7E-8930-77021FC2ADB3";
width = 600;
},
{
layerId = "C1068CC4-E81B-47E6-9D26-F0E70787A68A";
width = 600;
}
);
unicode = 06BA;
},
{
glyphname = "heh-ar";
lastChange = "2019-07-31 03:33:30 +0000";
layers = (
{
anchors = (
{
name = bottom;
position = "{212, -50}";
},
{
name = top;
position = "{201, 448}";
}
);
layerId = "3DD6C797-E5ED-486C-89DE-75EDF9B2F8B8";
paths = (
{
closed = 1;
nodes = (
"-11 -33 LINE",
"408 82 LINE",
"369 228 LINE",
"-50 113 LINE",
"5 168 LINE",
"68 -64 LINE"
);
},
{
closed = 1;
nodes = (
"375 396 LINE",
"224 354 LINE",
"224 126 LINE",
"375 126 LINE"
);
},
{
closed = 1;
nodes = (
"166 225 LINE",
"15 225 LINE",
"15 130 LINE",
"166 130 LINE"
);
},
{
closed = 1;
nodes = (
"338 422 LINE",
"295 271 LINE",
"98 410 LINE",
"213 511 LINE",
"15 225 LINE",
"139 140 LINE"
);
},
{
closed = 1;
nodes = (
"400 304 LINE",
"361 450 LINE",
"185 402 LINE",
"224 256 LINE"
);
}
);
width = 423;
},
{
layerId = "C1068CC4-E81B-47E6-9D26-F0E70787A68A";
width = 600;
}
);
unicode = 0647;
},
{
glyphname = "heh-ar.fina";
lastChange = "2019-07-31 03:33:30 +0000";
layers = (
{
anchors = (
{
name = bottom;
position = "{204, -50}";
},
{
name = top;
position = "{234, 448}";
}
);
layerId = "3DD6C797-E5ED-486C-89DE-75EDF9B2F8B8";
paths = (
{
closed = 1;
nodes = (
"-11 -33 LINE",
"408 82 LINE",
"369 228 LINE",
"-50 113 LINE",
"5 168 LINE",
"68 -64 LINE"
);
},
{
closed = 1;
nodes = (
"166 225 LINE",
"15 225 LINE",
"15 130 LINE",
"166 130 LINE"
);
},
{
closed = 1;
nodes = (
"338 422 LINE",
"295 271 LINE",
"98 410 LINE",
"213 511 LINE",
"15 225 LINE",
"139 140 LINE"
);
},
{
closed = 1;
nodes = (
"201 -15 LINE",
"435 49 LINE",
"396 195 LINE",
"162 131 LINE",
"219 194 LINE",
"282 -38 LINE"
);
},
{
closed = 1;
nodes = (
"408 396 LINE",
"257 354 LINE",
"257 126 LINE",
"408 126 LINE"
);
},
{
closed = 1;
nodes = (
"433 304 LINE",
"394 450 LINE",
"218 402 LINE",
"257 256 LINE"
);
}
);
width = 408;
},
{
layerId = "C1068CC4-E81B-47E6-9D26-F0E70787A68A";
width = 600;
}
);
unicode = FEEA;
},
{
glyphname = "heh-ar.medi";
lastChange = "2019-07-31 03:33:30 +0000";
layers = (
{
anchors = (
{
name = bottom;
position = "{203, -289}";
},
{
name = top;
position = "{203, 433}";
}
);
layerId = "3DD6C797-E5ED-486C-89DE-75EDF9B2F8B8";
paths = (
{
closed = 1;
nodes = (
"44 -160 LINE",
"195 -205 LINE",
"195 37 LINE",
"44 37 LINE"
);
},
{
closed = 1;
nodes = (
"253 -33 LINE",
"404 -33 LINE",
"404 73 LINE",
"253 73 LINE"
);
},
{
closed = 1;
nodes = (
"81 -230 LINE",
"124 -74 LINE",
"321 -213 LINE",
"206 -319 LINE",
"404 -33 LINE",
"280 52 LINE"
);
},
{
closed = 1;
nodes = (
"460 57 LINE",
"457 2 LINE",
"394 234 LINE",
"421 203 LINE",
"144 127 LINE",
"141 182 LINE",
"204 -50 LINE",
"183 -19 LINE"
);
},
{
closed = 1;
nodes = (
"279 57 LINE",
"232 2 LINE",
"169 234 LINE",
"240 203 LINE",
"-37 127 LINE",
"-35 182 LINE",
"31 -50 LINE",
"2 -19 LINE"
);
},
{
closed = 1;
nodes = (
"195 109 LINE",
"195 366 LINE",
"44 306 LINE",
"44 109 LINE"
);
},
{
closed = 1;
nodes = (
"404 90 LINE",
"404 199 LINE",
"253 137 LINE",
"253 90 LINE"
);
},
{
closed = 1;
nodes = (
"404 179 LINE",
"206 465 LINE",
"321 359 LINE",
"124 220 LINE",
"81 376 LINE",
"280 94 LINE"
);
},
{
closed = 1;
nodes = (
"247 170 LINE",
"310 402 LINE",
"323 331 LINE",
"4 419 LINE",
"79 450 LINE",
"16 218 LINE",
"-35 273 LINE",
"291 183 LINE"
);
},
{
closed = 1;
nodes = (
"-35 -127 LINE",
"16 -72 LINE",
"79 -304 LINE",
"4 -273 LINE",
"323 -185 LINE",
"310 -256 LINE",
"247 -24 LINE",
"291 -37 LINE"
);
}
);
width = 405;
},
{
layerId = "C1068CC4-E81B-47E6-9D26-F0E70787A68A";
width = 600;
}
);
unicode = FEEC;
},
{
glyphname = "heh-ar.init";
lastChange = "2019-07-31 03:33:30 +0000";
layers = (
{
anchors = (
{
name = bottom;
position = "{286, -50}";
},
{
name = top;
position = "{286, 500}";
}
);
layerId = "3DD6C797-E5ED-486C-89DE-75EDF9B2F8B8";
paths = (
{
closed = 1;
nodes = (
"-22 -21 LINE",
"437 105 LINE",
"398 251 LINE",
"-48 129 LINE",
"-38 191 LINE",
"26 -41 LINE"
);
},
{
closed = 1;
nodes = (
"404 419 LINE",
"253 377 LINE",
"253 149 LINE",
"404 149 LINE"
);
},
{
closed = 1;
nodes = (
"195 248 LINE",
"44 248 LINE",
"44 153 LINE",
"195 153 LINE"
);
},
{
closed = 1;
nodes = (
"367 445 LINE",
"324 294 LINE",
"127 433 LINE",
"242 534 LINE",
"44 248 LINE",
"168 163 LINE"
);
},
{
closed = 1;
nodes = (
"429 327 LINE",
"390 473 LINE",
"214 425 LINE",
"253 279 LINE"
);
},
{
closed = 1;
nodes = (
"227 -10 LINE",
"623 99 LINE",
"607 62 LINE",
"607 294 LINE",
"622 255 LINE",
"188 136 LINE",
"243 191 LINE",
"306 -41 LINE"
);
},
{
closed = 1;
nodes = (
"607 251 LINE",
"409 537 LINE",
"524 436 LINE",
"327 297 LINE",
"284 448 LINE",
"483 166 LINE"
);
}
);
width = 622;
},
{
associatedMasterId = "3DD6C797-E5ED-486C-89DE-75EDF9B2F8B8";
layerId = "9A6DE7D3-B943-4836-AD49-F45876C129B3";
name = "Apr 26 19, 13:37";
paths = (
{
closed = 1;
nodes = (
"-38 -176 LINE",
"382 -61 LINE",
"343 85 LINE",
"-77 -30 LINE",
"-29 25 LINE",
"35 -207 LINE"
);
},
{
closed = 1;
nodes = (
"597 -61 LINE",
"558 85 LINE",
"198 -14 LINE",
"237 -160 LINE"
);
},
{
closed = 1;
nodes = (
"564 290 LINE",
"413 290 LINE",
"413 -17 LINE",
"564 -17 LINE"
);
},
{
closed = 1;
nodes = (
"378 169 LINE",
"597 229 LINE",
"558 375 LINE",
"339 315 LINE",
"380 370 LINE",
"443 138 LINE"
);
},
{
closed = 1;
nodes = (
"349 290 LINE",
"198 290 LINE",
"198 -17 LINE",
"349 -17 LINE"
);
},
{
closed = 1;
nodes = (
"163 169 LINE",
"382 229 LINE",
"343 375 LINE",
"124 315 LINE",
"165 370 LINE",
"228 138 LINE"
);
},
{
closed = 1;
nodes = (
"134 178 LINE",
"-18 178 LINE",
"-18 -14 LINE",
"134 -14 LINE"
);
},
{
closed = 1;
nodes = (
"191 494 LINE",
"196 321 LINE",
"-41 365 LINE",
"41 521 LINE",
"-18 178 LINE",
"131 153 LINE"
);
}
);
width = 600;
},
{
anchors = (
{
name = bottom;
position = "{294, -50}";
},
{
name = top;
position = "{294, 500}";
}
);
associatedMasterId = "3DD6C797-E5ED-486C-89DE-75EDF9B2F8B8";
layerId = "FEADFB98-5B5A-4749-8093-D393765822FC";
name = "Apr 26 19, 13:39";
paths = (
{
closed = 1;
nodes = (
"-18 -19 LINE",
"439 106 LINE",
"400 252 LINE",
"-51 129 LINE",
"-32 172 LINE",
"34 -61 LINE"
);
},
{
closed = 1;
nodes = (
"406 420 LINE",
"255 378 LINE",
"255 150 LINE",
"406 150 LINE"
);
},
{
closed = 1;
nodes = (
"197 249 LINE",
"46 249 LINE",
"46 154 LINE",
"197 154 LINE"
);
},
{
closed = 1;
nodes = (
"369 446 LINE",
"326 295 LINE",
"129 434 LINE",
"244 535 LINE",
"46 249 LINE",
"170 164 LINE"
);
},
{
closed = 1;
nodes = (
"431 328 LINE",
"392 474 LINE",
"216 426 LINE",
"255 280 LINE"
);
},
{
closed = 1;
nodes = (
"243 -9 LINE",
"705 118 LINE",
"668 63 LINE",
"605 295 LINE",
"666 264 LINE",
"204 137 LINE",
"259 192 LINE",
"322 -40 LINE"
);
},
{
closed = 1;
nodes = (
"617 154 LINE",
"617 249 LINE",
"466 249 LINE",
"466 154 LINE"
);
},
{
closed = 1;
nodes = (
"617 251 LINE",
"419 537 LINE",
"534 436 LINE",
"337 297 LINE",
"294 448 LINE",
"493 166 LINE"
);
}
);
width = 672;
},
{
associatedMasterId = "3DD6C797-E5ED-486C-89DE-75EDF9B2F8B8";
layerId = "3A5D1789-C2DA-45FF-9770-1799336BE4E3";
name = "Apr 26 19, 14:02";
paths = (
{
closed = 1;
nodes = (
"-22 -21 LINE",
"437 105 LINE",
"398 251 LINE",
"-48 129 LINE",
"-38 191 LINE",
"26 -41 LINE"
);
},
{
closed = 1;
nodes = (
"404 419 LINE",
"253 377 LINE",
"253 149 LINE",
"404 149 LINE"
);
},
{
closed = 1;
nodes = (
"195 248 LINE",
"44 248 LINE",
"44 153 LINE",
"195 153 LINE"
);
},
{
closed = 1;
nodes = (
"367 445 LINE",
"324 294 LINE",
"127 433 LINE",
"242 534 LINE",
"44 248 LINE",
"168 163 LINE"
);
},
{
closed = 1;
nodes = (
"429 327 LINE",
"390 473 LINE",
"214 425 LINE",
"253 279 LINE"
);
},
{
closed = 1;
nodes = (
"227 -10 LINE",
"689 117 LINE",
"658 62 LINE",
"595 294 LINE",
"650 263 LINE",
"188 136 LINE",
"243 191 LINE",
"306 -41 LINE"
);
},
{
closed = 1;
nodes = (
"607 251 LINE",
"409 537 LINE",
"524 436 LINE",
"327 297 LINE",
"284 448 LINE",
"483 166 LINE"
);
}
);
width = 661;
},
{
layerId = "C1068CC4-E81B-47E6-9D26-F0E70787A68A";
width = 600;
}
);
unicode = FEEB;
},
{
glyphname = "hehgoal-ar.fina";
lastChange = "2019-07-31 03:33:30 +0000";
layers = (
{
anchors = (
{
name = bottom;
position = "{203, -50}";
},
{
name = top;
position = "{228, 420}";
}
);
layerId = "3DD6C797-E5ED-486C-89DE-75EDF9B2F8B8";
paths = (
{
closed = 1;
nodes = (
"25 -23 LINE",
"219 30 LINE",
"210 9 LINE",
"152 223 LINE",
"412 240 LINE",
"-50 113 LINE",
"5 168 LINE",
"61 -37 LINE"
);
},
{
closed = 1;
nodes = (
"166 213 LINE",
"15 213 LINE",
"15 131 LINE",
"166 131 LINE"
);
},
{
closed = 1;
nodes = (
"241 274 LINE",
"241 242 LINE",
"63 368 LINE",
"119 365 LINE",
"15 214 LINE",
"139 129 LINE"
);
},
{
closed = 1;
nodes = (
"200 -15 LINE",
"434 49 LINE",
"395 195 LINE",
"161 131 LINE",
"218 194 LINE",
"281 -38 LINE"
);
},
{
closed = 1;
nodes = (
"407 366 LINE",
"256 324 LINE",
"256 126 LINE",
"407 126 LINE"
);
},
{
closed = 1;
nodes = (
"432 274 LINE",
"393 420 LINE",
"87 336 LINE",
"87 396 LINE",
"150 164 LINE",
"106 185 LINE"
);
}
);
width = 407;
},
{
layerId = "C1068CC4-E81B-47E6-9D26-F0E70787A68A";
width = 600;
}
);
unicode = FBA7;
},
{
glyphname = "hehgoal-ar.medi";
lastChange = "2019-07-31 03:33:30 +0000";
layers = (
{
anchors = (
{
name = bottom;
position = "{203, -289}";
},
{
name = top;
position = "{203, 433}";
}
);
layerId = "3DD6C797-E5ED-486C-89DE-75EDF9B2F8B8";
paths = (
{
closed = 1;
nodes = (
"44 -160 LINE",
"195 -205 LINE",
"195 34 LINE",
"44 34 LINE"
);
},
{
closed = 1;
nodes = (
"253 -33 LINE",
"404 -33 LINE",
"404 73 LINE",
"253 73 LINE"
);
},
{
closed = 1;
nodes = (
"81 -230 LINE",
"124 -74 LINE",
"321 -213 LINE",
"206 -319 LINE",
"404 -33 LINE",
"280 52 LINE"
);
},
{
closed = 1;
nodes = (
"460 57 LINE",
"457 2 LINE",
"394 234 LINE",
"421 203 LINE",
"144 127 LINE",
"217 203 LINE",
"280 -29 LINE",
"183 -19 LINE"
);
},
{
closed = 1;
nodes = (
"279 57 LINE",
"204 2 LINE",
"141 234 LINE",
"240 203 LINE",
"-37 127 LINE",
"-35 182 LINE",
"31 -50 LINE",
"2 -19 LINE"
);
},
{
closed = 1;
nodes = (
"404 90 LINE",
"404 199 LINE",
"253 137 LINE",
"253 90 LINE"
);
},
{
closed = 1;
nodes = (
"-35 -127 LINE",
"16 -72 LINE",
"79 -304 LINE",
"4 -273 LINE",
"323 -185 LINE",
"310 -256 LINE",
"247 -24 LINE",
"291 -37 LINE"
);
}
);
width = 405;
},
{
layerId = "C1068CC4-E81B-47E6-9D26-F0E70787A68A";
width = 600;
}
);
unicode = FBA9;
},
{
glyphname = "hehgoal-ar.init";
lastChange = "2019-07-31 03:33:30 +0000";
layers = (
{
components = (
{
name = "behDotless-ar.init";
}
);
layerId = "3DD6C797-E5ED-486C-89DE-75EDF9B2F8B8";
paths = (
{
closed = 1;
nodes = (
"82 -11 LINE",
"82 -141 LINE",
"71 -127 LINE",
"157 -150 LINE",
"146 -159 LINE",
"146 40 LINE",
"186 -2 LINE",
"67 -35 LINE"
);
},
{
closed = 1;
nodes = (
"101 -60 LINE",
"82 -130 LINE",
"205 -164 LINE",
"165 -170 LINE",
"187 -91 LINE",
"221 -107 LINE",
"86 -70 LINE"
);
}
);
width = 224;
},
{
layerId = "C1068CC4-E81B-47E6-9D26-F0E70787A68A";
width = 600;
}
);
unicode = FBA8;
},
{
glyphname = "waw-ar";
lastChange = "2019-07-31 03:33:30 +0000";
layers = (
{
anchors = (
{
name = bottom;
position = "{202, -269}";
},
{
name = center;
position = "{202, 250}";
},
{
name = top;
position = "{238, 449}";
}
);
layerId = "3DD6C797-E5ED-486C-89DE-75EDF9B2F8B8";
paths = (
{
closed = 1;
nodes = (
"397 387 LINE",
"478 332 LINE",
"12 460 LINE",
"112 490 LINE",
"49 258 LINE",
"-16 311 LINE",
"439 186 LINE",
"334 155 LINE"
);
},
{
closed = 1;
nodes = (
"250 178 LINE",
"324 122 LINE",
"45 200 LINE",
"-8 12 LINE",
"-38 108 LINE",
"283 15 LINE",
"186 -56 LINE"
);
},
{
closed = 1;
nodes = (
"166 93 LINE",
"166 302 LINE",
"15 302 LINE",
"15 93 LINE"
);
},
{
closed = 1;
nodes = (
"374 -146 LINE",
"374 351 LINE",
"223 351 LINE",
"223 -187 LINE"
);
}
);
width = 404;
},
{
anchors = (
{
name = bottom;
position = "{212, -269}";
},
{
name = center;
position = "{212, 250}";
},
{
name = top;
position = "{248, 449}";
}
);
associatedMasterId = "3DD6C797-E5ED-486C-89DE-75EDF9B2F8B8";
layerId = "6866847D-A9C5-4D26-A5D7-FFB086DBB082";
name = "Apr 24 19, 01:45";
paths = (
{
closed = 1;
nodes = (
"417 387 LINE",
"488 332 LINE",
"22 460 LINE",
"122 490 LINE",
"59 258 LINE",
"-6 311 LINE",
"449 186 LINE",
"354 155 LINE"
);
},
{
closed = 1;
nodes = (
"259 177 LINE",
"334 122 LINE",
"53 195 LINE",
"15 50 LINE",
"295 -26 LINE",
"199 -58 LINE"
);
},
{
closed = 1;
nodes = (
"176 86 LINE",
"176 302 LINE",
"25 302 LINE",
"25 86 LINE"
);
},
{
closed = 1;
nodes = (
"385 -158 LINE",
"385 270 LINE",
"234 270 LINE",
"234 -195 LINE"
);
},
{
closed = 1;
nodes = (
"178 -224 LINE",
"412 -160 LINE",
"373 -14 LINE",
"139 -78 LINE",
"155 -37 LINE",
"218 -269 LINE"
);
}
);
width = 427;
},
{
anchors = (
{
name = bottom;
position = "{202, -269}";
},
{
name = center;
position = "{202, 250}";
},
{
name = top;
position = "{238, 449}";
}
);
associatedMasterId = "3DD6C797-E5ED-486C-89DE-75EDF9B2F8B8";
layerId = "7799FA84-BE82-4046-9F2E-F39E7CFC9459";
name = "Apr 25 19, 15:16";
paths = (
{
closed = 1;
nodes = (
"397 387 LINE",
"478 332 LINE",
"12 460 LINE",
"112 490 LINE",
"49 258 LINE",
"-16 311 LINE",
"439 186 LINE",
"334 155 LINE"
);
},
{
closed = 1;
nodes = (
"168 -194 LINE",
"402 -130 LINE",
"363 16 LINE",
"129 -48 LINE",
"145 -7 LINE",
"208 -239 LINE"
);
},
{
closed = 1;
nodes = (
"250 178 LINE",
"324 122 LINE",
"45 200 LINE",
"-8 12 LINE",
"-38 108 LINE",
"283 15 LINE",
"186 -56 LINE"
);
},
{
closed = 1;
nodes = (
"166 93 LINE",
"166 302 LINE",
"15 302 LINE",
"15 93 LINE"
);
},
{
closed = 1;
nodes = (
"375 -128 LINE",
"375 321 LINE",
"224 321 LINE",
"224 -165 LINE"
);
}
);
width = 417;
},
{
associatedMasterId = "3DD6C797-E5ED-486C-89DE-75EDF9B2F8B8";
layerId = "1841794A-B718-4F7E-8930-77021FC2ADB3";
width = 600;
},
{
anchors = (
{
name = bottom;
position = "{202, -269}";
},
{
name = center;
position = "{202, 250}";
},
{
name = top;
position = "{238, 449}";
}
);
associatedMasterId = "3DD6C797-E5ED-486C-89DE-75EDF9B2F8B8";
layerId = "DDDEFFF2-0940-412E-B482-9AB65E6E987A";
name = "May 13 19, 22:30";
paths = (
{
closed = 1;
nodes = (
"397 387 LINE",
"478 332 LINE",
"12 460 LINE",
"112 490 LINE",
"49 258 LINE",
"-16 311 LINE",
"439 186 LINE",
"334 155 LINE"
);
},
{
closed = 1;
nodes = (
"250 178 LINE",
"324 122 LINE",
"45 200 LINE",
"-8 12 LINE",
"-38 108 LINE",
"283 15 LINE",
"186 -56 LINE"
);
},
{
closed = 1;
nodes = (
"166 93 LINE",
"166 302 LINE",
"15 302 LINE",
"15 93 LINE"
);
},
{
closed = 1;
nodes = (
"374 -138 LINE",
"374 351 LINE",
"223 351 LINE",
"223 -179 LINE"
);
},
{
closed = 1;
nodes = (
"168 -194 LINE",
"402 -130 LINE",
"363 16 LINE",
"129 -48 LINE",
"145 -7 LINE",
"208 -239 LINE"
);
}
);
width = 404;
},
{
layerId = "C1068CC4-E81B-47E6-9D26-F0E70787A68A";
width = 600;
}
);
unicode = 0648;
},
{
glyphname = "waw-ar.fina";
lastChange = "2019-07-31 03:33:30 +0000";
layers = (
{
components = (
{
alignment = -1;
name = "waw-ar";
}
);
layerId = "3DD6C797-E5ED-486C-89DE-75EDF9B2F8B8";
width = 374;
},
{
associatedMasterId = "3DD6C797-E5ED-486C-89DE-75EDF9B2F8B8";
layerId = "1841794A-B718-4F7E-8930-77021FC2ADB3";
width = 600;
},
{
associatedMasterId = "3DD6C797-E5ED-486C-89DE-75EDF9B2F8B8";
components = (
{
alignment = -1;
name = "waw-ar";
}
);
layerId = "FFD99C57-926D-4661-A033-DB2FE45DA857";
name = "Apr 26 19, 13:18";
paths = (
{
closed = 1;
nodes = (
"168 -194 LINE",
"402 -130 LINE",
"363 16 LINE",
"129 -48 LINE",
"145 -7 LINE",
"208 -239 LINE"
);
}
);
width = 374;
},
{
layerId = "C1068CC4-E81B-47E6-9D26-F0E70787A68A";
width = 600;
}
);
unicode = FEEE;
},
{
glyphname = "alefMaksura-ar";
lastChange = "2019-07-31 03:33:30 +0000";
layers = (
{
anchors = (
{
name = bottom;
position = "{405, -168}";
},
{
name = top;
position = "{107, 116}";
}
);
layerId = "3DD6C797-E5ED-486C-89DE-75EDF9B2F8B8";
paths = (
{
closed = 1;
nodes = (
"604 387 LINE",
"695 332 LINE",
"229 460 LINE",
"395 490 LINE",
"332 258 LINE",
"201 311 LINE",
"656 186 LINE",
"541 155 LINE"
);
},
{
closed = 1;
nodes = (
"261 69 LINE",
"334 -12 LINE",
"53 61 LINE",
"15 -84 LINE",
"295 -160 LINE",
"201 -166 LINE"
);
},
{
closed = 1;
nodes = (
"454 76 LINE",
"454 302 LINE",
"303 302 LINE",
"303 76 LINE"
);
},
{
closed = 1;
nodes = (
"592 33 LINE",
"592 154 LINE",
"441 154 LINE",
"441 33 LINE"
);
},
{
closed = 1;
nodes = (
"602 192 LINE",
"652 137 LINE",
"186 265 LINE",
"362 295 LINE",
"299 63 LINE",
"158 116 LINE",
"613 -9 LINE",
"539 -40 LINE"
);
},
{
closed = 1;
nodes = (
"-117 -168 LINE",
"647 -96 LINE",
"646 -153 LINE",
"582 89 LINE",
"620 52 LINE",
"-132 -18 LINE",
"135 138 LINE",
"233 -229 LINE"
);
}
);
width = 646;
},
{
anchors = (
{
name = bottom;
position = "{257, -168}";
},
{
name = top;
position = "{50, 116}";
}
);
associatedMasterId = "3DD6C797-E5ED-486C-89DE-75EDF9B2F8B8";
layerId = "FB472C24-E858-46B8-9C18-A3D84CF17D09";
name = "Apr 24 19, 19:49";
paths = (
{
closed = 1;
nodes = (
"506 387 LINE",
"587 332 LINE",
"121 460 LINE",
"287 490 LINE",
"224 258 LINE",
"93 311 LINE",
"548 186 LINE",
"443 155 LINE"
);
},
{
closed = 1;
nodes = (
"240 75 LINE",
"334 -12 LINE",
"53 61 LINE",
"15 -84 LINE",
"295 -160 LINE",
"180 -160 LINE"
);
},
{
closed = 1;
nodes = (
"132 -136 LINE",
"681 -84 LINE",
"501 -139 LINE",
"479 101 LINE",
"649 64 LINE",
"119 15 LINE",
"169 66 LINE",
"191 -174 LINE"
);
},
{
closed = 1;
nodes = (
"346 76 LINE",
"346 302 LINE",
"195 302 LINE",
"195 76 LINE"
);
},
{
closed = 1;
nodes = (
"484 33 LINE",
"484 154 LINE",
"333 154 LINE",
"333 33 LINE"
);
},
{
closed = 1;
nodes = (
"494 192 LINE",
"544 137 LINE",
"78 265 LINE",
"254 295 LINE",
"191 63 LINE",
"50 116 LINE",
"505 -9 LINE",
"431 -40 LINE"
);
}
);
width = 513;
},
{
associatedMasterId = "3DD6C797-E5ED-486C-89DE-75EDF9B2F8B8";
layerId = "1841794A-B718-4F7E-8930-77021FC2ADB3";
width = 600;
},
{
layerId = "C1068CC4-E81B-47E6-9D26-F0E70787A68A";
width = 600;
}
);
unicode = 0649;
},
{
glyphname = "alefMaksura-ar.fina";
lastChange = "2019-07-31 03:33:30 +0000";
layers = (
{
anchors = (
{
name = bottom;
position = "{392, -168}";
},
{
name = top;
position = "{94, 116}";
}
);
layerId = "3DD6C797-E5ED-486C-89DE-75EDF9B2F8B8";
paths = (
{
closed = 1;
nodes = (
"579 33 LINE",
"579 154 LINE",
"428 154 LINE",
"428 33 LINE"
);
},
{
closed = 1;
nodes = (
"595 187 LINE",
"639 137 LINE",
"173 265 LINE",
"349 295 LINE",
"286 63 LINE",
"145 116 LINE",
"600 -9 LINE",
"532 -45 LINE"
);
},
{
closed = 1;
nodes = (
"248 69 LINE",
"321 -12 LINE",
"40 61 LINE",
"2 -84 LINE",
"282 -160 LINE",
"188 -166 LINE"
);
},
{
closed = 1;
nodes = (
"579 33 LINE",
"579 154 LINE",
"428 154 LINE",
"428 33 LINE"
);
},
{
closed = 1;
nodes = (
"-130 -168 LINE",
"634 -96 LINE",
"633 -153 LINE",
"569 89 LINE",
"607 52 LINE",
"-145 -18 LINE",
"122 138 LINE",
"220 -229 LINE"
);
}
);
width = 575;
},
{
anchors = (
{
name = bottom;
position = "{257, -168}";
},
{
name = top;
position = "{50, 116}";
}
);
associatedMasterId = "3DD6C797-E5ED-486C-89DE-75EDF9B2F8B8";
layerId = "8F6B9704-B689-44DC-9C9E-8F7A091110F2";
name = "Apr 24 19, 19:52";
paths = (
{
closed = 1;
nodes = (
"240 75 LINE",
"334 -12 LINE",
"53 61 LINE",
"15 -84 LINE",
"295 -160 LINE",
"180 -160 LINE"
);
},
{
closed = 1;
nodes = (
"132 -136 LINE",
"681 -84 LINE",
"523 -115 LINE",
"474 69 LINE",
"649 64 LINE",
"119 15 LINE",
"169 66 LINE",
"191 -174 LINE"
);
},
{
closed = 1;
nodes = (
"484 31 LINE",
"484 152 LINE",
"333 152 LINE",
"333 31 LINE"
);
},
{
closed = 1;
nodes = (
"494 190 LINE",
"544 135 LINE",
"78 263 LINE",
"254 293 LINE",
"191 61 LINE",
"50 114 LINE",
"505 -11 LINE",
"431 -42 LINE"
);
}
);
width = 468;
},
{
anchors = (
{
name = bottom;
position = "{257, -168}";
},
{
name = top;
position = "{50, 116}";
}
);
associatedMasterId = "3DD6C797-E5ED-486C-89DE-75EDF9B2F8B8";
layerId = "F95C6D7E-4356-4064-9496-09B29B1F23EB";
name = "Apr 24 19, 19:56";
paths = (
{
closed = 1;
nodes = (
"261 69 LINE",
"334 -12 LINE",
"53 61 LINE",
"15 -84 LINE",
"295 -160 LINE",
"201 -166 LINE"
);
},
{
closed = 1;
nodes = (
"592 33 LINE",
"592 154 LINE",
"441 154 LINE",
"441 33 LINE"
);
},
{
closed = 1;
nodes = (
"602 192 LINE",
"652 137 LINE",
"186 265 LINE",
"362 295 LINE",
"299 63 LINE",
"158 116 LINE",
"613 -9 LINE",
"539 -40 LINE"
);
},
{
closed = 1;
nodes = (
"-117 -168 LINE",
"647 -96 LINE",
"641 -153 LINE",
"577 89 LINE",
"620 52 LINE",
"-132 -18 LINE",
"135 138 LINE",
"233 -229 LINE"
);
}
);
width = 598;
},
{
associatedMasterId = "3DD6C797-E5ED-486C-89DE-75EDF9B2F8B8";
layerId = "1841794A-B718-4F7E-8930-77021FC2ADB3";
width = 600;
},
{
layerId = "C1068CC4-E81B-47E6-9D26-F0E70787A68A";
width = 600;
}
);
unicode = FEF0;
},
{
glyphname = "yehbarree-ar";
lastChange = "2019-07-31 03:33:30 +0000";
layers = (
{
anchors = (
{
name = bottom;
position = "{203, -191}";
},
{
name = top;
position = "{122, 208}";
}
);
layerId = "3DD6C797-E5ED-486C-89DE-75EDF9B2F8B8";
paths = (
{
closed = 1;
nodes = (
"381 -208 LINE",
"704 -120 LINE",
"565 -180 LINE",
"505 53 LINE",
"667 21 LINE",
"342 -64 LINE",
"417 17 LINE",
"475 -217 LINE"
);
},
{
closed = 1;
nodes = (
"541 93 LINE",
"778 -63 LINE",
"26 7 LINE",
"41 50 LINE",
"98 -167 LINE",
"-1 -141 LINE",
"763 -213 LINE",
"443 -274 LINE"
);
},
{
closed = 1;
nodes = (
"-26 -8 LINE",
"597 51 LINE",
"586 3 LINE",
"527 226 LINE",
"555 198 LINE",
"-57 141 LINE",
"4 190 LINE",
"75 -78 LINE"
);
},
{
closed = 1;
nodes = (
"-41 152 LINE",
"-8 233 LINE",
"117 -233 LINE",
"60 -133 LINE",
"263 -146 LINE",
"260 -240 LINE",
"135 226 LINE",
"162 139 LINE"
);
}
);
width = 589;
},
{
anchors = (
{
name = bottom;
position = "{203, -191}";
},
{
name = top;
position = "{122, 319}";
}
);
associatedMasterId = "3DD6C797-E5ED-486C-89DE-75EDF9B2F8B8";
layerId = "D1842BD3-70B2-4B72-8D96-613EFC166468";
name = "Apr 27 19, 14:52";
paths = (
{
closed = 1;
nodes = (
"381 -208 LINE",
"704 -120 LINE",
"565 -180 LINE",
"505 53 LINE",
"667 21 LINE",
"342 -64 LINE",
"417 17 LINE",
"475 -217 LINE"
);
},
{
closed = 1;
nodes = (
"541 93 LINE",
"778 -63 LINE",
"26 7 LINE",
"41 50 LINE",
"98 -167 LINE",
"-1 -141 LINE",
"763 -213 LINE",
"443 -274 LINE"
);
},
{
closed = 1;
nodes = (
"-26 -8 LINE",
"597 51 LINE",
"586 3 LINE",
"527 226 LINE",
"555 198 LINE",
"-57 141 LINE",
"4 190 LINE",
"75 -78 LINE"
);
},
{
closed = 1;
nodes = (
"-41 152 LINE",
"-8 233 LINE",
"117 -233 LINE",
"60 -133 LINE",
"263 -146 LINE",
"260 -240 LINE",
"135 226 LINE",
"162 139 LINE"
);
},
{
closed = 1;
nodes = (
"553 129 LINE",
"514 275 LINE",
"338 227 LINE",
"377 81 LINE"
);
}
);
width = 589;
},
{
layerId = "C1068CC4-E81B-47E6-9D26-F0E70787A68A";
width = 600;
}
);
unicode = 06D2;
},
{
glyphname = "yehbarree-ar.fina";
lastChange = "2019-07-31 03:33:30 +0000";
layers = (
{
components = (
{
alignment = -1;
name = "yehbarree-ar";
}
);
layerId = "3DD6C797-E5ED-486C-89DE-75EDF9B2F8B8";
width = 543;
},
{
associatedMasterId = "3DD6C797-E5ED-486C-89DE-75EDF9B2F8B8";
layerId = "AF49BCA2-864E-481A-9E37-EF9892C6E458";
name = "Apr 27 19, 14:33";
paths = (
{
closed = 1;
nodes = (
"393 -208 LINE",
"716 -120 LINE",
"577 -176 LINE",
"517 57 LINE",
"679 24 LINE",
"354 -60 LINE",
"427 21 LINE",
"487 -214 LINE"
);
},
{
closed = 1;
nodes = (
"553 90 LINE",
"820 -66 LINE",
"68 4 LINE",
"83 47 LINE",
"140 -170 LINE",
"41 -144 LINE",
"805 -216 LINE",
"455 -277 LINE"
);
},
{
closed = 1;
nodes = (
"15 -8 LINE",
"628 50 LINE",
"615 1 LINE",
"552 235 LINE",
"596 198 LINE",
"-16 141 LINE",
"45 190 LINE",
"116 -78 LINE"
);
},
{
closed = 1;
nodes = (
"0 152 LINE",
"33 233 LINE",
"158 -233 LINE",
"101 -170 LINE",
"304 -183 LINE",
"271 -240 LINE",
"146 226 LINE",
"203 139 LINE"
);
}
);
width = 575;
},
{
anchors = (
{
name = bottom;
position = "{203, -191}";
},
{
name = top;
position = "{122, 208}";
}
);
associatedMasterId = "3DD6C797-E5ED-486C-89DE-75EDF9B2F8B8";
components = (
{
name = "twodotshorizontalabove-ar";
transform = "{1, 0, 0, 1, 692, -629}";
}
);
layerId = "963CE186-2447-44BC-AE09-3401073880C8";
name = "Apr 27 19, 14:54";
paths = (
{
closed = 1;
nodes = (
"501 -208 LINE",
"824 -120 LINE",
"685 -180 LINE",
"625 53 LINE",
"787 21 LINE",
"462 -64 LINE",
"537 17 LINE",
"595 -217 LINE"
);
},
{
closed = 1;
nodes = (
"661 93 LINE",
"898 -63 LINE",
"146 7 LINE",
"161 50 LINE",
"218 -167 LINE",
"119 -141 LINE",
"883 -213 LINE",
"563 -274 LINE"
);
},
{
closed = 1;
nodes = (
"94 -8 LINE",
"717 51 LINE",
"543 0 LINE",
"485 223 LINE",
"675 198 LINE",
"63 141 LINE",
"124 190 LINE",
"195 -78 LINE"
);
},
{
closed = 1;
nodes = (
"79 152 LINE",
"112 233 LINE",
"237 -233 LINE",
"180 -133 LINE",
"383 -146 LINE",
"380 -240 LINE",
"255 226 LINE",
"282 139 LINE"
);
},
{
closed = 1;
nodes = (
"905 254 LINE",
"952 201 LINE",
"539 393 LINE",
"608 405 LINE",
"501 194 LINE",
"465 260 LINE",
"874 72 LINE",
"801 37 LINE"
);
},
{
closed = 1;
nodes = (
"393 -4 LINE",
"1006 54 LINE",
"971 -1 LINE",
"908 233 LINE",
"974 202 LINE",
"362 145 LINE",
"478 216 LINE",
"541 -18 LINE"
);
},
{
closed = 1;
nodes = (
"938 476 LINE",
"989 442 LINE",
"659 500 LINE",
"577 343 LINE",
"531 370 LINE",
"915 300 LINE",
"843 249 LINE"
);
},
{
closed = 1;
nodes = (
"496 167 LINE",
"496 620 LINE",
"345 620 LINE",
"345 125 LINE"
);
},
{
closed = 1;
nodes = (
"521 528 LINE",
"482 674 LINE",
"306 626 LINE",
"345 480 LINE"
);
}
);
width = 1574;
},
{
layerId = "C1068CC4-E81B-47E6-9D26-F0E70787A68A";
width = 600;
}
);
unicode = FBAF;
},
{
glyphname = "lam_alef-ar";
lastChange = "2019-07-31 03:33:30 +0000";
layers = (
{
anchors = (
{
name = bottom_1;
position = "{313, -50}";
},
{
name = bottom_2;
position = "{104, -50}";
},
{
name = caret_1;
position = "{207.5, 0}";
},
{
name = top_1;
position = "{295, 632}";
},
{
name = top_2;
position = "{104, 500}";
}
);
components = (
{
name = "lam-ar.init";
transform = "{1, 0, 0, 1, 187, 0}";
}
);
layerId = "3DD6C797-E5ED-486C-89DE-75EDF9B2F8B8";
paths = (
{
closed = 1;
nodes = (
"187 86 LINE",
"187 500 LINE",
"36 459 LINE",
"36 86 LINE"
);
},
{
closed = 1;
nodes = (
"-20 -15 LINE",
"214 49 LINE",
"175 195 LINE",
"-59 131 LINE",
"-2 194 LINE",
"61 -38 LINE"
);
}
);
width = 415;
},
{
associatedMasterId = "3DD6C797-E5ED-486C-89DE-75EDF9B2F8B8";
layerId = "1841794A-B718-4F7E-8930-77021FC2ADB3";
width = 600;
},
{
layerId = "C1068CC4-E81B-47E6-9D26-F0E70787A68A";
width = 600;
}
);
leftMetricsKey = "alef-ar.fina";
rightMetricsKey = "lam-ar.init";
unicode = FEFB;
},
{
glyphname = zero;
lastChange = "2019-07-31 03:33:30 +0000";
layers = (
{
layerId = "3DD6C797-E5ED-486C-89DE-75EDF9B2F8B8";
paths = (
{
closed = 1;
nodes = (
"399 462 LINE",
"-24 578 LINE",
"70 608 LINE",
"7 376 LINE",
"-52 429 LINE",
"360 276 LINE"
);
},
{
closed = 1;
nodes = (
"444 165 LINE",
"445 110 LINE",
"32 216 LINE",
"62 249 LINE",
"2 16 LINE",
"-5 72 LINE",
"404 -40 LINE",
"384 -70 LINE"
);
},
{
closed = 1;
nodes = (
"197 424 LINE",
"46 424 LINE",
"46 187 LINE",
"197 140 LINE"
);
},
{
closed = 1;
nodes = (
"399 96 LINE",
"399 462 LINE",
"248 462 LINE",
"248 96 LINE"
);
}
);
width = 446;
},
{
associatedMasterId = "3DD6C797-E5ED-486C-89DE-75EDF9B2F8B8";
layerId = "1841794A-B718-4F7E-8930-77021FC2ADB3";
width = 600;
},
{
layerId = "C1068CC4-E81B-47E6-9D26-F0E70787A68A";
width = 600;
}
);
unicode = 0030;
},
{
glyphname = one;
lastChange = "2019-07-31 03:33:16 +0000";
layers = (
{
layerId = "3DD6C797-E5ED-486C-89DE-75EDF9B2F8B8";
paths = (
{
closed = 1;
nodes = (
"230 85 LINE",
"230 482 LINE",
"79 523 LINE",
"79 85 LINE"
);
},
{
closed = 1;
nodes = (
"263 146 LINE",
"87 194 LINE",
"48 48 LINE",
"224 0 LINE"
);
},
{
closed = 1;
nodes = (
"230 482 LINE",
"54 530 LINE",
"15 384 LINE",
"191 336 LINE"
);
}
);
width = 278;
},
{
associatedMasterId = "3DD6C797-E5ED-486C-89DE-75EDF9B2F8B8";
layerId = "1841794A-B718-4F7E-8930-77021FC2ADB3";
width = 600;
},
{
layerId = "C1068CC4-E81B-47E6-9D26-F0E70787A68A";
width = 600;
}
);
unicode = 0031;
},
{
glyphname = two;
lastChange = "2019-07-31 03:33:16 +0000";
layers = (
{
layerId = "3DD6C797-E5ED-486C-89DE-75EDF9B2F8B8";
paths = (
{
closed = 1;
nodes = (
"500 431 LINE",
"471 296 LINE",
"288 451 LINE",
"377 519 LINE",
"-31 41 LINE",
"-21 106 LINE",
"163 -49 LINE",
"81 -61 LINE"
);
},
{
closed = 1;
nodes = (
"446 190 LINE",
"530 139 LINE",
"49 184 LINE",
"198 223 LINE",
"176 -16 LINE",
"47 33 LINE",
"517 -12 LINE",
"424 -50 LINE"
);
},
{
closed = 1;
nodes = (
"187 323 LINE",
"187 377 LINE",
"36 377 LINE",
"36 286 LINE"
);
},
{
closed = 1;
nodes = (
"451 537 LINE",
"482 486 LINE",
"1 531 LINE",
"54 570 LINE",
"32 331 LINE",
"-1 380 LINE",
"469 335 LINE",
"429 297 LINE"
);
}
);
width = 462;
},
{
associatedMasterId = "3DD6C797-E5ED-486C-89DE-75EDF9B2F8B8";
layerId = "6CC52276-DEEF-4542-B8E4-93615DCA8A05";
name = "Apr 19 19, 16:48";
paths = (
{
closed = 1;
nodes = (
"526 190 LINE",
"547 139 LINE",
"66 184 LINE",
"215 223 LINE",
"193 -16 LINE",
"64 33 LINE",
"534 -12 LINE",
"504 -50 LINE"
);
},
{
closed = 1;
nodes = (
"478 557 LINE",
"499 506 LINE",
"18 551 LINE",
"66 590 LINE",
"44 351 LINE",
"16 400 LINE",
"486 355 LINE",
"456 317 LINE"
);
},
{
closed = 1;
nodes = (
"166 -72 LINE",
"103 -61 LINE",
"522 431 LINE",
"493 330 LINE",
"310 485 LINE",
"399 519 LINE",
"-9 41 LINE",
"-18 83 LINE"
);
}
);
width = 600;
},
{
associatedMasterId = "3DD6C797-E5ED-486C-89DE-75EDF9B2F8B8";
layerId = "1841794A-B718-4F7E-8930-77021FC2ADB3";
width = 600;
},
{
layerId = "C1068CC4-E81B-47E6-9D26-F0E70787A68A";
width = 600;
}
);
unicode = 0032;
},
{
glyphname = three;
lastChange = "2019-07-31 03:33:30 +0000";
layers = (
{
layerId = "3DD6C797-E5ED-486C-89DE-75EDF9B2F8B8";
paths = (
{
closed = 1;
nodes = (
"141 141 LINE",
"494 303 LINE",
"458 237 LINE",
"351 448 LINE",
"420 436 LINE",
"77 277 LINE",
"100 334 LINE",
"204 117 LINE"
);
},
{
closed = 1;
nodes = (
"366 104 LINE",
"413 80 LINE",
"29 150 LINE",
"101 201 LINE",
"5 -26 LINE",
"-45 8 LINE",
"285 -51 LINE"
);
},
{
closed = 1;
nodes = (
"442 256 LINE",
"478 190 LINE",
"126 352 LINE",
"264 331 LINE",
"161 113 LINE",
"62 216 LINE",
"405 57 LINE",
"337 46 LINE"
);
},
{
closed = 1;
nodes = (
"44 343 LINE",
"428 413 LINE",
"382 386 LINE",
"300 543 LINE",
"-30 485 LINE",
"21 519 LINE",
"116 292 LINE"
);
}
);
width = 453;
},
{
associatedMasterId = "3DD6C797-E5ED-486C-89DE-75EDF9B2F8B8";
layerId = "4B2FFA34-E280-495E-B06E-BE39A1CB4726";
name = "Apr 22 19, 23:28";
paths = (
{
closed = 1;
nodes = (
"389 522 LINE",
"419 471 LINE",
"-62 516 LINE",
"54 555 LINE",
"32 316 LINE",
"-64 365 LINE",
"406 320 LINE",
"367 282 LINE"
);
},
{
closed = 1;
nodes = (
"278 430 LINE",
"376 435 LINE",
"87 269 LINE",
"163 139 LINE",
"461 309 LINE",
"400 221 LINE"
);
},
{
closed = 1;
nodes = (
"460 144 LINE",
"123 336 LINE",
"259 303 LINE",
"137 95 LINE",
"47 206 LINE",
"375 18 LINE",
"307 13 LINE",
"430 213 LINE"
);
},
{
closed = 1;
nodes = (
"340 67 LINE",
"385 40 LINE",
"9 143 LINE",
"85 188 LINE",
"-30 -30 LINE",
"-77 8 LINE",
"246 -79 LINE"
);
}
);
width = 400;
},
{
associatedMasterId = "3DD6C797-E5ED-486C-89DE-75EDF9B2F8B8";
layerId = "354DDE27-6C41-463D-B662-D412699FF60D";
name = "Apr 22 19, 23:30";
paths = (
{
closed = 1;
nodes = (
"493 144 LINE",
"156 336 LINE",
"292 303 LINE",
"170 95 LINE",
"80 206 LINE",
"408 18 LINE",
"340 13 LINE",
"463 213 LINE"
);
},
{
closed = 1;
nodes = (
"374 68 LINE",
"418 40 LINE",
"42 143 LINE",
"118 188 LINE",
"3 -30 LINE",
"-44 8 LINE",
"279 -79 LINE"
);
},
{
closed = 1;
nodes = (
"338 440 LINE",
"408 434 LINE",
"80 246 LINE",
"99 305 LINE",
"221 97 LINE",
"156 116 LINE",
"493 308 LINE",
"463 239 LINE"
);
},
{
closed = 1;
nodes = (
"-44 444 LINE",
"3 482 LINE",
"118 264 LINE",
"42 309 LINE",
"418 412 LINE",
"375 381 LINE",
"279 531 LINE"
);
}
);
width = 454;
},
{
associatedMasterId = "3DD6C797-E5ED-486C-89DE-75EDF9B2F8B8";
layerId = "1841794A-B718-4F7E-8930-77021FC2ADB3";
width = 600;
},
{
layerId = "C1068CC4-E81B-47E6-9D26-F0E70787A68A";
width = 600;
}
);
unicode = 0033;
},
{
glyphname = four;
lastChange = "2019-07-31 03:33:30 +0000";
layers = (
{
layerId = "3DD6C797-E5ED-486C-89DE-75EDF9B2F8B8";
paths = (
{
closed = 1;
nodes = (
"481 271 LINE",
"505 216 LINE",
"-15 265 LINE",
"33 304 LINE",
"11 65 LINE",
"-17 114 LINE",
"495 65 LINE",
"459 31 LINE"
);
},
{
closed = 1;
nodes = (
"190 254 LINE",
"190 507 LINE",
"39 544 LINE",
"39 254 LINE"
);
},
{
closed = 1;
nodes = (
"402 0 LINE",
"402 414 LINE",
"251 414 LINE",
"251 0 LINE"
);
}
);
width = 481;
},
{
associatedMasterId = "3DD6C797-E5ED-486C-89DE-75EDF9B2F8B8";
layerId = "1841794A-B718-4F7E-8930-77021FC2ADB3";
width = 600;
},
{
layerId = "C1068CC4-E81B-47E6-9D26-F0E70787A68A";
width = 600;
}
);
unicode = 0034;
},
{
glyphname = five;
lastChange = "2019-07-31 03:33:30 +0000";
layers = (
{
layerId = "3DD6C797-E5ED-486C-89DE-75EDF9B2F8B8";
paths = (
{
closed = 1;
nodes = (
"442 280 LINE",
"478 214 LINE",
"51 410 LINE",
"116 426 LINE",
"13 208 LINE",
"23 258 LINE",
"405 81 LINE",
"337 70 LINE"
);
},
{
closed = 1;
nodes = (
"366 128 LINE",
"413 104 LINE",
"29 174 LINE",
"101 225 LINE",
"5 -2 LINE",
"-45 32 LINE",
"329 -35 LINE",
"264 -67 LINE"
);
},
{
closed = 1;
nodes = (
"120 273 LINE",
"121 381 LINE",
"35 381 LINE",
"34 254 LINE"
);
},
{
closed = 1;
nodes = (
"0 359 LINE",
"470 404 LINE",
"382 355 LINE",
"360 594 LINE",
"468 555 LINE",
"-13 510 LINE",
"17 561 LINE",
"39 321 LINE"
);
}
);
width = 437;
},
{
associatedMasterId = "3DD6C797-E5ED-486C-89DE-75EDF9B2F8B8";
layerId = "14A23D44-26D3-419B-B2FE-7FAD0D50FB79";
name = "Apr 23 19, 00:14";
paths = (
{
closed = 1;
nodes = (
"-19 359 LINE",
"451 404 LINE",
"363 355 LINE",
"341 594 LINE",
"449 555 LINE",
"-32 510 LINE",
"-2 561 LINE",
"20 321 LINE"
);
},
{
closed = 1;
nodes = (
"102 381 LINE",
"16 381 LINE",
"15 254 LINE",
"101 273 LINE"
);
},
{
closed = 1;
nodes = (
"459 214 LINE",
"32 410 LINE",
"97 426 LINE",
"-6 208 LINE",
"4 258 LINE",
"386 81 LINE",
"318 70 LINE",
"423 280 LINE"
);
},
{
closed = 1;
nodes = (
"245 -67 LINE",
"347 128 LINE",
"394 104 LINE",
"10 174 LINE",
"82 225 LINE",
"-14 -2 LINE",
"-64 32 LINE",
"310 -35 LINE"
);
}
);
width = 400;
},
{
associatedMasterId = "3DD6C797-E5ED-486C-89DE-75EDF9B2F8B8";
layerId = "1841794A-B718-4F7E-8930-77021FC2ADB3";
width = 600;
},
{
layerId = "C1068CC4-E81B-47E6-9D26-F0E70787A68A";
width = 600;
}
);
unicode = 0035;
},
{
glyphname = six;
lastChange = "2019-07-31 03:33:16 +0000";
layers = (
{
layerId = "3DD6C797-E5ED-486C-89DE-75EDF9B2F8B8";
paths = (
{
closed = 1;
nodes = (
"383 152 LINE",
"429 99 LINE",
"-26 224 LINE",
"69 255 LINE",
"6 23 LINE",
"-65 78 LINE",
"401 -50 LINE",
"320 -80 LINE"
);
},
{
closed = 1;
nodes = (
"189 99 LINE",
"189 525 LINE",
"38 488 LINE",
"38 99 LINE"
);
},
{
closed = 1;
nodes = (
"398 108 LINE",
"398 243 LINE",
"247 243 LINE",
"247 108 LINE"
);
},
{
closed = 1;
nodes = (
"442 354 LINE",
"560 269 LINE",
"128 386 LINE",
"223 418 LINE",
"163 183 LINE",
"89 238 LINE",
"541 121 LINE",
"382 121 LINE"
);
},
{
closed = 1;
nodes = (
"-6 319 LINE",
"426 436 LINE",
"337 372 LINE",
"277 605 LINE",
"407 584 LINE",
"-45 467 LINE",
"29 522 LINE",
"89 287 LINE"
);
}
);
width = 444;
},
{
associatedMasterId = "3DD6C797-E5ED-486C-89DE-75EDF9B2F8B8";
layerId = "1841794A-B718-4F7E-8930-77021FC2ADB3";
width = 600;
},
{
layerId = "C1068CC4-E81B-47E6-9D26-F0E70787A68A";
width = 600;
}
);
unicode = 0036;
},
{
glyphname = seven;
lastChange = "2019-07-31 03:33:30 +0000";
layers = (
{
layerId = "3DD6C797-E5ED-486C-89DE-75EDF9B2F8B8";
paths = (
{
closed = 1;
nodes = (
"96 0 LINE",
"405 29 LINE",
"254 -5 LINE",
"367 417 LINE",
"383 397 LINE",
"146 332 LINE",
"210 416 LINE",
"97 -6 LINE"
);
},
{
closed = 1;
nodes = (
"-65 335 LINE",
"405 380 LINE",
"372 331 LINE",
"350 570 LINE",
"403 531 LINE",
"-78 486 LINE",
"11 537 LINE",
"33 297 LINE"
);
}
);
width = 383;
},
{
associatedMasterId = "3DD6C797-E5ED-486C-89DE-75EDF9B2F8B8";
layerId = "1841794A-B718-4F7E-8930-77021FC2ADB3";
width = 600;
},
{
layerId = "C1068CC4-E81B-47E6-9D26-F0E70787A68A";
width = 600;
}
);
unicode = 0037;
},
{
glyphname = eight;
lastChange = "2019-07-31 03:33:30 +0000";
layers = (
{
layerId = "3DD6C797-E5ED-486C-89DE-75EDF9B2F8B8";
paths = (
{
closed = 1;
nodes = (
"440 340 LINE",
"558 255 LINE",
"28 398 LINE",
"89 443 LINE",
"29 208 LINE",
"-52 260 LINE",
"539 107 LINE",
"380 107 LINE"
);
},
{
closed = 1;
nodes = (
"347 155 LINE",
"341 109 LINE",
"-114 234 LINE",
"59 204 LINE",
"-4 -28 LINE",
"-153 88 LINE",
"313 -40 LINE",
"284 -77 LINE"
);
},
{
closed = 1;
nodes = (
"187 115 LINE",
"187 230 LINE",
"36 199 LINE",
"36 115 LINE"
);
},
{
closed = 1;
nodes = (
"396 20 LINE",
"396 229 LINE",
"245 229 LINE",
"245 20 LINE"
);
},
{
closed = 1;
nodes = (
"187 237 LINE",
"187 500 LINE",
"36 500 LINE",
"36 237 LINE"
);
},
{
closed = 1;
nodes = (
"396 331 LINE",
"396 455 LINE",
"245 455 LINE",
"245 300 LINE"
);
},
{
closed = 1;
nodes = (
"373 336 LINE",
"436 568 LINE",
"585 452 LINE",
"119 580 LINE",
"148 617 LINE",
"85 385 LINE",
"91 431 LINE",
"546 306 LINE"
);
}
);
width = 442;
},
{
associatedMasterId = "3DD6C797-E5ED-486C-89DE-75EDF9B2F8B8";
layerId = "1841794A-B718-4F7E-8930-77021FC2ADB3";
width = 600;
},
{
layerId = "C1068CC4-E81B-47E6-9D26-F0E70787A68A";
width = 600;
}
);
unicode = 0038;
},
{
glyphname = nine;
lastChange = "2019-07-31 03:33:30 +0000";
layers = (
{
layerId = "3DD6C797-E5ED-486C-89DE-75EDF9B2F8B8";
paths = (
{
closed = 1;
nodes = (
"438 511 LINE",
"509 456 LINE",
"43 584 LINE",
"124 614 LINE",
"61 382 LINE",
"15 435 LINE",
"470 310 LINE",
"375 279 LINE"
);
},
{
closed = 1;
nodes = (
"37 -110 LINE",
"489 7 LINE",
"415 -48 LINE",
"355 187 LINE",
"450 155 LINE",
"18 38 LINE",
"107 102 LINE",
"167 -131 LINE"
);
},
{
closed = 1;
nodes = (
"281 291 LINE",
"355 236 LINE",
"-97 353 LINE",
"62 353 LINE",
"2 120 LINE",
"-116 205 LINE",
"316 88 LINE",
"221 56 LINE"
);
},
{
closed = 1;
nodes = (
"197 291 LINE",
"197 426 LINE",
"46 426 LINE",
"46 291 LINE"
);
},
{
closed = 1;
nodes = (
"406 -14 LINE",
"406 435 LINE",
"255 435 LINE",
"255 -51 LINE"
);
}
);
width = 444;
},
{
associatedMasterId = "3DD6C797-E5ED-486C-89DE-75EDF9B2F8B8";
layerId = "1841794A-B718-4F7E-8930-77021FC2ADB3";
width = 600;
},
{
layerId = "C1068CC4-E81B-47E6-9D26-F0E70787A68A";
width = 600;
}
);
unicode = 0039;
},
{
glyphname = "zero-ar";
lastChange = "2019-07-31 03:33:30 +0000";
layers = (
{
layerId = "3DD6C797-E5ED-486C-89DE-75EDF9B2F8B8";
paths = (
{
closed = 1;
nodes = (
"230 355 LINE",
"54 403 LINE",
"15 257 LINE",
"191 209 LINE"
);
}
);
width = 245;
},
{
associatedMasterId = "3DD6C797-E5ED-486C-89DE-75EDF9B2F8B8";
layerId = "1841794A-B718-4F7E-8930-77021FC2ADB3";
width = 600;
},
{
layerId = "C1068CC4-E81B-47E6-9D26-F0E70787A68A";
width = 600;
}
);
unicode = 0660;
},
{
glyphname = "one-ar";
lastChange = "2019-07-31 03:33:30 +0000";
layers = (
{
layerId = "3DD6C797-E5ED-486C-89DE-75EDF9B2F8B8";
paths = (
{
closed = 1;
nodes = (
"166 482 LINE",
"15 523 LINE",
"15 41 LINE",
"166 0 LINE"
);
}
);
width = 181;
},
{
associatedMasterId = "3DD6C797-E5ED-486C-89DE-75EDF9B2F8B8";
layerId = "1841794A-B718-4F7E-8930-77021FC2ADB3";
width = 600;
},
{
layerId = "C1068CC4-E81B-47E6-9D26-F0E70787A68A";
width = 600;
}
);
unicode = 0661;
},
{
glyphname = "two-ar";
lastChange = "2019-07-31 03:33:30 +0000";
layers = (
{
layerId = "3DD6C797-E5ED-486C-89DE-75EDF9B2F8B8";
paths = (
{
closed = 1;
nodes = (
"350 537 LINE",
"461 486 LINE",
"-20 531 LINE",
"33 570 LINE",
"11 331 LINE",
"-22 380 LINE",
"448 335 LINE",
"328 297 LINE"
);
},
{
closed = 1;
nodes = (
"168 347 LINE",
"17 388 LINE",
"17 41 LINE",
"168 0 LINE"
);
}
);
width = 361;
},
{
associatedMasterId = "3DD6C797-E5ED-486C-89DE-75EDF9B2F8B8";
layerId = "2AE2A605-3620-464B-BC6C-9CA73958E341";
name = "Apr 22 19, 18:38";
paths = (
{
closed = 1;
nodes = (
"373 537 LINE",
"484 486 LINE",
"3 531 LINE",
"56 570 LINE",
"34 331 LINE",
"1 380 LINE",
"471 335 LINE",
"351 297 LINE"
);
},
{
closed = 1;
nodes = (
"191 0 LINE",
"191 347 LINE",
"40 388 LINE",
"40 41 LINE"
);
}
);
width = 384;
},
{
associatedMasterId = "3DD6C797-E5ED-486C-89DE-75EDF9B2F8B8";
layerId = "CDC9CE79-6DBE-426C-A65D-79A5166D64B2";
name = "Apr 22 19, 18:38";
paths = (
{
closed = 1;
nodes = (
"373 537 LINE",
"484 486 LINE",
"3 531 LINE",
"56 570 LINE",
"34 331 LINE",
"1 380 LINE",
"471 335 LINE",
"351 297 LINE"
);
},
{
closed = 1;
nodes = (
"191 0 LINE",
"191 347 LINE",
"40 388 LINE",
"40 41 LINE"
);
},
{
closed = 1;
nodes = (
"230 146 LINE",
"54 194 LINE",
"15 48 LINE",
"191 0 LINE"
);
}
);
width = 384;
},
{
associatedMasterId = "3DD6C797-E5ED-486C-89DE-75EDF9B2F8B8";
layerId = "1841794A-B718-4F7E-8930-77021FC2ADB3";
width = 600;
},
{
layerId = "C1068CC4-E81B-47E6-9D26-F0E70787A68A";
width = 600;
}
);
unicode = 0662;
},
{
glyphname = "three-ar";
lastChange = "2019-07-31 03:33:30 +0000";
layers = (
{
layerId = "3DD6C797-E5ED-486C-89DE-75EDF9B2F8B8";
paths = (
{
closed = 1;
nodes = (
"166 347 LINE",
"15 388 LINE",
"15 41 LINE",
"166 0 LINE"
);
},
{
closed = 1;
nodes = (
"166 260 LINE",
"166 500 LINE",
"15 459 LINE",
"15 260 LINE"
);
},
{
closed = 1;
nodes = (
"397 235 LINE",
"336 180 LINE",
"273 412 LINE",
"358 381 LINE",
"124 317 LINE",
"163 171 LINE"
);
},
{
closed = 1;
nodes = (
"313 260 LINE",
"313 545 LINE",
"356 512 LINE",
"149 447 LINE",
"192 504 LINE",
"192 260 LINE"
);
},
{
closed = 1;
nodes = (
"501 223 LINE",
"462 369 LINE",
"271 317 LINE",
"310 171 LINE"
);
},
{
closed = 1;
nodes = (
"490 260 LINE",
"490 500 LINE",
"339 459 LINE",
"339 260 LINE"
);
}
);
width = 516;
},
{
associatedMasterId = "3DD6C797-E5ED-486C-89DE-75EDF9B2F8B8";
layerId = "1841794A-B718-4F7E-8930-77021FC2ADB3";
width = 600;
},
{
layerId = "C1068CC4-E81B-47E6-9D26-F0E70787A68A";
width = 600;
}
);
unicode = 0663;
},
{
glyphname = "four-ar";
lastChange = "2019-07-31 03:33:30 +0000";
layers = (
{
layerId = "3DD6C797-E5ED-486C-89DE-75EDF9B2F8B8";
paths = (
{
closed = 1;
nodes = (
"353 358 LINE",
"376 301 LINE",
"33 460 LINE",
"102 472 LINE",
"-5 261 LINE",
"-41 327 LINE",
"312 165 LINE",
"249 141 LINE"
);
},
{
closed = 1;
nodes = (
"124 -35 LINE",
"498 32 LINE",
"448 -2 LINE",
"352 225 LINE",
"424 174 LINE",
"40 104 LINE",
"87 128 LINE",
"189 -67 LINE"
);
},
{
closed = 1;
nodes = (
"48 81 LINE",
"391 240 LINE",
"292 137 LINE",
"189 355 LINE",
"327 376 LINE",
"-25 214 LINE",
"11 280 LINE",
"116 70 LINE"
);
},
{
closed = 1;
nodes = (
"432 543 LINE",
"483 509 LINE",
"153 567 LINE",
"71 410 LINE",
"25 437 LINE",
"409 367 LINE",
"337 316 LINE"
);
}
);
width = 453;
},
{
associatedMasterId = "3DD6C797-E5ED-486C-89DE-75EDF9B2F8B8";
layerId = "1841794A-B718-4F7E-8930-77021FC2ADB3";
width = 600;
},
{
layerId = "C1068CC4-E81B-47E6-9D26-F0E70787A68A";
width = 600;
}
);
unicode = 0664;
},
{
glyphname = "five-ar";
lastChange = "2019-07-31 03:33:30 +0000";
layers = (
{
layerId = "3DD6C797-E5ED-486C-89DE-75EDF9B2F8B8";
paths = (
{
closed = 1;
nodes = (
"425 190 LINE",
"461 139 LINE",
"-20 184 LINE",
"33 223 LINE",
"11 -16 LINE",
"-22 33 LINE",
"448 -12 LINE",
"403 -50 LINE"
);
},
{
closed = 1;
nodes = (
"-4 172 LINE",
"216 172 LINE",
"160 87 LINE",
"317 726 LINE",
"292 488 LINE",
"93 488 LINE",
"174 722 LINE",
"-4 58 LINE"
);
},
{
closed = 1;
nodes = (
"421 143 LINE",
"421 383 LINE",
"270 383 LINE",
"270 143 LINE"
);
},
{
closed = 1;
nodes = (
"436 529 LINE",
"496 478 LINE",
"15 523 LINE",
"118 562 LINE",
"96 323 LINE",
"13 372 LINE",
"483 327 LINE",
"414 289 LINE"
);
}
);
width = 447;
},
{
associatedMasterId = "3DD6C797-E5ED-486C-89DE-75EDF9B2F8B8";
layerId = "1841794A-B718-4F7E-8930-77021FC2ADB3";
width = 600;
},
{
layerId = "C1068CC4-E81B-47E6-9D26-F0E70787A68A";
width = 600;
}
);
unicode = 0665;
},
{
glyphname = "seven-ar";
lastChange = "2019-07-31 03:33:30 +0000";
layers = (
{
layerId = "3DD6C797-E5ED-486C-89DE-75EDF9B2F8B8";
paths = (
{
closed = 1;
nodes = (
"187 0 LINE",
"393 0 LINE",
"347 -25 LINE",
"511 589 LINE",
"511 500 LINE",
"291 500 LINE",
"347 560 LINE",
"190 -79 LINE"
);
},
{
closed = 1;
nodes = (
"155 560 LINE",
"211 500 LINE",
"-9 500 LINE",
"-9 589 LINE",
"169 -75 LINE",
"137 0 LINE",
"227 0 LINE",
"245 247 LINE",
"312 -79 LINE"
);
}
);
width = 502;
},
{
associatedMasterId = "3DD6C797-E5ED-486C-89DE-75EDF9B2F8B8";
layerId = "1841794A-B718-4F7E-8930-77021FC2ADB3";
width = 600;
},
{
layerId = "C1068CC4-E81B-47E6-9D26-F0E70787A68A";
width = 600;
}
);
unicode = 0667;
},
{
glyphname = "nine-ar";
lastChange = "2019-07-31 03:33:30 +0000";
layers = (
{
layerId = "3DD6C797-E5ED-486C-89DE-75EDF9B2F8B8";
paths = (
{
closed = 1;
nodes = (
"438 481 LINE",
"509 426 LINE",
"43 554 LINE",
"143 584 LINE",
"80 352 LINE",
"15 405 LINE",
"470 280 LINE",
"375 249 LINE"
);
},
{
closed = 1;
nodes = (
"281 261 LINE",
"355 206 LINE",
"-97 323 LINE",
"62 323 LINE",
"2 90 LINE",
"-116 175 LINE",
"316 58 LINE",
"221 26 LINE"
);
},
{
closed = 1;
nodes = (
"197 181 LINE",
"197 396 LINE",
"46 396 LINE",
"46 181 LINE"
);
},
{
closed = 1;
nodes = (
"406 0 LINE",
"406 405 LINE",
"255 405 LINE",
"255 -37 LINE"
);
}
);
width = 444;
},
{
associatedMasterId = "3DD6C797-E5ED-486C-89DE-75EDF9B2F8B8";
layerId = "1841794A-B718-4F7E-8930-77021FC2ADB3";
width = 600;
},
{
layerId = "C1068CC4-E81B-47E6-9D26-F0E70787A68A";
width = 600;
}
);
unicode = 0669;
},
{
glyphname = "four-persian";
lastChange = "2019-07-31 03:33:30 +0000";
layers = (
{
layerId = "3DD6C797-E5ED-486C-89DE-75EDF9B2F8B8";
paths = (
{
closed = 1;
nodes = (
"166 347 LINE",
"15 388 LINE",
"15 41 LINE",
"166 0 LINE"
);
},
{
closed = 1;
nodes = (
"166 260 LINE",
"166 500 LINE",
"15 459 LINE",
"15 260 LINE"
);
},
{
closed = 1;
nodes = (
"397 235 LINE",
"336 180 LINE",
"273 412 LINE",
"358 381 LINE",
"124 317 LINE",
"163 171 LINE"
);
},
{
closed = 1;
nodes = (
"313 260 LINE",
"313 545 LINE",
"356 504 LINE",
"149 448 LINE",
"218 504 LINE",
"218 260 LINE"
);
},
{
closed = 1;
nodes = (
"501 223 LINE",
"462 369 LINE",
"271 317 LINE",
"310 171 LINE"
);
},
{
closed = 1;
nodes = (
"491 461 LINE",
"414 323 LINE",
"351 555 LINE",
"452 531 LINE",
"218 467 LINE",
"269 278 LINE",
"214 385 LINE"
);
}
);
width = 516;
},
{
layerId = "C1068CC4-E81B-47E6-9D26-F0E70787A68A";
width = 600;
}
);
unicode = 06F4;
},
{
glyphname = "five-persian";
lastChange = "2019-07-31 03:33:30 +0000";
layers = (
{
components = (
{
name = "five-ar";
}
);
layerId = "3DD6C797-E5ED-486C-89DE-75EDF9B2F8B8";
paths = (
{
closed = 1;
nodes = (
"206 41 LINE",
"227 39 LINE",
"245 248 LINE",
"224 250 LINE"
);
}
);
width = 447;
},
{
layerId = "C1068CC4-E81B-47E6-9D26-F0E70787A68A";
width = 600;
}
);
unicode = 06F5;
},
{
glyphname = "six-persian";
lastChange = "2019-07-31 03:33:30 +0000";
layers = (
{
layerId = "3DD6C797-E5ED-486C-89DE-75EDF9B2F8B8";
paths = (
{
closed = 1;
nodes = (
"353 358 LINE",
"376 301 LINE",
"33 460 LINE",
"102 472 LINE",
"-5 261 LINE",
"-41 327 LINE",
"312 165 LINE",
"249 141 LINE"
);
},
{
closed = 1;
nodes = (
"48 81 LINE",
"391 240 LINE",
"292 137 LINE",
"189 355 LINE",
"327 376 LINE",
"-25 214 LINE",
"11 280 LINE",
"116 70 LINE"
);
},
{
closed = 1;
nodes = (
"432 543 LINE",
"483 509 LINE",
"153 567 LINE",
"71 410 LINE",
"25 437 LINE",
"409 367 LINE",
"337 316 LINE"
);
}
);
width = 437;
},
{
layerId = "C1068CC4-E81B-47E6-9D26-F0E70787A68A";
width = 600;
}
);
unicode = 06F6;
},
{
glyphname = question;
lastChange = "2019-07-31 03:33:26 +0000";
layers = (
{
layerId = "3DD6C797-E5ED-486C-89DE-75EDF9B2F8B8";
paths = (
{
closed = 1;
nodes = (
"415 467 LINE",
"396 414 LINE",
"333 646 LINE",
"387 616 LINE",
"-79 488 LINE",
"6 547 LINE",
"69 315 LINE",
"-40 342 LINE"
);
},
{
closed = 1;
nodes = (
"40 83 LINE",
"406 183 LINE",
"363 127 LINE",
"363 360 LINE",
"369 327 LINE",
"40 232 LINE",
"72 281 LINE",
"132 46 LINE"
);
},
{
closed = 1;
nodes = (
"363 440 LINE",
"212 440 LINE",
"212 262 LINE",
"363 262 LINE"
);
},
{
closed = 1;
nodes = (
"232 162 LINE",
"81 244 LINE",
"81 31 LINE",
"232 72 LINE"
);
},
{
closed = 1;
nodes = (
"257 -41 LINE",
"238 31 LINE",
"90 -9 LINE",
"109 -82 LINE"
);
}
);
width = 399;
},
{
associatedMasterId = "3DD6C797-E5ED-486C-89DE-75EDF9B2F8B8";
layerId = "1841794A-B718-4F7E-8930-77021FC2ADB3";
width = 600;
},
{
layerId = "C1068CC4-E81B-47E6-9D26-F0E70787A68A";
width = 600;
}
);
unicode = 003F;
},
{
glyphname = dotaccentcomb;
lastChange = "2019-07-31 03:33:30 +0000";
layers = (
{
anchors = (
{
name = _top;
position = "{102, 500}";
},
{
name = top;
position = "{102, 652}";
}
);
layerId = "3DD6C797-E5ED-486C-89DE-75EDF9B2F8B8";
paths = (
{
closed = 1;
nodes = (
"227 689 LINE",
"258 589 LINE",
"-4 661 LINE",
"51 737 LINE",
"0 548 LINE",
"176 500 LINE"
);
}
);
width = 204;
},
{
associatedMasterId = "3DD6C797-E5ED-486C-89DE-75EDF9B2F8B8";
layerId = "1841794A-B718-4F7E-8930-77021FC2ADB3";
width = 600;
},
{
layerId = "C1068CC4-E81B-47E6-9D26-F0E70787A68A";
width = 600;
}
);
unicode = 0307;
},
{
glyphname = "tahabove-ar";
lastChange = "2019-07-31 03:33:30 +0000";
layers = (
{
anchors = (
{
name = _top;
position = "{87, 500}";
},
{
name = top;
position = "{87, 723}";
}
);
layerId = "3DD6C797-E5ED-486C-89DE-75EDF9B2F8B8";
paths = (
{
closed = 1;
nodes = (
"193 545 LINE",
"182 522 LINE",
"145 604 LINE",
"171 596 LINE",
"-51 539 LINE",
"-9 572 LINE",
"29 490 LINE",
"-30 485 LINE"
);
},
{
closed = 1;
nodes = (
"165 636 LINE",
"186 620 LINE",
"-13 676 LINE",
"37 675 LINE",
"10 590 LINE",
"-28 620 LINE",
"166 567 LINE",
"140 550 LINE"
);
},
{
closed = 1;
nodes = (
"10 554 LINE",
"65 554 LINE",
"65 693 LINE",
"10 693 LINE"
);
}
);
width = 174;
},
{
layerId = "C1068CC4-E81B-47E6-9D26-F0E70787A68A";
width = 600;
}
);
unicode = 0615;
},
{
glyphname = "dotabove-ar";
lastChange = "2019-07-31 03:33:30 +0000";
layers = (
{
anchors = (
{
name = _top;
position = "{84, 500}";
},
{
name = top;
position = "{84, 653}";
}
);
layerId = "3DD6C797-E5ED-486C-89DE-75EDF9B2F8B8";
paths = (
{
closed = 1;
nodes = (
"167 541 LINE",
"148 613 LINE",
"0 573 LINE",
"19 500 LINE"
);
}
);
width = 167;
},
{
anchors = (
{
name = _top;
position = "{102, 500}";
},
{
name = top;
position = "{102, 692}";
}
);
associatedMasterId = "3DD6C797-E5ED-486C-89DE-75EDF9B2F8B8";
layerId = "8EA01C20-1B1F-46B9-A21D-39865D55894A";
name = "Apr 19 19, 16:25";
paths = (
{
closed = 1;
nodes = (
"204 548 LINE",
"176 652 LINE",
"0 604 LINE",
"28 500 LINE"
);
}
);
width = 204;
},
{
associatedMasterId = "3DD6C797-E5ED-486C-89DE-75EDF9B2F8B8";
layerId = "1841794A-B718-4F7E-8930-77021FC2ADB3";
width = 600;
},
{
layerId = "C1068CC4-E81B-47E6-9D26-F0E70787A68A";
width = 600;
}
);
},
{
glyphname = "dotbelow-ar";
lastChange = "2019-07-31 03:33:30 +0000";
layers = (
{
anchors = (
{
name = _bottom;
position = "{84, 0}";
},
{
name = bottom;
position = "{84, -153}";
}
);
components = (
{
name = "dotabove-ar";
transform = "{1, 0, 0, 1, 0, -613}";
}
);
layerId = "3DD6C797-E5ED-486C-89DE-75EDF9B2F8B8";
width = 167;
},
{
anchors = (
{
name = _bottom;
position = "{102, 0}";
},
{
name = bottom;
position = "{102, -145}";
}
);
associatedMasterId = "3DD6C797-E5ED-486C-89DE-75EDF9B2F8B8";
layerId = "255F86E4-4748-48EE-8389-A7A178B6B3F8";
name = "Apr 19 19, 03:37";
paths = (
{
closed = 1;
nodes = (
"40 -128 LINE",
"188 -87 LINE",
"164 0 LINE",
"16 -40 LINE"
);
}
);
width = 204;
},
{
associatedMasterId = "3DD6C797-E5ED-486C-89DE-75EDF9B2F8B8";
layerId = "1841794A-B718-4F7E-8930-77021FC2ADB3";
width = 600;
},
{
layerId = "C1068CC4-E81B-47E6-9D26-F0E70787A68A";
width = 600;
}
);
},
{
glyphname = "twodotsverticalabove-ar";
lastChange = "2019-07-31 03:33:30 +0000";
layers = (
{
anchors = (
{
name = _top;
position = "{84, 500}";
},
{
name = top;
position = "{84, 751}";
}
);
layerId = "3DD6C797-E5ED-486C-89DE-75EDF9B2F8B8";
paths = (
{
closed = 1;
nodes = (
"167 642 LINE",
"148 714 LINE",
"0 674 LINE",
"19 601 LINE"
);
},
{
closed = 1;
nodes = (
"167 541 LINE",
"148 613 LINE",
"0 573 LINE",
"19 500 LINE"
);
}
);
width = 167;
},
{
associatedMasterId = "3DD6C797-E5ED-486C-89DE-75EDF9B2F8B8";
layerId = "1841794A-B718-4F7E-8930-77021FC2ADB3";
width = 600;
},
{
layerId = "C1068CC4-E81B-47E6-9D26-F0E70787A68A";
width = 600;
}
);
},
{
glyphname = "twodotshorizontalabove-ar";
lastChange = "2019-07-31 03:33:30 +0000";
layers = (
{
anchors = (
{
name = _top;
position = "{151, 500}";
},
{
name = top;
position = "{151, 653}";
}
);
components = (
{
name = "dotabove-ar";
transform = "{1, 0, 0, 1, 135, 0}";
},
{
alignment = -1;
name = "dotabove-ar";
}
);
layerId = "3DD6C797-E5ED-486C-89DE-75EDF9B2F8B8";
width = 302;
},
{
anchors = (
{
name = _top;
position = "{165, 500}";
},
{
name = top;
position = "{165, 660}";
}
);
associatedMasterId = "3DD6C797-E5ED-486C-89DE-75EDF9B2F8B8";
components = (
{
name = "dotabove-ar";
transform = "{1, 0, 0, 1, 163, 7}";
},
{
name = "dotabove-ar";
transform = "{1, 0, 0, 1, 28, 7}";
}
);
layerId = "24958EDE-D285-483F-ABFA-FC2FD3C15DCC";
name = "Apr 19 19, 16:27";
paths = (
{
closed = 1;
nodes = (
"373 560 LINE",
"311 504 LINE",
"270 664 LINE",
"354 632 LINE",
"135 572 LINE",
"154 500 LINE"
);
},
{
closed = 1;
nodes = (
"-24 488 LINE",
"195 548 LINE",
"176 620 LINE",
"-43 560 LINE",
"19 616 LINE",
"60 456 LINE"
);
}
);
width = 330;
},
{
associatedMasterId = "3DD6C797-E5ED-486C-89DE-75EDF9B2F8B8";
layerId = "1841794A-B718-4F7E-8930-77021FC2ADB3";
width = 600;
},
{
layerId = "C1068CC4-E81B-47E6-9D26-F0E70787A68A";
width = 600;
}
);
},
{
glyphname = "twodotshorizontalbelow-ar";
lastChange = "2019-07-31 03:33:30 +0000";
layers = (
{
anchors = (
{
name = _bottom;
position = "{165, 0}";
},
{
name = bottom;
position = "{165, -160}";
}
);
layerId = "3DD6C797-E5ED-486C-89DE-75EDF9B2F8B8";
paths = (
{
closed = 1;
nodes = (
"330 -72 LINE",
"311 0 LINE",
"135 -48 LINE",
"154 -120 LINE"
);
},
{
closed = 1;
nodes = (
"195 -72 LINE",
"176 0 LINE",
"0 -48 LINE",
"19 -120 LINE"
);
}
);
width = 330;
},
{
associatedMasterId = "3DD6C797-E5ED-486C-89DE-75EDF9B2F8B8";
layerId = "1841794A-B718-4F7E-8930-77021FC2ADB3";
width = 600;
},
{
layerId = "C1068CC4-E81B-47E6-9D26-F0E70787A68A";
width = 600;
}
);
},
{
glyphname = "threedotsupabove-ar";
lastChange = "2019-07-31 03:33:30 +0000";
layers = (
{
anchors = (
{
name = _top;
position = "{124, 453}";
},
{
name = top;
position = "{124, 646}";
}
);
layerId = "3DD6C797-E5ED-486C-89DE-75EDF9B2F8B8";
paths = (
{
closed = 1;
nodes = (
"-24 488 LINE",
"195 548 LINE",
"176 620 LINE",
"-43 560 LINE",
"19 616 LINE",
"60 456 LINE"
);
},
{
closed = 1;
nodes = (
"113 472 LINE",
"230 504 LINE",
"230 411 LINE",
"176 620 LINE",
"-43 560 LINE",
"93 645 LINE",
"156 399 LINE"
);
}
);
width = 330;
},
{
associatedMasterId = "3DD6C797-E5ED-486C-89DE-75EDF9B2F8B8";
layerId = "1841794A-B718-4F7E-8930-77021FC2ADB3";
width = 600;
},
{
layerId = "C1068CC4-E81B-47E6-9D26-F0E70787A68A";
width = 600;
}
);
},
{
glyphname = "wasla-ar";
lastChange = "2019-07-31 03:33:30 +0000";
layers = (
{
anchors = (
{
name = _top;
position = "{90, 500}";
},
{
name = top;
position = "{90, 690}";
}
);
layerId = "3DD6C797-E5ED-486C-89DE-75EDF9B2F8B8";
paths = (
{
closed = 1;
nodes = (
"198 545 LINE",
"187 522 LINE",
"150 604 LINE",
"176 596 LINE",
"-46 539 LINE",
"-4 572 LINE",
"34 490 LINE",
"-25 485 LINE"
);
},
{
closed = 1;
nodes = (
"169 636 LINE",
"190 620 LINE",
"-9 676 LINE",
"20 675 LINE",
"-7 590 LINE",
"-24 620 LINE",
"170 567 LINE",
"144 550 LINE"
);
},
{
closed = 1;
nodes = (
"-19 605 LINE",
"-27 674 LINE",
"43 519 LINE",
"21 533 LINE",
"103 567 LINE",
"97 539 LINE",
"26 693 LINE",
"82 605 LINE"
);
}
);
width = 179;
},
{
associatedMasterId = "3DD6C797-E5ED-486C-89DE-75EDF9B2F8B8";
layerId = "1841794A-B718-4F7E-8930-77021FC2ADB3";
width = 600;
},
{
layerId = "C1068CC4-E81B-47E6-9D26-F0E70787A68A";
width = 600;
}
);
},
{
glyphname = "gafsarkashabove-ar";
lastChange = "2019-07-31 03:33:30 +0000";
layers = (
{
anchors = (
{
name = _top;
position = "{96, 500}";
},
{
name = top;
position = "{96, 566}";
}
);
layerId = "3DD6C797-E5ED-486C-89DE-75EDF9B2F8B8";
paths = (
{
closed = 1;
nodes = (
"-14 498 LINE",
"210 530 LINE",
"197 501 LINE",
"185 570 LINE",
"206 548 LINE",
"-9 518 LINE",
"-3 537 LINE",
"6 484 LINE"
);
}
);
width = 192;
},
{
layerId = "C1068CC4-E81B-47E6-9D26-F0E70787A68A";
width = 600;
}
);
},
{
glyphname = "hamzaabove-ar";
lastChange = "2019-07-31 03:33:30 +0000";
layers = (
{
anchors = (
{
name = _top;
position = "{87, 500}";
},
{
name = top;
position = "{87, 708}";
}
);
layerId = "3DD6C797-E5ED-486C-89DE-75EDF9B2F8B8";
paths = (
{
closed = 1;
nodes = (
"193 545 LINE",
"182 522 LINE",
"145 604 LINE",
"171 596 LINE",
"-51 539 LINE",
"-9 572 LINE",
"29 490 LINE",
"-30 485 LINE"
);
},
{
closed = 1;
nodes = (
"143 611 LINE",
"164 595 LINE",
"0 641 LINE",
"25 650 LINE",
"-2 565 LINE",
"-19 587 LINE",
"144 542 LINE",
"118 525 LINE"
);
},
{
closed = 1;
nodes = (
"141 696 LINE",
"163 686 LINE",
"37 688 LINE",
"17 625 LINE",
"-1 632 LINE",
"144 628 LINE",
"120 607 LINE"
);
}
);
width = 174;
},
{
associatedMasterId = "3DD6C797-E5ED-486C-89DE-75EDF9B2F8B8";
layerId = "1841794A-B718-4F7E-8930-77021FC2ADB3";
width = 600;
},
{
layerId = "C1068CC4-E81B-47E6-9D26-F0E70787A68A";
width = 600;
}
);
unicode = 0654;
},
